<?xml version="1.0" encoding="utf-8"?>
<!-- Generator: Adobe Illustrator 25.4.1, SVG Export Plug-In . SVG Version: 6.00 Build 0)  -->
<svg version="1.1" id="Capa_1" xmlns="http://www.w3.org/2000/svg" xmlns:xlink="http://www.w3.org/1999/xlink" x="0px" y="0px"
	 viewBox="0 0 440 600" style="enable-background:new 0 0 440 600;" xml:space="preserve">
<style type="text/css">
	.st0{fill:#2E4999;}
	.st1{fill:#F6AE2D;}
	.st2{fill:#FFFFFF;}
</style>
<g>
	<path class="st0" d="M373.95,551H61.05C38.93,551,21,533.07,21,510.95V283.05C21,260.93,38.93,243,61.05,243h312.89
		c22.12,0,40.05,17.93,40.05,40.05v227.89C414,533.07,396.07,551,373.95,551z"/>
</g>
<g>
	<path class="st1" d="M58.88,307.65l-7.24-31.85h9.24l6.1,27.62h-5.87l17.38-27.62h9.24l-19.98,31.85H58.88z"/>
	<path class="st1" d="M83.54,307.65l4.91-24.71h8.65l-4.96,24.71H83.54z M93.92,280.26c-1.52,0-2.71-0.42-3.59-1.25
		c-0.88-0.83-1.32-1.84-1.32-3.03c0-1.4,0.51-2.56,1.52-3.48c1.02-0.93,2.37-1.39,4.07-1.39c1.49,0,2.68,0.38,3.59,1.14
		c0.91,0.76,1.37,1.73,1.37,2.91c0,1.49-0.52,2.71-1.55,3.66S95.62,280.26,93.92,280.26z"/>
	<path class="st1" d="M107.34,308.06c-2.15,0-4.2-0.24-6.14-0.71c-1.94-0.47-3.44-1.04-4.51-1.71l3.14-6.05
		c1.15,0.76,2.5,1.34,4.05,1.73c1.55,0.4,3.05,0.59,4.5,0.59c1.43,0,2.44-0.17,3.05-0.52s0.91-0.78,0.91-1.3
		c0-0.48-0.31-0.84-0.93-1.07s-1.42-0.42-2.39-0.57c-0.97-0.15-2-0.34-3.09-0.57s-2.12-0.58-3.09-1.05
		c-0.97-0.47-1.76-1.12-2.37-1.96c-0.61-0.83-0.91-1.95-0.91-3.34c0-1.97,0.58-3.62,1.73-4.96c1.15-1.33,2.72-2.34,4.71-3.03
		c1.99-0.68,4.22-1.02,6.71-1.02c1.76,0,3.46,0.17,5.1,0.52c1.64,0.35,3.06,0.84,4.28,1.48l-3.05,6.05
		c-1.21-0.73-2.46-1.21-3.75-1.46c-1.29-0.24-2.48-0.36-3.57-0.36c-1.43,0-2.44,0.17-3.05,0.52c-0.61,0.35-0.91,0.77-0.91,1.25
		s0.31,0.85,0.93,1.09c0.62,0.24,1.41,0.46,2.37,0.64c0.96,0.18,1.99,0.39,3.09,0.61c1.11,0.23,2.13,0.57,3.07,1.02
		s1.72,1.09,2.34,1.91c0.62,0.82,0.93,1.93,0.93,3.32c0,1.97-0.58,3.63-1.75,4.96c-1.17,1.33-2.74,2.33-4.71,2.98
		C112.06,307.74,109.83,308.06,107.34,308.06z"/>
	<path class="st1" d="M122.63,307.65l4.91-24.71h8.65l-4.96,24.71H122.63z M133.01,280.26c-1.52,0-2.71-0.42-3.59-1.25
		c-0.88-0.83-1.32-1.84-1.32-3.03c0-1.4,0.51-2.56,1.52-3.48c1.02-0.93,2.37-1.39,4.07-1.39c1.49,0,2.68,0.38,3.59,1.14
		c0.91,0.76,1.37,1.73,1.37,2.91c0,1.49-0.52,2.71-1.55,3.66S134.71,280.26,133.01,280.26z"/>
	<path class="st1" d="M150.53,308.06c-2.61,0-4.88-0.46-6.83-1.39c-1.94-0.92-3.44-2.24-4.5-3.94c-1.06-1.7-1.59-3.67-1.59-5.92
		c0-2.73,0.65-5.17,1.96-7.33c1.3-2.15,3.09-3.85,5.37-5.1c2.28-1.24,4.88-1.87,7.83-1.87c2.64,0,4.92,0.47,6.85,1.41
		c1.93,0.94,3.41,2.25,4.46,3.91c1.05,1.67,1.57,3.64,1.57,5.92c0,2.73-0.65,5.17-1.96,7.33c-1.3,2.15-3.08,3.85-5.32,5.1
		C156.11,307.44,153.5,308.06,150.53,308.06z M151.03,301.19c1.15,0,2.17-0.29,3.05-0.87c0.88-0.58,1.57-1.39,2.07-2.43
		c0.5-1.05,0.75-2.28,0.75-3.71c0-1.33-0.4-2.46-1.21-3.37c-0.8-0.91-1.95-1.37-3.44-1.37c-1.15,0-2.18,0.29-3.07,0.86
		c-0.9,0.58-1.59,1.39-2.09,2.43c-0.5,1.05-0.75,2.27-0.75,3.66c0,1.43,0.41,2.58,1.23,3.46
		C148.39,300.75,149.54,301.19,151.03,301.19z M149.98,280.03l6.83-6.87h8.92l-9.37,6.87H149.98z"/>
	<path class="st1" d="M187.43,282.53c2.06,0,3.83,0.44,5.3,1.32c1.47,0.88,2.52,2.16,3.14,3.85c0.62,1.68,0.67,3.78,0.16,6.3
		l-2.73,13.65h-8.65l2.55-12.79c0.33-1.61,0.24-2.84-0.27-3.69c-0.52-0.85-1.5-1.27-2.96-1.27c-1.49,0-2.72,0.46-3.71,1.37
		s-1.68,2.31-2.07,4.19l-2.46,12.2h-8.65l4.92-24.71h8.15l-1.37,6.96l-1.05-2c1.15-1.82,2.6-3.17,4.35-4.05
		S185.61,282.53,187.43,282.53z"/>
</g>
<g>
	<g>
		<path class="st2" d="M83.69,365.02c-1.37,0-2.67-0.2-3.91-0.59s-2.24-0.9-2.99-1.51l1.12-2.53c0.7,0.55,1.57,1.01,2.6,1.38
			c1.03,0.37,2.09,0.55,3.18,0.55c0.92,0,1.66-0.1,2.22-0.3c0.57-0.2,0.98-0.47,1.25-0.81c0.27-0.34,0.4-0.73,0.4-1.16
			c0-0.53-0.19-0.96-0.58-1.29c-0.38-0.33-0.88-0.58-1.49-0.78c-0.61-0.19-1.28-0.37-2.03-0.53c-0.74-0.16-1.48-0.35-2.22-0.59
			c-0.74-0.23-1.42-0.53-2.04-0.89c-0.62-0.36-1.11-0.84-1.49-1.44s-0.56-1.37-0.56-2.3c0-0.95,0.25-1.82,0.76-2.61
			c0.51-0.79,1.28-1.43,2.33-1.9c1.04-0.47,2.36-0.71,3.96-0.71c1.05,0,2.09,0.13,3.12,0.4c1.03,0.27,1.93,0.65,2.7,1.15l-1.03,2.53
			c-0.78-0.47-1.59-0.81-2.42-1.04s-1.63-0.34-2.4-0.34c-0.88,0-1.61,0.11-2.18,0.32s-0.98,0.5-1.24,0.86
			c-0.26,0.36-0.39,0.75-0.39,1.19c0,0.53,0.19,0.96,0.56,1.29c0.38,0.32,0.87,0.58,1.48,0.76c0.61,0.18,1.29,0.36,2.04,0.53
			c0.75,0.17,1.49,0.36,2.23,0.59c0.73,0.22,1.41,0.52,2.02,0.88s1.11,0.83,1.49,1.42c0.38,0.59,0.56,1.35,0.56,2.26
			c0,0.93-0.25,1.8-0.76,2.59c-0.51,0.79-1.29,1.42-2.34,1.9S85.29,365.02,83.69,365.02z"/>
		<path class="st2" d="M99.96,364.95c-1.48,0-2.78-0.3-3.89-0.89c-1.11-0.59-1.97-1.4-2.57-2.42c-0.61-1.03-0.91-2.2-0.91-3.54
			c0-1.33,0.29-2.51,0.89-3.54s1.41-1.83,2.45-2.42s2.23-0.89,3.56-0.89c1.3,0,2.46,0.29,3.48,0.86c1.02,0.58,1.82,1.38,2.4,2.41
			c0.58,1.03,0.88,2.26,0.88,3.68c0,0.12,0,0.26-0.01,0.44c-0.01,0.17-0.02,0.33-0.04,0.46H95.06v-2.08h9.47l-1.25,0.65
			c0.02-0.75-0.14-1.42-0.46-2.01c-0.32-0.59-0.77-1.05-1.34-1.38c-0.57-0.33-1.23-0.49-2-0.49c-0.75,0-1.42,0.16-2.01,0.49
			c-0.59,0.32-1.05,0.79-1.36,1.39c-0.32,0.6-0.48,1.29-0.48,2.08v0.5c0,0.8,0.18,1.51,0.54,2.12s0.87,1.1,1.54,1.44
			c0.67,0.34,1.44,0.51,2.32,0.51c0.75,0,1.43-0.12,2.03-0.38s1.13-0.62,1.6-1.1l1.7,1.95c-0.62,0.7-1.38,1.23-2.29,1.6
			C102.17,364.76,101.13,364.95,99.96,364.95z"/>
		<path class="st2" d="M109.26,364.77v-13.35h2.97v3.68l-0.35-1.08c0.38-0.9,1.01-1.59,1.88-2.06c0.87-0.47,1.93-0.71,3.18-0.71
			v2.98c-0.12-0.02-0.23-0.03-0.35-0.04s-0.23-0.01-0.33-0.01c-1.2,0-2.15,0.34-2.85,1.03c-0.7,0.68-1.05,1.72-1.05,3.12v6.45
			H109.26z"/>
		<path class="st2" d="M132.91,364.95c-1.48,0-2.78-0.3-3.89-0.89c-1.11-0.59-1.97-1.4-2.57-2.42c-0.61-1.03-0.91-2.2-0.91-3.54
			c0-1.33,0.29-2.51,0.89-3.54s1.41-1.83,2.45-2.42s2.23-0.89,3.56-0.89c1.3,0,2.46,0.29,3.48,0.86c1.02,0.58,1.82,1.38,2.4,2.41
			c0.58,1.03,0.88,2.26,0.88,3.68c0,0.12,0,0.26-0.01,0.44c-0.01,0.17-0.02,0.33-0.04,0.46h-11.12v-2.08h9.47l-1.25,0.65
			c0.02-0.75-0.14-1.42-0.46-2.01c-0.32-0.59-0.77-1.05-1.34-1.38c-0.57-0.33-1.23-0.49-2-0.49c-0.75,0-1.42,0.16-2.01,0.49
			c-0.59,0.32-1.05,0.79-1.36,1.39c-0.32,0.6-0.48,1.29-0.48,2.08v0.5c0,0.8,0.18,1.51,0.54,2.12s0.87,1.1,1.54,1.44
			c0.67,0.34,1.44,0.51,2.32,0.51c0.75,0,1.43-0.12,2.03-0.38s1.13-0.62,1.6-1.1l1.7,1.95c-0.62,0.7-1.38,1.23-2.29,1.6
			C135.12,364.76,134.08,364.95,132.91,364.95z"/>
		<path class="st2" d="M142.21,364.77v-18.55h3.1v18.55H142.21z"/>
		<path class="st2" d="M156.34,369.62v-18.2h2.97v3.15l-0.12,3.55l0.25,3.55v7.95H156.34z M163.71,364.95
			c-1.1,0-2.09-0.25-2.98-0.74c-0.88-0.49-1.58-1.25-2.1-2.26c-0.52-1.02-0.77-2.3-0.77-3.85c0-1.57,0.25-2.85,0.74-3.86
			c0.49-1.01,1.19-1.76,2.09-2.25c0.9-0.49,1.91-0.74,3.03-0.74c1.3,0,2.46,0.28,3.47,0.85c1.02,0.57,1.82,1.37,2.41,2.4
			c0.59,1.03,0.89,2.23,0.89,3.6c0,1.38-0.3,2.59-0.89,3.61c-0.59,1.03-1.4,1.82-2.41,2.39
			C166.17,364.66,165.01,364.95,163.71,364.95z M163.34,362.3c0.77,0,1.45-0.17,2.04-0.53c0.59-0.35,1.06-0.84,1.41-1.47
			c0.35-0.63,0.53-1.37,0.53-2.2c0-0.85-0.18-1.59-0.53-2.21s-0.82-1.11-1.41-1.45c-0.59-0.34-1.27-0.51-2.04-0.51
			c-0.73,0-1.4,0.17-2,0.51c-0.6,0.34-1.08,0.83-1.43,1.45s-0.53,1.36-0.53,2.21c0,0.83,0.18,1.57,0.53,2.2
			c0.35,0.63,0.83,1.12,1.43,1.47C161.94,362.12,162.6,362.3,163.34,362.3z"/>
		<path class="st2" d="M173.49,364.77v-13.35h2.97v3.68l-0.35-1.08c0.38-0.9,1.01-1.59,1.88-2.06c0.87-0.47,1.92-0.71,3.17-0.71
			v2.98c-0.12-0.02-0.23-0.03-0.35-0.04c-0.12-0.01-0.23-0.01-0.33-0.01c-1.2,0-2.15,0.34-2.85,1.03c-0.7,0.68-1.05,1.72-1.05,3.12
			v6.45H173.49z"/>
		<path class="st2" d="M185.41,349.22c-0.58,0-1.06-0.18-1.44-0.55c-0.38-0.37-0.56-0.82-0.56-1.35c0-0.5,0.19-0.93,0.56-1.3
			c0.38-0.37,0.85-0.55,1.44-0.55c0.58,0,1.06,0.17,1.44,0.51s0.56,0.78,0.56,1.31s-0.18,0.99-0.55,1.36
			C186.49,349.04,186.01,349.22,185.41,349.22z M183.86,364.77v-13.35h3.1v13.35H183.86z"/>
		<path class="st2" d="M198.63,351.25c1.08,0,2.04,0.21,2.86,0.62c0.82,0.42,1.48,1.06,1.97,1.92c0.49,0.87,0.74,1.97,0.74,3.33
			v7.65h-3.12v-7.25c0-1.18-0.28-2.07-0.83-2.65c-0.55-0.58-1.33-0.88-2.35-0.88c-0.73,0-1.38,0.15-1.95,0.45
			c-0.57,0.3-1,0.75-1.31,1.34c-0.31,0.59-0.46,1.34-0.46,2.24v6.75h-3.1v-13.35h2.97v3.62l-0.53-1.12
			c0.45-0.85,1.12-1.51,2.01-1.97S197.47,351.25,198.63,351.25z"/>
		<path class="st2" d="M214.33,364.95c-1.4,0-2.65-0.3-3.74-0.89c-1.09-0.59-1.95-1.4-2.56-2.42c-0.62-1.03-0.93-2.2-0.93-3.54
			c0-1.35,0.31-2.53,0.93-3.55c0.62-1.02,1.47-1.82,2.56-2.41c1.09-0.59,2.34-0.89,3.74-0.89c1.28,0,2.43,0.27,3.43,0.8
			s1.75,1.31,2.25,2.33l-2.38,1.4c-0.4-0.62-0.89-1.08-1.46-1.39c-0.57-0.31-1.2-0.46-1.86-0.46c-0.77,0-1.46,0.17-2.08,0.51
			c-0.62,0.34-1.1,0.83-1.45,1.45c-0.35,0.62-0.53,1.36-0.53,2.21c0,0.85,0.17,1.59,0.53,2.22c0.35,0.63,0.83,1.12,1.45,1.46
			s1.31,0.51,2.08,0.51c0.67,0,1.29-0.15,1.86-0.46c0.58-0.31,1.06-0.78,1.46-1.41l2.38,1.4c-0.5,1-1.25,1.77-2.25,2.31
			S215.62,364.95,214.33,364.95z"/>
		<path class="st2" d="M224.18,349.22c-0.58,0-1.06-0.18-1.44-0.55c-0.38-0.37-0.56-0.82-0.56-1.35c0-0.5,0.19-0.93,0.56-1.3
			c0.38-0.37,0.85-0.55,1.44-0.55c0.58,0,1.06,0.17,1.44,0.51s0.56,0.78,0.56,1.31s-0.18,0.99-0.55,1.36
			C225.27,349.04,224.78,349.22,224.18,349.22z M222.63,364.77v-13.35h3.1v13.35H222.63z"/>
		<path class="st2" d="M229.86,369.62v-18.2h2.97v3.15l-0.12,3.55l0.25,3.55v7.95H229.86z M237.23,364.95
			c-1.1,0-2.09-0.25-2.98-0.74c-0.88-0.49-1.58-1.25-2.1-2.26s-0.78-2.3-0.78-3.85c0-1.57,0.25-2.85,0.74-3.86
			c0.49-1.01,1.19-1.76,2.09-2.25c0.9-0.49,1.91-0.74,3.03-0.74c1.3,0,2.46,0.28,3.47,0.85s1.82,1.37,2.41,2.4
			c0.59,1.03,0.89,2.23,0.89,3.6c0,1.38-0.3,2.59-0.89,3.61c-0.59,1.03-1.4,1.82-2.41,2.39S238.53,364.95,237.23,364.95z
			 M236.86,362.3c0.77,0,1.45-0.17,2.04-0.53c0.59-0.35,1.06-0.84,1.41-1.47c0.35-0.63,0.52-1.37,0.52-2.2
			c0-0.85-0.17-1.59-0.52-2.21c-0.35-0.62-0.82-1.11-1.41-1.45c-0.59-0.34-1.27-0.51-2.04-0.51c-0.73,0-1.4,0.17-2,0.51
			c-0.6,0.34-1.08,0.83-1.42,1.45c-0.35,0.62-0.53,1.36-0.53,2.21c0,0.83,0.17,1.57,0.53,2.2c0.35,0.63,0.82,1.12,1.42,1.47
			C235.46,362.12,236.13,362.3,236.86,362.3z"/>
		<path class="st2" d="M250.83,364.95c-1,0-1.88-0.17-2.62-0.51s-1.33-0.82-1.74-1.42c-0.41-0.61-0.61-1.3-0.61-2.06
			c0-0.75,0.18-1.43,0.54-2.03s0.95-1.07,1.76-1.42c0.82-0.35,1.9-0.52,3.25-0.52h3.88v2.07h-3.65c-1.05,0-1.76,0.17-2.14,0.51
			c-0.38,0.34-0.56,0.77-0.56,1.29c0,0.55,0.23,0.99,0.67,1.32c0.45,0.33,1.08,0.5,1.88,0.5c0.77,0,1.45-0.17,2.06-0.53
			c0.61-0.35,1.05-0.87,1.34-1.55l0.5,1.88c-0.3,0.78-0.83,1.39-1.6,1.82C253.02,364.73,252.03,364.95,250.83,364.95z
			 M255.03,364.77v-2.72l-0.15-0.55v-4.73c0-0.92-0.28-1.63-0.84-2.14s-1.4-0.76-2.54-0.76c-0.73,0-1.46,0.12-2.17,0.35
			c-0.72,0.23-1.33,0.56-1.85,0.97l-1.22-2.28c0.73-0.55,1.59-0.97,2.58-1.25s2.01-0.42,3.08-0.42c1.95,0,3.45,0.47,4.5,1.4
			c1.05,0.93,1.57,2.37,1.57,4.3v7.82H255.03z"/>
		<path class="st2" d="M262.01,364.77v-18.55h3.1v18.55H262.01z"/>
		<path class="st2" d="M282.38,364.95c-1.48,0-2.78-0.3-3.89-0.89c-1.11-0.59-1.97-1.4-2.58-2.42s-0.91-2.2-0.91-3.54
			c0-1.33,0.3-2.51,0.89-3.54c0.59-1.02,1.41-1.83,2.45-2.42c1.04-0.59,2.23-0.89,3.56-0.89c1.3,0,2.46,0.29,3.48,0.86
			c1.02,0.58,1.82,1.38,2.4,2.41c0.58,1.03,0.88,2.26,0.88,3.68c0,0.12,0,0.26-0.01,0.44c-0.01,0.17-0.02,0.33-0.04,0.46h-11.12
			v-2.08h9.48l-1.25,0.65c0.02-0.75-0.14-1.42-0.46-2.01s-0.77-1.05-1.34-1.38c-0.57-0.33-1.23-0.49-2-0.49
			c-0.75,0-1.42,0.16-2.01,0.49c-0.59,0.32-1.05,0.79-1.36,1.39s-0.47,1.29-0.47,2.08v0.5c0,0.8,0.18,1.51,0.54,2.12
			s0.87,1.1,1.54,1.44c0.67,0.34,1.44,0.51,2.33,0.51c0.75,0,1.42-0.12,2.02-0.38c0.6-0.25,1.13-0.62,1.6-1.1l1.7,1.95
			c-0.62,0.7-1.38,1.23-2.29,1.6C284.59,364.76,283.55,364.95,282.38,364.95z"/>
		<path class="st2" d="M299.23,351.25c1.08,0,2.04,0.21,2.86,0.62s1.48,1.06,1.98,1.92c0.49,0.87,0.74,1.97,0.74,3.33v7.65h-3.12
			v-7.25c0-1.18-0.28-2.07-0.83-2.65s-1.33-0.88-2.35-0.88c-0.73,0-1.38,0.15-1.95,0.45c-0.57,0.3-1,0.75-1.31,1.34
			c-0.31,0.59-0.46,1.34-0.46,2.24v6.75h-3.1v-13.35h2.97v3.62l-0.52-1.12c0.45-0.85,1.12-1.51,2.01-1.97
			S298.07,351.25,299.23,351.25z"/>
		<path class="st2" d="M308.81,364.77v-18.55h3.1v18.55H308.81z"/>
		<path class="st2" d="M320.03,364.95c-1,0-1.88-0.17-2.62-0.51s-1.33-0.82-1.74-1.42c-0.41-0.61-0.61-1.3-0.61-2.06
			c0-0.75,0.18-1.43,0.54-2.03s0.95-1.07,1.76-1.42c0.82-0.35,1.9-0.52,3.25-0.52h3.88v2.07h-3.65c-1.05,0-1.76,0.17-2.14,0.51
			c-0.38,0.34-0.56,0.77-0.56,1.29c0,0.55,0.23,0.99,0.67,1.32c0.45,0.33,1.08,0.5,1.88,0.5c0.77,0,1.45-0.17,2.06-0.53
			c0.61-0.35,1.05-0.87,1.34-1.55l0.5,1.88c-0.3,0.78-0.83,1.39-1.6,1.82C322.21,364.73,321.23,364.95,320.03,364.95z
			 M324.23,364.77v-2.72l-0.15-0.55v-4.73c0-0.92-0.28-1.63-0.84-2.14s-1.4-0.76-2.54-0.76c-0.73,0-1.46,0.12-2.17,0.35
			c-0.72,0.23-1.33,0.56-1.85,0.97l-1.22-2.28c0.73-0.55,1.59-0.97,2.58-1.25s2.01-0.42,3.08-0.42c1.95,0,3.45,0.47,4.5,1.4
			c1.05,0.93,1.57,2.37,1.57,4.3v7.82H324.23z"/>
		<path class="st2" d="M337.33,364.95c-1.4,0-2.65-0.3-3.74-0.89c-1.09-0.59-1.95-1.4-2.56-2.42c-0.62-1.03-0.92-2.2-0.92-3.54
			c0-1.35,0.31-2.53,0.92-3.55c0.62-1.02,1.47-1.82,2.56-2.41s2.34-0.89,3.74-0.89c1.28,0,2.42,0.27,3.42,0.8s1.75,1.31,2.25,2.33
			l-2.38,1.4c-0.4-0.62-0.89-1.08-1.46-1.39s-1.2-0.46-1.86-0.46c-0.77,0-1.46,0.17-2.08,0.51c-0.62,0.34-1.1,0.83-1.45,1.45
			s-0.53,1.36-0.53,2.21c0,0.85,0.18,1.59,0.53,2.22s0.83,1.12,1.45,1.46c0.62,0.34,1.31,0.51,2.08,0.51c0.67,0,1.29-0.15,1.86-0.46
			c0.58-0.31,1.06-0.78,1.46-1.41l2.38,1.4c-0.5,1-1.25,1.77-2.25,2.31S338.61,364.95,337.33,364.95z"/>
		<path class="st2" d="M351.81,364.95c-1.48,0-2.78-0.3-3.89-0.89c-1.11-0.59-1.97-1.4-2.58-2.42s-0.91-2.2-0.91-3.54
			c0-1.33,0.3-2.51,0.89-3.54c0.59-1.02,1.41-1.83,2.45-2.42c1.04-0.59,2.23-0.89,3.56-0.89c1.3,0,2.46,0.29,3.48,0.86
			c1.02,0.58,1.82,1.38,2.4,2.41c0.58,1.03,0.88,2.26,0.88,3.68c0,0.12,0,0.26-0.01,0.44c-0.01,0.17-0.02,0.33-0.04,0.46h-11.12
			v-2.08h9.48l-1.25,0.65c0.02-0.75-0.14-1.42-0.46-2.01s-0.77-1.05-1.34-1.38c-0.57-0.33-1.23-0.49-2-0.49
			c-0.75,0-1.42,0.16-2.01,0.49c-0.59,0.32-1.05,0.79-1.36,1.39s-0.47,1.29-0.47,2.08v0.5c0,0.8,0.18,1.51,0.54,2.12
			s0.87,1.1,1.54,1.44c0.67,0.34,1.44,0.51,2.33,0.51c0.75,0,1.42-0.12,2.02-0.38c0.6-0.25,1.13-0.62,1.6-1.1l1.7,1.95
			c-0.62,0.7-1.38,1.23-2.29,1.6C354.01,364.76,352.97,364.95,351.81,364.95z"/>
		<path class="st2" d="M66.59,394.95c-1.48,0-2.78-0.3-3.89-0.89c-1.11-0.59-1.97-1.4-2.58-2.42s-0.91-2.2-0.91-3.54
			c0-1.33,0.3-2.51,0.89-3.54c0.59-1.02,1.41-1.83,2.45-2.42c1.04-0.59,2.23-0.89,3.56-0.89c1.3,0,2.46,0.29,3.48,0.86
			c1.02,0.58,1.82,1.38,2.4,2.41c0.58,1.03,0.88,2.26,0.88,3.68c0,0.12,0,0.26-0.01,0.44c-0.01,0.17-0.02,0.33-0.04,0.46H61.69
			v-2.08h9.48l-1.25,0.65c0.02-0.75-0.14-1.42-0.46-2.01s-0.77-1.05-1.34-1.38c-0.57-0.33-1.23-0.49-2-0.49
			c-0.75,0-1.42,0.16-2.01,0.49c-0.59,0.32-1.05,0.79-1.36,1.39s-0.47,1.29-0.47,2.08v0.5c0,0.8,0.18,1.51,0.54,2.12
			s0.87,1.1,1.54,1.44c0.67,0.34,1.44,0.51,2.33,0.51c0.75,0,1.42-0.12,2.02-0.38c0.6-0.25,1.13-0.62,1.6-1.1l1.7,1.95
			c-0.62,0.7-1.38,1.23-2.29,1.6C68.79,394.76,67.75,394.95,66.59,394.95z"/>
		<path class="st2" d="M83.44,381.25c1.08,0,2.04,0.21,2.86,0.62c0.83,0.42,1.48,1.06,1.97,1.92c0.49,0.87,0.74,1.97,0.74,3.33v7.65
			h-3.12v-7.25c0-1.18-0.28-2.07-0.83-2.65S83.73,384,82.71,384c-0.73,0-1.38,0.15-1.95,0.45c-0.57,0.3-1,0.75-1.31,1.34
			s-0.46,1.34-0.46,2.24v6.75h-3.1v-13.35h2.97v3.62l-0.53-1.12c0.45-0.85,1.12-1.51,2.01-1.97
			C81.24,381.48,82.27,381.25,83.44,381.25z"/>
		<path class="st2" d="M91.21,384.02v-2.5h8.9v2.5H91.21z M98.01,394.95c-1.47,0-2.6-0.38-3.4-1.14c-0.8-0.76-1.2-1.87-1.2-3.34v-12
			h3.1v11.9c0,0.63,0.17,1.12,0.5,1.48c0.33,0.35,0.8,0.52,1.4,0.52c0.68,0,1.25-0.18,1.7-0.55l0.9,2.22
			c-0.38,0.3-0.84,0.53-1.38,0.68C99.1,394.87,98.56,394.95,98.01,394.95z"/>
		<path class="st2" d="M103.61,394.77v-13.35h2.97v3.68l-0.35-1.08c0.38-0.9,1.01-1.59,1.88-2.06c0.87-0.47,1.93-0.71,3.18-0.71
			v2.98c-0.12-0.02-0.23-0.03-0.35-0.04s-0.23-0.01-0.33-0.01c-1.2,0-2.15,0.34-2.85,1.03c-0.7,0.68-1.05,1.72-1.05,3.12v6.45
			H103.61z"/>
		<path class="st2" d="M120.11,394.95c-1.48,0-2.78-0.3-3.89-0.89c-1.11-0.59-1.97-1.4-2.58-2.42c-0.61-1.03-0.91-2.2-0.91-3.54
			c0-1.33,0.3-2.51,0.89-3.54c0.59-1.02,1.41-1.83,2.45-2.42c1.04-0.59,2.23-0.89,3.56-0.89c1.3,0,2.46,0.29,3.47,0.86
			c1.02,0.58,1.82,1.38,2.4,2.41c0.58,1.03,0.88,2.26,0.88,3.68c0,0.12,0,0.26-0.01,0.44c-0.01,0.17-0.02,0.33-0.04,0.46h-11.12
			v-2.08h9.48l-1.25,0.65c0.02-0.75-0.14-1.42-0.46-2.01c-0.33-0.59-0.77-1.05-1.34-1.38c-0.57-0.33-1.23-0.49-2-0.49
			c-0.75,0-1.42,0.16-2.01,0.49c-0.59,0.32-1.05,0.79-1.36,1.39s-0.47,1.29-0.47,2.08v0.5c0,0.8,0.18,1.51,0.54,2.12
			c0.36,0.62,0.87,1.1,1.54,1.44c0.67,0.34,1.44,0.51,2.33,0.51c0.75,0,1.42-0.12,2.02-0.38c0.6-0.25,1.13-0.62,1.6-1.1l1.7,1.95
			c-0.62,0.7-1.38,1.23-2.29,1.6C122.32,394.76,121.28,394.95,120.11,394.95z"/>
		<path class="st2" d="M136.31,394.77v-18.55h3.1v18.55H136.31z"/>
		<path class="st2" d="M147.54,394.95c-1,0-1.88-0.17-2.62-0.51s-1.33-0.82-1.74-1.42c-0.41-0.61-0.61-1.3-0.61-2.06
			c0-0.75,0.18-1.43,0.54-2.03s0.95-1.07,1.76-1.42c0.82-0.35,1.9-0.52,3.25-0.52h3.88v2.07h-3.65c-1.05,0-1.76,0.17-2.14,0.51
			c-0.38,0.34-0.56,0.77-0.56,1.29c0,0.55,0.23,0.99,0.68,1.32c0.45,0.33,1.07,0.5,1.88,0.5c0.77,0,1.45-0.17,2.06-0.53
			c0.61-0.35,1.05-0.87,1.34-1.55l0.5,1.88c-0.3,0.78-0.83,1.39-1.6,1.82S148.74,394.95,147.54,394.95z M151.74,394.77v-2.72
			l-0.15-0.55v-4.73c0-0.92-0.28-1.63-0.84-2.14s-1.4-0.76-2.54-0.76c-0.73,0-1.46,0.12-2.18,0.35c-0.72,0.23-1.33,0.56-1.85,0.97
			l-1.22-2.28c0.73-0.55,1.59-0.97,2.57-1.25s2.01-0.42,3.08-0.42c1.95,0,3.45,0.47,4.5,1.4c1.05,0.93,1.58,2.37,1.58,4.3v7.82
			H151.74z"/>
		<path class="st2" d="M162.84,394.95c-1.13,0-2.21-0.15-3.23-0.44s-1.83-0.65-2.45-1.06l1.2-2.38c0.6,0.38,1.32,0.7,2.15,0.94
			c0.83,0.24,1.68,0.36,2.53,0.36c0.97,0,1.67-0.13,2.11-0.39c0.44-0.26,0.66-0.61,0.66-1.06c0-0.37-0.15-0.65-0.45-0.84
			c-0.3-0.19-0.69-0.34-1.17-0.44c-0.48-0.1-1.02-0.19-1.61-0.27s-1.18-0.2-1.77-0.34c-0.59-0.14-1.13-0.35-1.61-0.62
			c-0.48-0.28-0.88-0.65-1.18-1.11c-0.3-0.47-0.45-1.09-0.45-1.88c0-0.83,0.24-1.56,0.72-2.19s1.16-1.11,2.04-1.46
			c0.88-0.35,1.91-0.52,3.11-0.52c0.88,0,1.79,0.1,2.71,0.31c0.92,0.21,1.7,0.5,2.31,0.86l-1.23,2.38c-0.62-0.37-1.25-0.62-1.9-0.76
			c-0.65-0.14-1.29-0.21-1.93-0.21c-0.93,0-1.63,0.14-2.1,0.41s-0.7,0.63-0.7,1.06c0,0.4,0.15,0.7,0.45,0.9
			c0.3,0.2,0.69,0.35,1.17,0.46c0.48,0.11,1.02,0.21,1.61,0.3c0.59,0.09,1.18,0.21,1.76,0.35s1.12,0.34,1.61,0.6
			c0.49,0.26,0.89,0.62,1.19,1.09c0.3,0.47,0.45,1.08,0.45,1.83c0,0.85-0.25,1.58-0.74,2.19c-0.49,0.61-1.18,1.08-2.08,1.42
			S164.09,394.95,162.84,394.95z"/>
		<path class="st2" d="M186.04,381.25c1.08,0,2.04,0.21,2.86,0.62c0.83,0.42,1.48,1.06,1.98,1.92c0.49,0.87,0.74,1.97,0.74,3.33
			v7.65h-3.12v-7.25c0-1.18-0.28-2.07-0.82-2.65c-0.55-0.58-1.33-0.88-2.35-0.88c-0.73,0-1.38,0.15-1.95,0.45
			c-0.57,0.3-1,0.75-1.31,1.34s-0.46,1.34-0.46,2.24v6.75h-3.1v-13.35h2.97v3.62l-0.52-1.12c0.45-0.85,1.12-1.51,2.01-1.97
			C183.84,381.48,184.87,381.25,186.04,381.25z"/>
		<path class="st2" d="M201.88,394.95c-1.48,0-2.78-0.3-3.89-0.89c-1.11-0.59-1.97-1.4-2.58-2.42s-0.91-2.2-0.91-3.54
			c0-1.33,0.29-2.51,0.89-3.54s1.41-1.83,2.45-2.42c1.04-0.59,2.23-0.89,3.56-0.89c1.3,0,2.46,0.29,3.47,0.86
			c1.02,0.58,1.82,1.38,2.4,2.41c0.58,1.03,0.88,2.26,0.88,3.68c0,0.12,0,0.26-0.01,0.44c-0.01,0.17-0.02,0.33-0.04,0.46h-11.12
			v-2.08h9.47l-1.25,0.65c0.02-0.75-0.14-1.42-0.46-2.01s-0.77-1.05-1.34-1.38c-0.57-0.33-1.23-0.49-2-0.49
			c-0.75,0-1.42,0.16-2.01,0.49c-0.59,0.32-1.04,0.79-1.36,1.39c-0.32,0.6-0.48,1.29-0.48,2.08v0.5c0,0.8,0.18,1.51,0.54,2.12
			c0.36,0.62,0.87,1.1,1.54,1.44c0.67,0.34,1.44,0.51,2.32,0.51c0.75,0,1.43-0.12,2.03-0.38s1.13-0.62,1.6-1.1l1.7,1.95
			c-0.62,0.7-1.38,1.23-2.29,1.6C204.09,394.76,203.05,394.95,201.88,394.95z"/>
		<path class="st2" d="M217.28,394.95c-1.4,0-2.65-0.3-3.74-0.89c-1.09-0.59-1.95-1.4-2.56-2.42c-0.62-1.03-0.92-2.2-0.92-3.54
			c0-1.35,0.31-2.53,0.92-3.55c0.62-1.02,1.47-1.82,2.56-2.41s2.34-0.89,3.74-0.89c1.28,0,2.42,0.27,3.42,0.8s1.75,1.31,2.25,2.33
			l-2.38,1.4c-0.4-0.62-0.89-1.08-1.46-1.39s-1.2-0.46-1.86-0.46c-0.77,0-1.46,0.17-2.08,0.51c-0.62,0.34-1.1,0.83-1.45,1.45
			s-0.53,1.36-0.53,2.21c0,0.85,0.18,1.59,0.53,2.22s0.83,1.12,1.45,1.46c0.62,0.34,1.31,0.51,2.08,0.51c0.67,0,1.29-0.15,1.86-0.46
			c0.58-0.31,1.06-0.78,1.46-1.41l2.38,1.4c-0.5,1-1.25,1.77-2.25,2.31S218.57,394.95,217.28,394.95z"/>
		<path class="st2" d="M231.76,394.95c-1.48,0-2.78-0.3-3.89-0.89c-1.11-0.59-1.97-1.4-2.58-2.42s-0.91-2.2-0.91-3.54
			c0-1.33,0.3-2.51,0.89-3.54c0.59-1.02,1.41-1.83,2.45-2.42c1.04-0.59,2.23-0.89,3.56-0.89c1.3,0,2.46,0.29,3.48,0.86
			c1.02,0.58,1.82,1.38,2.4,2.41c0.58,1.03,0.88,2.26,0.88,3.68c0,0.12,0,0.26-0.01,0.44c-0.01,0.17-0.02,0.33-0.04,0.46h-11.12
			v-2.08h9.48l-1.25,0.65c0.02-0.75-0.14-1.42-0.46-2.01s-0.77-1.05-1.34-1.38c-0.57-0.33-1.23-0.49-2-0.49
			c-0.75,0-1.42,0.16-2.01,0.49c-0.59,0.32-1.05,0.79-1.36,1.39s-0.47,1.29-0.47,2.08v0.5c0,0.8,0.18,1.51,0.54,2.12
			s0.87,1.1,1.54,1.44c0.67,0.34,1.44,0.51,2.33,0.51c0.75,0,1.42-0.12,2.02-0.38c0.6-0.25,1.13-0.62,1.6-1.1l1.7,1.95
			c-0.62,0.7-1.38,1.23-2.29,1.6C233.96,394.76,232.93,394.95,231.76,394.95z"/>
		<path class="st2" d="M245.18,394.95c-1.13,0-2.21-0.15-3.23-0.44s-1.83-0.65-2.45-1.06l1.2-2.38c0.6,0.38,1.32,0.7,2.15,0.94
			c0.83,0.24,1.67,0.36,2.53,0.36c0.97,0,1.67-0.13,2.11-0.39c0.44-0.26,0.66-0.61,0.66-1.06c0-0.37-0.15-0.65-0.45-0.84
			c-0.3-0.19-0.69-0.34-1.17-0.44c-0.48-0.1-1.02-0.19-1.61-0.27s-1.18-0.2-1.78-0.34c-0.59-0.14-1.13-0.35-1.61-0.62
			c-0.48-0.28-0.88-0.65-1.17-1.11s-0.45-1.09-0.45-1.88c0-0.83,0.24-1.56,0.73-2.19c0.48-0.62,1.16-1.11,2.04-1.46
			c0.88-0.35,1.91-0.52,3.11-0.52c0.88,0,1.79,0.1,2.71,0.31s1.7,0.5,2.31,0.86l-1.23,2.38c-0.62-0.37-1.25-0.62-1.9-0.76
			c-0.65-0.14-1.29-0.21-1.92-0.21c-0.93,0-1.63,0.14-2.1,0.41s-0.7,0.63-0.7,1.06c0,0.4,0.15,0.7,0.45,0.9
			c0.3,0.2,0.69,0.35,1.17,0.46c0.48,0.11,1.02,0.21,1.61,0.3c0.59,0.09,1.18,0.21,1.76,0.35c0.58,0.14,1.12,0.34,1.61,0.6
			c0.49,0.26,0.89,0.62,1.19,1.09c0.3,0.47,0.45,1.08,0.45,1.83c0,0.85-0.25,1.58-0.74,2.19s-1.18,1.08-2.08,1.42
			S246.43,394.95,245.18,394.95z"/>
		<path class="st2" d="M255.48,379.22c-0.58,0-1.06-0.18-1.44-0.55c-0.38-0.37-0.56-0.82-0.56-1.35c0-0.5,0.19-0.93,0.56-1.3
			c0.38-0.37,0.85-0.55,1.44-0.55c0.58,0,1.06,0.17,1.44,0.51s0.56,0.78,0.56,1.31s-0.18,0.99-0.55,1.36
			C256.57,379.04,256.08,379.22,255.48,379.22z M253.93,394.77v-13.35h3.1v13.35H253.93z"/>
		<path class="st2" d="M266.78,394.95c-1.28,0-2.44-0.28-3.46-0.85c-1.02-0.57-1.83-1.36-2.41-2.39c-0.58-1.02-0.88-2.23-0.88-3.61
			c0-1.37,0.29-2.57,0.88-3.6c0.58-1.03,1.39-1.83,2.41-2.4c1.03-0.57,2.18-0.85,3.46-0.85c1.12,0,2.12,0.25,3,0.74
			c0.88,0.49,1.58,1.24,2.1,2.25c0.52,1.01,0.78,2.3,0.78,3.86c0,1.55-0.25,2.83-0.75,3.85s-1.19,1.77-2.06,2.26
			C268.97,394.7,267.95,394.95,266.78,394.95z M267.16,392.3c0.75,0,1.42-0.17,2.01-0.51c0.59-0.34,1.07-0.83,1.42-1.48
			s0.54-1.38,0.54-2.21c0-0.85-0.18-1.59-0.54-2.21s-0.83-1.11-1.42-1.45c-0.59-0.34-1.26-0.51-2.01-0.51s-1.42,0.17-2.01,0.51
			c-0.59,0.34-1.07,0.83-1.42,1.45s-0.54,1.36-0.54,2.21c0,0.83,0.18,1.57,0.54,2.21s0.83,1.13,1.42,1.48S266.41,392.3,267.16,392.3
			z M271.23,394.77v-3.15l0.07-3.55l-0.25-3.55v-8.3h3.15v18.55H271.23z"/>
		<path class="st2" d="M282.33,394.95c-1,0-1.88-0.17-2.62-0.51s-1.33-0.82-1.74-1.42c-0.41-0.61-0.61-1.3-0.61-2.06
			c0-0.75,0.18-1.43,0.54-2.03s0.95-1.07,1.76-1.42c0.82-0.35,1.9-0.52,3.25-0.52h3.88v2.07h-3.65c-1.05,0-1.76,0.17-2.14,0.51
			c-0.38,0.34-0.56,0.77-0.56,1.29c0,0.55,0.23,0.99,0.67,1.32c0.45,0.33,1.08,0.5,1.88,0.5c0.77,0,1.45-0.17,2.06-0.53
			c0.61-0.35,1.05-0.87,1.34-1.55l0.5,1.88c-0.3,0.78-0.83,1.39-1.6,1.82C284.52,394.73,283.53,394.95,282.33,394.95z
			 M286.53,394.77v-2.72l-0.15-0.55v-4.73c0-0.92-0.28-1.63-0.84-2.14s-1.4-0.76-2.54-0.76c-0.73,0-1.46,0.12-2.17,0.35
			c-0.72,0.23-1.33,0.56-1.85,0.97l-1.22-2.28c0.73-0.55,1.59-0.97,2.58-1.25s2.01-0.42,3.08-0.42c1.95,0,3.45,0.47,4.5,1.4
			c1.05,0.93,1.57,2.37,1.57,4.3v7.82H286.53z"/>
		<path class="st2" d="M299.16,394.95c-1.28,0-2.44-0.28-3.46-0.85c-1.02-0.57-1.83-1.36-2.41-2.39c-0.58-1.02-0.88-2.23-0.88-3.61
			c0-1.37,0.29-2.57,0.88-3.6c0.58-1.03,1.39-1.83,2.41-2.4c1.03-0.57,2.18-0.85,3.46-0.85c1.12,0,2.12,0.25,3,0.74
			c0.88,0.49,1.58,1.24,2.1,2.25c0.52,1.01,0.78,2.3,0.78,3.86c0,1.55-0.25,2.83-0.75,3.85s-1.19,1.77-2.06,2.26
			C301.35,394.7,300.32,394.95,299.16,394.95z M299.53,392.3c0.75,0,1.42-0.17,2.01-0.51c0.59-0.34,1.07-0.83,1.42-1.48
			s0.54-1.38,0.54-2.21c0-0.85-0.18-1.59-0.54-2.21s-0.83-1.11-1.42-1.45c-0.59-0.34-1.26-0.51-2.01-0.51s-1.42,0.17-2.01,0.51
			c-0.59,0.34-1.07,0.83-1.42,1.45s-0.54,1.36-0.54,2.21c0,0.83,0.18,1.57,0.54,2.21s0.83,1.13,1.42,1.48S298.78,392.3,299.53,392.3
			z M303.61,394.77v-3.15l0.07-3.55l-0.25-3.55v-8.3h3.15v18.55H303.61z"/>
		<path class="st2" d="M316.96,394.95c-1.48,0-2.78-0.3-3.89-0.89c-1.11-0.59-1.97-1.4-2.58-2.42s-0.91-2.2-0.91-3.54
			c0-1.33,0.3-2.51,0.89-3.54c0.59-1.02,1.41-1.83,2.45-2.42c1.04-0.59,2.23-0.89,3.56-0.89c1.3,0,2.46,0.29,3.48,0.86
			c1.02,0.58,1.82,1.38,2.4,2.41c0.58,1.03,0.88,2.26,0.88,3.68c0,0.12,0,0.26-0.01,0.44c-0.01,0.17-0.02,0.33-0.04,0.46h-11.12
			v-2.08h9.48l-1.25,0.65c0.02-0.75-0.14-1.42-0.46-2.01s-0.77-1.05-1.34-1.38c-0.57-0.33-1.23-0.49-2-0.49
			c-0.75,0-1.42,0.16-2.01,0.49c-0.59,0.32-1.05,0.79-1.36,1.39s-0.47,1.29-0.47,2.08v0.5c0,0.8,0.18,1.51,0.54,2.12
			s0.87,1.1,1.54,1.44c0.67,0.34,1.44,0.51,2.33,0.51c0.75,0,1.42-0.12,2.02-0.38c0.6-0.25,1.13-0.62,1.6-1.1l1.7,1.95
			c-0.62,0.7-1.38,1.23-2.29,1.6C319.16,394.76,318.12,394.95,316.96,394.95z"/>
		<path class="st2" d="M330.38,394.95c-1.13,0-2.21-0.15-3.23-0.44s-1.83-0.65-2.45-1.06l1.2-2.38c0.6,0.38,1.32,0.7,2.15,0.94
			c0.83,0.24,1.67,0.36,2.53,0.36c0.97,0,1.67-0.13,2.11-0.39c0.44-0.26,0.66-0.61,0.66-1.06c0-0.37-0.15-0.65-0.45-0.84
			c-0.3-0.19-0.69-0.34-1.17-0.44c-0.48-0.1-1.02-0.19-1.61-0.27s-1.18-0.2-1.78-0.34c-0.59-0.14-1.13-0.35-1.61-0.62
			c-0.48-0.28-0.88-0.65-1.17-1.11s-0.45-1.09-0.45-1.88c0-0.83,0.24-1.56,0.73-2.19c0.48-0.62,1.16-1.11,2.04-1.46
			c0.88-0.35,1.91-0.52,3.11-0.52c0.88,0,1.79,0.1,2.71,0.31s1.7,0.5,2.31,0.86l-1.23,2.38c-0.62-0.37-1.25-0.62-1.9-0.76
			c-0.65-0.14-1.29-0.21-1.92-0.21c-0.93,0-1.63,0.14-2.1,0.41s-0.7,0.63-0.7,1.06c0,0.4,0.15,0.7,0.45,0.9
			c0.3,0.2,0.69,0.35,1.17,0.46c0.48,0.11,1.02,0.21,1.61,0.3c0.59,0.09,1.18,0.21,1.76,0.35c0.58,0.14,1.12,0.34,1.61,0.6
			c0.49,0.26,0.89,0.62,1.19,1.09c0.3,0.47,0.45,1.08,0.45,1.83c0,0.85-0.25,1.58-0.74,2.19s-1.18,1.08-2.08,1.42
			S331.63,394.95,330.38,394.95z"/>
		<path class="st2" d="M351.66,394.95c-1.28,0-2.44-0.28-3.46-0.85c-1.02-0.57-1.83-1.36-2.41-2.39c-0.58-1.02-0.88-2.23-0.88-3.61
			c0-1.37,0.29-2.57,0.88-3.6c0.58-1.03,1.39-1.83,2.41-2.4c1.03-0.57,2.18-0.85,3.46-0.85c1.12,0,2.12,0.25,3,0.74
			c0.88,0.49,1.58,1.24,2.1,2.25c0.52,1.01,0.78,2.3,0.78,3.86c0,1.55-0.25,2.83-0.75,3.85s-1.19,1.77-2.06,2.26
			C353.84,394.7,352.82,394.95,351.66,394.95z M352.03,392.3c0.75,0,1.42-0.17,2.01-0.51c0.59-0.34,1.07-0.83,1.42-1.48
			s0.54-1.38,0.54-2.21c0-0.85-0.18-1.59-0.54-2.21s-0.83-1.11-1.42-1.45c-0.59-0.34-1.26-0.51-2.01-0.51s-1.42,0.17-2.01,0.51
			c-0.59,0.34-1.07,0.83-1.42,1.45s-0.54,1.36-0.54,2.21c0,0.83,0.18,1.57,0.54,2.21s0.83,1.13,1.42,1.48S351.28,392.3,352.03,392.3
			z M356.11,394.77v-3.15l0.07-3.55l-0.25-3.55v-8.3h3.15v18.55H356.11z"/>
		<path class="st2" d="M369.46,394.95c-1.48,0-2.78-0.3-3.89-0.89c-1.11-0.59-1.97-1.4-2.58-2.42s-0.91-2.2-0.91-3.54
			c0-1.33,0.3-2.51,0.89-3.54c0.59-1.02,1.41-1.83,2.45-2.42c1.04-0.59,2.23-0.89,3.56-0.89c1.3,0,2.46,0.29,3.48,0.86
			c1.02,0.58,1.82,1.38,2.4,2.41c0.58,1.03,0.88,2.26,0.88,3.68c0,0.12,0,0.26-0.01,0.44c-0.01,0.17-0.02,0.33-0.04,0.46h-11.12
			v-2.08h9.48l-1.25,0.65c0.02-0.75-0.14-1.42-0.46-2.01s-0.77-1.05-1.34-1.38c-0.57-0.33-1.23-0.49-2-0.49
			c-0.75,0-1.42,0.16-2.01,0.49c-0.59,0.32-1.05,0.79-1.36,1.39s-0.47,1.29-0.47,2.08v0.5c0,0.8,0.18,1.51,0.54,2.12
			s0.87,1.1,1.54,1.44c0.67,0.34,1.44,0.51,2.33,0.51c0.75,0,1.42-0.12,2.02-0.38c0.6-0.25,1.13-0.62,1.6-1.1l1.7,1.95
			c-0.62,0.7-1.38,1.23-2.29,1.6C371.66,394.76,370.62,394.95,369.46,394.95z"/>
		<path class="st2" d="M120.1,414.02v-2.5h8.9v2.5H120.1z M122.3,424.77V410.7c0-1.42,0.41-2.55,1.24-3.39
			c0.83-0.84,2-1.26,3.54-1.26c0.55,0,1.07,0.06,1.56,0.18c0.49,0.12,0.9,0.3,1.24,0.55L129,409.1c-0.22-0.15-0.47-0.28-0.77-0.38
			c-0.3-0.1-0.61-0.15-0.92-0.15c-0.65,0-1.14,0.18-1.47,0.54c-0.33,0.36-0.5,0.89-0.5,1.59v1.55l0.07,1.38v11.15H122.3z
			 M132.77,409.22c-0.58,0-1.06-0.18-1.44-0.55c-0.38-0.37-0.56-0.82-0.56-1.35c0-0.5,0.19-0.93,0.56-1.3
			c0.38-0.37,0.85-0.55,1.44-0.55s1.06,0.17,1.44,0.51s0.56,0.78,0.56,1.31s-0.18,0.99-0.55,1.36S133.37,409.22,132.77,409.22z
			 M131.22,424.77v-13.35h3.1v13.35H131.22z"/>
		<path class="st2" d="M146,411.25c1.08,0,2.04,0.21,2.86,0.62c0.82,0.42,1.48,1.06,1.97,1.92c0.49,0.87,0.74,1.97,0.74,3.33v7.65
			h-3.12v-7.25c0-1.18-0.28-2.07-0.83-2.65c-0.55-0.58-1.33-0.88-2.35-0.88c-0.73,0-1.38,0.15-1.95,0.45c-0.57,0.3-1,0.75-1.31,1.34
			c-0.31,0.59-0.46,1.34-0.46,2.24v6.75h-3.1v-13.35h2.97v3.62l-0.53-1.12c0.45-0.85,1.12-1.51,2.01-1.97S144.83,411.25,146,411.25z
			"/>
		<path class="st2" d="M159.57,424.95c-1,0-1.88-0.17-2.62-0.51s-1.33-0.82-1.74-1.42s-0.61-1.3-0.61-2.06
			c0-0.75,0.18-1.43,0.54-2.03c0.36-0.6,0.95-1.07,1.76-1.42s1.9-0.52,3.25-0.52h3.88v2.07h-3.65c-1.05,0-1.76,0.17-2.14,0.51
			c-0.38,0.34-0.56,0.77-0.56,1.29c0,0.55,0.22,0.99,0.67,1.32c0.45,0.33,1.08,0.5,1.88,0.5c0.77,0,1.45-0.17,2.06-0.53
			c0.61-0.35,1.05-0.87,1.34-1.55l0.5,1.88c-0.3,0.78-0.83,1.39-1.6,1.82S160.77,424.95,159.57,424.95z M163.77,424.77v-2.72
			l-0.15-0.55v-4.73c0-0.92-0.28-1.63-0.84-2.14c-0.56-0.51-1.4-0.76-2.54-0.76c-0.73,0-1.46,0.12-2.17,0.35
			c-0.72,0.23-1.33,0.56-1.85,0.97l-1.23-2.28c0.73-0.55,1.59-0.97,2.58-1.25c0.98-0.28,2.01-0.42,3.07-0.42
			c1.95,0,3.45,0.47,4.5,1.4c1.05,0.93,1.58,2.37,1.58,4.3v7.82H163.77z"/>
		<path class="st2" d="M178.3,411.25c1.08,0,2.04,0.21,2.86,0.62c0.83,0.42,1.48,1.06,1.98,1.92c0.49,0.87,0.74,1.97,0.74,3.33v7.65
			h-3.12v-7.25c0-1.18-0.28-2.07-0.82-2.65c-0.55-0.58-1.33-0.88-2.35-0.88c-0.73,0-1.38,0.15-1.95,0.45c-0.57,0.3-1,0.75-1.31,1.34
			s-0.46,1.34-0.46,2.24v6.75h-3.1v-13.35h2.97v3.62l-0.52-1.12c0.45-0.85,1.12-1.51,2.01-1.97
			C176.1,411.48,177.13,411.25,178.3,411.25z"/>
		<path class="st2" d="M194,424.95c-1.4,0-2.65-0.3-3.74-0.89c-1.09-0.59-1.95-1.4-2.56-2.42s-0.92-2.2-0.92-3.54
			c0-1.35,0.31-2.53,0.92-3.55c0.62-1.02,1.47-1.82,2.56-2.41c1.09-0.59,2.34-0.89,3.74-0.89c1.28,0,2.43,0.27,3.43,0.8
			s1.75,1.31,2.25,2.33l-2.38,1.4c-0.4-0.62-0.89-1.08-1.46-1.39c-0.58-0.31-1.2-0.46-1.86-0.46c-0.77,0-1.46,0.17-2.07,0.51
			c-0.62,0.34-1.1,0.83-1.45,1.45s-0.52,1.36-0.52,2.21c0,0.85,0.17,1.59,0.52,2.22s0.83,1.12,1.45,1.46
			c0.62,0.34,1.31,0.51,2.07,0.51c0.67,0,1.29-0.15,1.86-0.46c0.57-0.31,1.06-0.78,1.46-1.41l2.38,1.4c-0.5,1-1.25,1.77-2.25,2.31
			S195.28,424.95,194,424.95z"/>
		<path class="st2" d="M203.85,409.22c-0.58,0-1.06-0.18-1.44-0.55c-0.38-0.37-0.56-0.82-0.56-1.35c0-0.5,0.19-0.93,0.56-1.3
			c0.38-0.37,0.85-0.55,1.44-0.55c0.58,0,1.06,0.17,1.44,0.51s0.56,0.78,0.56,1.31s-0.18,0.99-0.55,1.36
			C204.93,409.04,204.45,409.22,203.85,409.22z M202.3,424.77v-13.35h3.1v13.35H202.3z"/>
		<path class="st2" d="M213.52,424.95c-1,0-1.88-0.17-2.62-0.51s-1.33-0.82-1.74-1.42s-0.61-1.3-0.61-2.06
			c0-0.75,0.18-1.43,0.54-2.03c0.36-0.6,0.95-1.07,1.76-1.42s1.9-0.52,3.25-0.52h3.88v2.07h-3.65c-1.05,0-1.76,0.17-2.14,0.51
			c-0.38,0.34-0.56,0.77-0.56,1.29c0,0.55,0.22,0.99,0.67,1.32c0.45,0.33,1.08,0.5,1.88,0.5c0.77,0,1.45-0.17,2.06-0.53
			c0.61-0.35,1.05-0.87,1.34-1.55l0.5,1.88c-0.3,0.78-0.83,1.39-1.6,1.82S214.72,424.95,213.52,424.95z M217.72,424.77v-2.72
			l-0.15-0.55v-4.73c0-0.92-0.28-1.63-0.84-2.14c-0.56-0.51-1.4-0.76-2.54-0.76c-0.73,0-1.46,0.12-2.17,0.35
			c-0.72,0.23-1.33,0.56-1.85,0.97l-1.23-2.28c0.73-0.55,1.59-0.97,2.58-1.25c0.98-0.28,2.01-0.42,3.07-0.42
			c1.95,0,3.45,0.47,4.5,1.4c1.05,0.93,1.57,2.37,1.57,4.3v7.82H217.72z"/>
		<path class="st2" d="M241.52,411.25c1.07,0,2.01,0.21,2.84,0.62s1.47,1.06,1.94,1.92c0.47,0.87,0.7,1.97,0.7,3.33v7.65h-3.1v-7.25
			c0-1.18-0.26-2.07-0.79-2.65c-0.52-0.58-1.27-0.88-2.24-0.88c-0.68,0-1.29,0.15-1.81,0.45c-0.53,0.3-0.93,0.75-1.22,1.34
			c-0.29,0.59-0.44,1.33-0.44,2.21v6.77h-3.1v-7.25c0-1.18-0.26-2.07-0.79-2.65c-0.53-0.58-1.27-0.88-2.24-0.88
			c-0.68,0-1.29,0.15-1.81,0.45c-0.53,0.3-0.93,0.75-1.23,1.34s-0.44,1.33-0.44,2.21v6.77h-3.1v-13.35h2.97V415l-0.55-1.08
			c0.45-0.85,1.1-1.51,1.96-1.97c0.86-0.47,1.85-0.7,2.96-0.7c1.25,0,2.33,0.31,3.25,0.92c0.92,0.62,1.53,1.57,1.83,2.85l-1.2-0.45
			c0.42-0.98,1.12-1.78,2.12-2.4C239.05,411.56,240.21,411.25,241.52,411.25z"/>
		<path class="st2" d="M252.57,409.22c-0.58,0-1.06-0.18-1.44-0.55c-0.38-0.37-0.56-0.82-0.56-1.35c0-0.5,0.19-0.93,0.56-1.3
			c0.38-0.37,0.85-0.55,1.44-0.55c0.58,0,1.06,0.17,1.44,0.51s0.56,0.78,0.56,1.31s-0.18,0.99-0.55,1.36
			C253.66,409.04,253.17,409.22,252.57,409.22z M251.02,424.77v-13.35h3.1v13.35H251.02z"/>
		<path class="st2" d="M264.5,424.95c-1.48,0-2.78-0.3-3.89-0.89c-1.11-0.59-1.97-1.4-2.58-2.42s-0.91-2.2-0.91-3.54
			c0-1.33,0.3-2.51,0.89-3.54c0.59-1.02,1.41-1.83,2.45-2.42c1.04-0.59,2.23-0.89,3.56-0.89c1.3,0,2.46,0.29,3.48,0.86
			c1.02,0.58,1.82,1.38,2.4,2.41c0.58,1.03,0.88,2.26,0.88,3.68c0,0.12,0,0.26-0.01,0.44c-0.01,0.17-0.02,0.33-0.04,0.46H259.6
			v-2.08h9.48l-1.25,0.65c0.02-0.75-0.14-1.42-0.46-2.01s-0.77-1.05-1.34-1.38c-0.57-0.33-1.23-0.49-2-0.49
			c-0.75,0-1.42,0.16-2.01,0.49c-0.59,0.32-1.05,0.79-1.36,1.39s-0.47,1.29-0.47,2.08v0.5c0,0.8,0.18,1.51,0.54,2.12
			s0.87,1.1,1.54,1.44c0.67,0.34,1.44,0.51,2.33,0.51c0.75,0,1.42-0.12,2.02-0.38c0.6-0.25,1.13-0.62,1.6-1.1l1.7,1.95
			c-0.62,0.7-1.38,1.23-2.29,1.6C266.7,424.76,265.66,424.95,264.5,424.95z"/>
		<path class="st2" d="M281.35,411.25c1.08,0,2.04,0.21,2.86,0.62s1.48,1.06,1.98,1.92c0.49,0.87,0.74,1.97,0.74,3.33v7.65h-3.12
			v-7.25c0-1.18-0.28-2.07-0.83-2.65s-1.33-0.88-2.35-0.88c-0.73,0-1.38,0.15-1.95,0.45c-0.57,0.3-1,0.75-1.31,1.34
			c-0.31,0.59-0.46,1.34-0.46,2.24v6.75h-3.1v-13.35h2.97v3.62l-0.52-1.12c0.45-0.85,1.12-1.51,2.01-1.97
			S280.18,411.25,281.35,411.25z"/>
		<path class="st2" d="M289.12,414.02v-2.5h8.9v2.5H289.12z M295.92,424.95c-1.47,0-2.6-0.38-3.4-1.14s-1.2-1.87-1.2-3.34v-12h3.1
			v11.9c0,0.63,0.17,1.12,0.5,1.48c0.33,0.35,0.8,0.52,1.4,0.52c0.68,0,1.25-0.18,1.7-0.55l0.9,2.22c-0.38,0.3-0.84,0.53-1.38,0.68
			C297.01,424.87,296.47,424.95,295.92,424.95z"/>
		<path class="st2" d="M307.05,424.95c-1.35,0-2.56-0.3-3.64-0.89c-1.07-0.59-1.92-1.4-2.54-2.44c-0.62-1.03-0.92-2.21-0.92-3.52
			c0-1.35,0.31-2.53,0.92-3.55c0.62-1.02,1.46-1.82,2.53-2.41c1.07-0.59,2.28-0.89,3.65-0.89c1.38,0,2.61,0.3,3.69,0.89
			s1.92,1.4,2.53,2.41c0.61,1.02,0.91,2.2,0.91,3.55c0,1.33-0.3,2.51-0.91,3.54s-1.45,1.83-2.54,2.42
			C309.64,424.65,308.41,424.95,307.05,424.95z M307.05,422.3c0.77,0,1.45-0.17,2.05-0.51c0.6-0.34,1.07-0.83,1.41-1.48
			c0.34-0.64,0.51-1.38,0.51-2.21c0-0.85-0.17-1.59-0.51-2.21c-0.34-0.62-0.81-1.11-1.41-1.45c-0.6-0.34-1.27-0.51-2.02-0.51
			s-1.42,0.17-2.03,0.51c-0.6,0.34-1.08,0.83-1.42,1.45s-0.53,1.36-0.53,2.21c0,0.83,0.18,1.57,0.53,2.21s0.83,1.13,1.42,1.48
			C305.65,422.13,306.31,422.3,307.05,422.3z"/>
		<path class="st2" d="M80.45,454.95c-1.48,0-2.78-0.3-3.89-0.89c-1.11-0.59-1.97-1.4-2.58-2.42c-0.61-1.03-0.91-2.2-0.91-3.54
			c0-1.33,0.3-2.51,0.89-3.54c0.59-1.02,1.41-1.83,2.45-2.42c1.04-0.59,2.23-0.89,3.56-0.89c1.3,0,2.46,0.29,3.47,0.86
			c1.02,0.58,1.82,1.38,2.4,2.41c0.58,1.03,0.88,2.26,0.88,3.68c0,0.12,0,0.26-0.01,0.44c-0.01,0.17-0.02,0.33-0.04,0.46H75.55
			v-2.08h9.48l-1.25,0.65c0.02-0.75-0.14-1.42-0.46-2.01c-0.33-0.59-0.77-1.05-1.34-1.38c-0.57-0.33-1.23-0.49-2-0.49
			c-0.75,0-1.42,0.16-2.01,0.49c-0.59,0.32-1.05,0.79-1.36,1.39s-0.47,1.29-0.47,2.08v0.5c0,0.8,0.18,1.51,0.54,2.12
			c0.36,0.62,0.87,1.1,1.54,1.44c0.67,0.34,1.44,0.51,2.33,0.51c0.75,0,1.42-0.12,2.02-0.38c0.6-0.25,1.13-0.62,1.6-1.1l1.7,1.95
			c-0.62,0.7-1.38,1.23-2.29,1.6C82.65,454.76,81.62,454.95,80.45,454.95z"/>
		<path class="st2" d="M106.57,441.25c1.07,0,2.01,0.21,2.84,0.62c0.82,0.42,1.47,1.06,1.94,1.92c0.47,0.87,0.7,1.97,0.7,3.33v7.65
			h-3.1v-7.25c0-1.18-0.26-2.07-0.79-2.65s-1.27-0.88-2.24-0.88c-0.68,0-1.29,0.15-1.81,0.45c-0.52,0.3-0.93,0.75-1.22,1.34
			s-0.44,1.33-0.44,2.21v6.77h-3.1v-7.25c0-1.18-0.26-2.07-0.79-2.65c-0.53-0.58-1.27-0.88-2.24-0.88c-0.68,0-1.29,0.15-1.81,0.45
			c-0.53,0.3-0.93,0.75-1.22,1.34c-0.29,0.59-0.44,1.33-0.44,2.21v6.77h-3.1v-13.35h2.97V445l-0.55-1.08
			c0.45-0.85,1.1-1.51,1.96-1.97s1.85-0.7,2.96-0.7c1.25,0,2.33,0.31,3.25,0.92c0.92,0.62,1.53,1.57,1.82,2.85l-1.2-0.45
			c0.42-0.98,1.12-1.78,2.12-2.4C104.1,441.56,105.26,441.25,106.57,441.25z"/>
		<path class="st2" d="M116.07,459.62v-18.2h2.97v3.15l-0.12,3.55l0.25,3.55v7.95H116.07z M123.45,454.95
			c-1.1,0-2.09-0.25-2.97-0.74c-0.88-0.49-1.58-1.25-2.1-2.26s-0.77-2.3-0.77-3.85c0-1.57,0.25-2.85,0.74-3.86
			c0.49-1.01,1.19-1.76,2.09-2.25c0.9-0.49,1.91-0.74,3.03-0.74c1.3,0,2.46,0.28,3.47,0.85s1.82,1.37,2.41,2.4
			c0.59,1.03,0.89,2.23,0.89,3.6c0,1.38-0.3,2.59-0.89,3.61c-0.59,1.03-1.4,1.82-2.41,2.39S124.75,454.95,123.45,454.95z
			 M123.07,452.3c0.77,0,1.45-0.17,2.04-0.53c0.59-0.35,1.06-0.84,1.41-1.47c0.35-0.63,0.53-1.37,0.53-2.2
			c0-0.85-0.17-1.59-0.53-2.21c-0.35-0.62-0.82-1.11-1.41-1.45c-0.59-0.34-1.27-0.51-2.04-0.51c-0.73,0-1.4,0.17-2,0.51
			c-0.6,0.34-1.08,0.83-1.43,1.45c-0.35,0.62-0.52,1.36-0.52,2.21c0,0.83,0.17,1.57,0.52,2.2c0.35,0.63,0.83,1.12,1.43,1.47
			C121.67,452.12,122.34,452.3,123.07,452.3z"/>
		<path class="st2" d="M133.22,454.77v-13.35h2.97v3.68l-0.35-1.08c0.38-0.9,1.01-1.59,1.88-2.06c0.87-0.47,1.92-0.71,3.17-0.71
			v2.98c-0.12-0.02-0.23-0.03-0.35-0.04s-0.22-0.01-0.32-0.01c-1.2,0-2.15,0.34-2.85,1.03s-1.05,1.72-1.05,3.12v6.45H133.22z"/>
		<path class="st2" d="M149.72,454.95c-1.48,0-2.78-0.3-3.89-0.89c-1.11-0.59-1.97-1.4-2.57-2.42c-0.61-1.03-0.91-2.2-0.91-3.54
			c0-1.33,0.29-2.51,0.89-3.54s1.41-1.83,2.45-2.42s2.23-0.89,3.56-0.89c1.3,0,2.46,0.29,3.48,0.86c1.02,0.58,1.82,1.38,2.4,2.41
			c0.58,1.03,0.88,2.26,0.88,3.68c0,0.12,0,0.26-0.01,0.44c-0.01,0.17-0.02,0.33-0.04,0.46h-11.12v-2.08h9.47l-1.25,0.65
			c0.02-0.75-0.14-1.42-0.46-2.01c-0.32-0.59-0.77-1.05-1.34-1.38c-0.57-0.33-1.23-0.49-2-0.49c-0.75,0-1.42,0.16-2.01,0.49
			c-0.59,0.32-1.05,0.79-1.36,1.39c-0.32,0.6-0.48,1.29-0.48,2.08v0.5c0,0.8,0.18,1.51,0.54,2.12s0.87,1.1,1.54,1.44
			c0.67,0.34,1.44,0.51,2.32,0.51c0.75,0,1.43-0.12,2.03-0.38s1.13-0.62,1.6-1.1l1.7,1.95c-0.62,0.7-1.38,1.23-2.29,1.6
			C151.93,454.76,150.89,454.95,149.72,454.95z"/>
		<path class="st2" d="M163.15,454.95c-1.13,0-2.21-0.15-3.22-0.44c-1.02-0.29-1.83-0.65-2.45-1.06l1.2-2.38
			c0.6,0.38,1.32,0.7,2.15,0.94c0.83,0.24,1.67,0.36,2.52,0.36c0.97,0,1.67-0.13,2.11-0.39c0.44-0.26,0.66-0.61,0.66-1.06
			c0-0.37-0.15-0.65-0.45-0.84c-0.3-0.19-0.69-0.34-1.18-0.44c-0.48-0.1-1.02-0.19-1.61-0.27c-0.59-0.08-1.18-0.2-1.78-0.34
			c-0.59-0.14-1.13-0.35-1.61-0.62c-0.48-0.28-0.88-0.65-1.17-1.11c-0.3-0.47-0.45-1.09-0.45-1.88c0-0.83,0.24-1.56,0.73-2.19
			s1.16-1.11,2.04-1.46c0.88-0.35,1.91-0.52,3.11-0.52c0.88,0,1.79,0.1,2.71,0.31c0.93,0.21,1.7,0.5,2.31,0.86l-1.22,2.38
			c-0.62-0.37-1.25-0.62-1.9-0.76c-0.65-0.14-1.29-0.21-1.92-0.21c-0.93,0-1.63,0.14-2.1,0.41s-0.7,0.63-0.7,1.06
			c0,0.4,0.15,0.7,0.45,0.9c0.3,0.2,0.69,0.35,1.18,0.46c0.48,0.11,1.02,0.21,1.61,0.3c0.59,0.09,1.18,0.21,1.76,0.35
			c0.58,0.14,1.12,0.34,1.61,0.6c0.49,0.26,0.89,0.62,1.19,1.09c0.3,0.47,0.45,1.08,0.45,1.83c0,0.85-0.25,1.58-0.74,2.19
			c-0.49,0.61-1.18,1.08-2.07,1.42C165.47,454.78,164.4,454.95,163.15,454.95z"/>
		<path class="st2" d="M175.9,454.95c-1,0-1.88-0.17-2.62-0.51s-1.33-0.82-1.74-1.42c-0.41-0.61-0.61-1.3-0.61-2.06
			c0-0.75,0.18-1.43,0.54-2.03s0.95-1.07,1.76-1.42c0.82-0.35,1.9-0.52,3.25-0.52h3.88v2.07h-3.65c-1.05,0-1.76,0.17-2.14,0.51
			c-0.38,0.34-0.56,0.77-0.56,1.29c0,0.55,0.23,0.99,0.68,1.32c0.45,0.33,1.07,0.5,1.88,0.5c0.77,0,1.45-0.17,2.06-0.53
			c0.61-0.35,1.05-0.87,1.34-1.55l0.5,1.88c-0.3,0.78-0.83,1.39-1.6,1.82S177.1,454.95,175.9,454.95z M180.1,454.77v-2.72
			l-0.15-0.55v-4.73c0-0.92-0.28-1.63-0.84-2.14s-1.4-0.76-2.54-0.76c-0.73,0-1.46,0.12-2.18,0.35c-0.72,0.23-1.33,0.56-1.85,0.97
			l-1.22-2.28c0.73-0.55,1.59-0.97,2.57-1.25s2.01-0.42,3.08-0.42c1.95,0,3.45,0.47,4.5,1.4c1.05,0.93,1.58,2.37,1.58,4.3v7.82
			H180.1z"/>
		<path class="st2" d="M187.07,454.77v-13.35h2.97v3.68l-0.35-1.08c0.38-0.9,1.01-1.59,1.88-2.06c0.87-0.47,1.92-0.71,3.17-0.71
			v2.98c-0.12-0.02-0.23-0.03-0.35-0.04s-0.22-0.01-0.32-0.01c-1.2,0-2.15,0.34-2.85,1.03s-1.05,1.72-1.05,3.12v6.45H187.07z"/>
		<path class="st2" d="M199,439.22c-0.58,0-1.06-0.18-1.44-0.55c-0.38-0.37-0.56-0.82-0.56-1.35c0-0.5,0.19-0.93,0.56-1.3
			c0.38-0.37,0.85-0.55,1.44-0.55s1.06,0.17,1.44,0.51s0.56,0.78,0.56,1.31s-0.18,0.99-0.55,1.36
			C200.08,439.04,199.6,439.22,199,439.22z M197.45,454.77v-13.35h3.1v13.35H197.45z"/>
		<path class="st2" d="M208.67,454.95c-1,0-1.88-0.17-2.62-0.51s-1.33-0.82-1.74-1.42s-0.61-1.3-0.61-2.06
			c0-0.75,0.18-1.43,0.54-2.03c0.36-0.6,0.95-1.07,1.76-1.42s1.9-0.52,3.25-0.52h3.88v2.07h-3.65c-1.05,0-1.76,0.17-2.14,0.51
			c-0.38,0.34-0.56,0.77-0.56,1.29c0,0.55,0.22,0.99,0.68,1.32c0.45,0.33,1.07,0.5,1.88,0.5c0.77,0,1.45-0.17,2.06-0.53
			c0.61-0.35,1.05-0.87,1.34-1.55l0.5,1.88c-0.3,0.78-0.83,1.39-1.6,1.82C210.86,454.73,209.87,454.95,208.67,454.95z
			 M212.87,454.77v-2.72l-0.15-0.55v-4.73c0-0.92-0.28-1.63-0.84-2.14c-0.56-0.51-1.4-0.76-2.54-0.76c-0.73,0-1.46,0.12-2.17,0.35
			c-0.72,0.23-1.33,0.56-1.85,0.97l-1.23-2.28c0.73-0.55,1.59-0.97,2.58-1.25c0.98-0.28,2.01-0.42,3.07-0.42
			c1.95,0,3.45,0.47,4.5,1.4c1.05,0.93,1.58,2.37,1.58,4.3v7.82H212.87z"/>
		<path class="st2" d="M219.85,454.77v-18.55h3.1v18.55H219.85z"/>
		<path class="st2" d="M235.07,459.8c-0.67,0-1.33-0.11-1.97-0.32c-0.65-0.22-1.18-0.52-1.6-0.9l1.23-2.28
			c0.32,0.27,0.67,0.48,1.06,0.65c0.39,0.17,0.8,0.25,1.24,0.25c0.57,0,1.03-0.14,1.38-0.43s0.67-0.77,0.97-1.45l0.75-1.7l0.3-0.4
			l5.02-11.8h3l-6.25,14.45c-0.42,0.98-0.88,1.76-1.39,2.34c-0.51,0.58-1.07,0.98-1.7,1.23S235.81,459.8,235.07,459.8z
			 M237.8,455.25l-6.03-13.83H235l4.93,11.53L237.8,455.25z"/>
		<path class="st2" d="M261.57,454.95c-1.48,0-2.78-0.3-3.89-0.89c-1.11-0.59-1.97-1.4-2.58-2.42s-0.91-2.2-0.91-3.54
			c0-1.33,0.3-2.51,0.89-3.54c0.59-1.02,1.41-1.83,2.45-2.42c1.04-0.59,2.23-0.89,3.56-0.89c1.3,0,2.46,0.29,3.48,0.86
			c1.02,0.58,1.82,1.38,2.4,2.41c0.58,1.03,0.88,2.26,0.88,3.68c0,0.12,0,0.26-0.01,0.44c-0.01,0.17-0.02,0.33-0.04,0.46h-11.12
			v-2.08h9.48l-1.25,0.65c0.02-0.75-0.14-1.42-0.46-2.01s-0.77-1.05-1.34-1.38c-0.57-0.33-1.23-0.49-2-0.49
			c-0.75,0-1.42,0.16-2.01,0.49c-0.59,0.32-1.05,0.79-1.36,1.39s-0.47,1.29-0.47,2.08v0.5c0,0.8,0.18,1.51,0.54,2.12
			s0.87,1.1,1.54,1.44c0.67,0.34,1.44,0.51,2.33,0.51c0.75,0,1.42-0.12,2.02-0.38c0.6-0.25,1.13-0.62,1.6-1.1l1.7,1.95
			c-0.62,0.7-1.38,1.23-2.29,1.6C263.78,454.76,262.74,454.95,261.57,454.95z"/>
		<path class="st2" d="M270.87,454.77v-18.55h3.1v18.55H270.87z"/>
		<path class="st2" d="M289.12,454.95c-1.13,0-2.21-0.15-3.23-0.44s-1.83-0.65-2.45-1.06l1.2-2.38c0.6,0.38,1.32,0.7,2.15,0.94
			c0.83,0.24,1.67,0.36,2.53,0.36c0.97,0,1.67-0.13,2.11-0.39c0.44-0.26,0.66-0.61,0.66-1.06c0-0.37-0.15-0.65-0.45-0.84
			c-0.3-0.19-0.69-0.34-1.17-0.44c-0.48-0.1-1.02-0.19-1.61-0.27s-1.18-0.2-1.78-0.34c-0.59-0.14-1.13-0.35-1.61-0.62
			c-0.48-0.28-0.88-0.65-1.17-1.11s-0.45-1.09-0.45-1.88c0-0.83,0.24-1.56,0.73-2.19c0.48-0.62,1.16-1.11,2.04-1.46
			c0.88-0.35,1.91-0.52,3.11-0.52c0.88,0,1.79,0.1,2.71,0.31s1.7,0.5,2.31,0.86l-1.23,2.38c-0.62-0.37-1.25-0.62-1.9-0.76
			c-0.65-0.14-1.29-0.21-1.92-0.21c-0.93,0-1.63,0.14-2.1,0.41s-0.7,0.63-0.7,1.06c0,0.4,0.15,0.7,0.45,0.9
			c0.3,0.2,0.69,0.35,1.17,0.46c0.48,0.11,1.02,0.21,1.61,0.3c0.59,0.09,1.18,0.21,1.76,0.35c0.58,0.14,1.12,0.34,1.61,0.6
			c0.49,0.26,0.89,0.62,1.19,1.09c0.3,0.47,0.45,1.08,0.45,1.83c0,0.85-0.25,1.58-0.74,2.19s-1.18,1.08-2.08,1.42
			S290.37,454.95,289.12,454.95z"/>
		<path class="st2" d="M304.12,454.95c-1.48,0-2.78-0.3-3.89-0.89c-1.11-0.59-1.97-1.4-2.58-2.42s-0.91-2.2-0.91-3.54
			c0-1.33,0.3-2.51,0.89-3.54c0.59-1.02,1.41-1.83,2.45-2.42c1.04-0.59,2.23-0.89,3.56-0.89c1.3,0,2.46,0.29,3.48,0.86
			c1.02,0.58,1.82,1.38,2.4,2.41c0.58,1.03,0.88,2.26,0.88,3.68c0,0.12,0,0.26-0.01,0.44c-0.01,0.17-0.02,0.33-0.04,0.46h-11.12
			v-2.08h9.48l-1.25,0.65c0.02-0.75-0.14-1.42-0.46-2.01s-0.77-1.05-1.34-1.38c-0.57-0.33-1.23-0.49-2-0.49
			c-0.75,0-1.42,0.16-2.01,0.49c-0.59,0.32-1.05,0.79-1.36,1.39s-0.47,1.29-0.47,2.08v0.5c0,0.8,0.18,1.51,0.54,2.12
			s0.87,1.1,1.54,1.44c0.67,0.34,1.44,0.51,2.33,0.51c0.75,0,1.42-0.12,2.02-0.38c0.6-0.25,1.13-0.62,1.6-1.1l1.7,1.95
			c-0.62,0.7-1.38,1.23-2.29,1.6C306.32,454.76,305.29,454.95,304.12,454.95z"/>
		<path class="st2" d="M319.52,454.95c-1.4,0-2.65-0.3-3.74-0.89c-1.09-0.59-1.95-1.4-2.56-2.42c-0.62-1.03-0.92-2.2-0.92-3.54
			c0-1.35,0.31-2.53,0.92-3.55c0.62-1.02,1.47-1.82,2.56-2.41s2.34-0.89,3.74-0.89c1.28,0,2.42,0.27,3.42,0.8s1.75,1.31,2.25,2.33
			l-2.38,1.4c-0.4-0.62-0.89-1.08-1.46-1.39s-1.2-0.46-1.86-0.46c-0.77,0-1.46,0.17-2.08,0.51c-0.62,0.34-1.1,0.83-1.45,1.45
			s-0.53,1.36-0.53,2.21c0,0.85,0.18,1.59,0.53,2.22s0.83,1.12,1.45,1.46c0.62,0.34,1.31,0.51,2.08,0.51c0.67,0,1.29-0.15,1.86-0.46
			c0.58-0.31,1.06-0.78,1.46-1.41l2.38,1.4c-0.5,1-1.25,1.77-2.25,2.31S320.8,454.95,319.52,454.95z"/>
		<path class="st2" d="M326.32,444.02v-2.5h8.9v2.5H326.32z M333.12,454.95c-1.47,0-2.6-0.38-3.4-1.14s-1.2-1.87-1.2-3.34v-12h3.1
			v11.9c0,0.63,0.17,1.12,0.5,1.48c0.33,0.35,0.8,0.52,1.4,0.52c0.68,0,1.25-0.18,1.7-0.55l0.9,2.22c-0.38,0.3-0.84,0.53-1.38,0.68
			C334.21,454.87,333.67,454.95,333.12,454.95z"/>
		<path class="st2" d="M344.24,454.95c-1.35,0-2.56-0.3-3.64-0.89c-1.07-0.59-1.92-1.4-2.54-2.44c-0.62-1.03-0.92-2.21-0.92-3.52
			c0-1.35,0.31-2.53,0.92-3.55c0.62-1.02,1.46-1.82,2.53-2.41c1.07-0.59,2.28-0.89,3.65-0.89c1.38,0,2.61,0.3,3.69,0.89
			s1.92,1.4,2.53,2.41c0.61,1.02,0.91,2.2,0.91,3.55c0,1.33-0.3,2.51-0.91,3.54s-1.45,1.83-2.54,2.42
			C346.84,454.65,345.61,454.95,344.24,454.95z M344.24,452.3c0.77,0,1.45-0.17,2.05-0.51c0.6-0.34,1.07-0.83,1.41-1.48
			c0.34-0.64,0.51-1.38,0.51-2.21c0-0.85-0.17-1.59-0.51-2.21c-0.34-0.62-0.81-1.11-1.41-1.45c-0.6-0.34-1.27-0.51-2.02-0.51
			s-1.42,0.17-2.03,0.51c-0.6,0.34-1.08,0.83-1.42,1.45s-0.53,1.36-0.53,2.21c0,0.83,0.18,1.57,0.53,2.21s0.83,1.13,1.42,1.48
			C342.84,452.13,343.51,452.3,344.24,452.3z"/>
		<path class="st2" d="M354.39,454.77v-13.35h2.97v3.68l-0.35-1.08c0.38-0.9,1.01-1.59,1.88-2.06c0.87-0.47,1.92-0.71,3.17-0.71
			v2.98c-0.12-0.02-0.23-0.03-0.35-0.04c-0.12-0.01-0.23-0.01-0.33-0.01c-1.2,0-2.15,0.34-2.85,1.03c-0.7,0.68-1.05,1.72-1.05,3.12
			v6.45H354.39z"/>
		<path class="st2" d="M81.29,474.02v-2.5h8.9v2.5H81.29z M83.49,484.77V470.7c0-1.42,0.41-2.55,1.24-3.39
			c0.82-0.84,2-1.26,3.54-1.26c0.55,0,1.07,0.06,1.56,0.18c0.49,0.12,0.9,0.3,1.24,0.55l-0.88,2.33c-0.22-0.15-0.47-0.28-0.77-0.38
			c-0.3-0.1-0.61-0.15-0.93-0.15c-0.65,0-1.14,0.18-1.47,0.54c-0.33,0.36-0.5,0.89-0.5,1.59v1.55l0.08,1.38v11.15H83.49z
			 M93.96,469.22c-0.58,0-1.06-0.18-1.44-0.55c-0.38-0.37-0.56-0.82-0.56-1.35c0-0.5,0.19-0.93,0.56-1.3
			c0.38-0.37,0.85-0.55,1.44-0.55c0.58,0,1.06,0.17,1.44,0.51s0.56,0.78,0.56,1.31s-0.18,0.99-0.55,1.36
			C95.04,469.04,94.56,469.22,93.96,469.22z M92.41,484.77v-13.35h3.1v13.35H92.41z"/>
		<path class="st2" d="M107.19,471.25c1.08,0,2.04,0.21,2.86,0.62c0.83,0.42,1.48,1.06,1.97,1.92c0.49,0.87,0.74,1.97,0.74,3.33
			v7.65h-3.12v-7.25c0-1.18-0.28-2.07-0.83-2.65s-1.33-0.88-2.35-0.88c-0.73,0-1.38,0.15-1.95,0.45c-0.57,0.3-1,0.75-1.31,1.34
			s-0.46,1.34-0.46,2.24v6.75h-3.1v-13.35h2.97v3.62l-0.53-1.12c0.45-0.85,1.12-1.51,2.01-1.97
			C104.99,471.48,106.02,471.25,107.19,471.25z"/>
		<path class="st2" d="M120.76,484.95c-1,0-1.88-0.17-2.62-0.51s-1.33-0.82-1.74-1.42s-0.61-1.3-0.61-2.06
			c0-0.75,0.18-1.43,0.54-2.03c0.36-0.6,0.95-1.07,1.76-1.42s1.9-0.52,3.25-0.52h3.88v2.07h-3.65c-1.05,0-1.76,0.17-2.14,0.51
			c-0.38,0.34-0.56,0.77-0.56,1.29c0,0.55,0.22,0.99,0.68,1.32c0.45,0.33,1.07,0.5,1.88,0.5c0.77,0,1.45-0.17,2.06-0.53
			c0.61-0.35,1.05-0.87,1.34-1.55l0.5,1.88c-0.3,0.78-0.83,1.39-1.6,1.82C122.95,484.73,121.96,484.95,120.76,484.95z
			 M124.96,484.77v-2.72l-0.15-0.55v-4.73c0-0.92-0.28-1.63-0.84-2.14c-0.56-0.51-1.4-0.76-2.54-0.76c-0.73,0-1.46,0.12-2.17,0.35
			c-0.72,0.23-1.33,0.56-1.85,0.97l-1.23-2.28c0.73-0.55,1.59-0.97,2.58-1.25c0.98-0.28,2.01-0.42,3.07-0.42
			c1.95,0,3.45,0.47,4.5,1.4c1.05,0.93,1.58,2.37,1.58,4.3v7.82H124.96z"/>
		<path class="st2" d="M139.49,471.25c1.08,0,2.04,0.21,2.86,0.62s1.48,1.06,1.98,1.92c0.49,0.87,0.74,1.97,0.74,3.33v7.65h-3.12
			v-7.25c0-1.18-0.28-2.07-0.83-2.65s-1.33-0.88-2.35-0.88c-0.73,0-1.38,0.15-1.95,0.45c-0.57,0.3-1,0.75-1.31,1.34
			c-0.31,0.59-0.46,1.34-0.46,2.24v6.75h-3.1v-13.35h2.97v3.62l-0.52-1.12c0.45-0.85,1.12-1.51,2.01-1.97
			S138.32,471.25,139.49,471.25z"/>
		<path class="st2" d="M155.19,484.95c-1.4,0-2.65-0.3-3.74-0.89c-1.09-0.59-1.95-1.4-2.56-2.42c-0.62-1.03-0.93-2.2-0.93-3.54
			c0-1.35,0.31-2.53,0.93-3.55c0.62-1.02,1.47-1.82,2.56-2.41c1.09-0.59,2.34-0.89,3.74-0.89c1.28,0,2.43,0.27,3.43,0.8
			s1.75,1.31,2.25,2.33l-2.38,1.4c-0.4-0.62-0.89-1.08-1.46-1.39c-0.57-0.31-1.2-0.46-1.86-0.46c-0.77,0-1.46,0.17-2.08,0.51
			c-0.62,0.34-1.1,0.83-1.45,1.45c-0.35,0.62-0.53,1.36-0.53,2.21c0,0.85,0.17,1.59,0.53,2.22c0.35,0.63,0.83,1.12,1.45,1.46
			s1.31,0.51,2.08,0.51c0.67,0,1.29-0.15,1.86-0.46c0.58-0.31,1.06-0.78,1.46-1.41l2.38,1.4c-0.5,1-1.25,1.77-2.25,2.31
			S156.47,484.95,155.19,484.95z"/>
		<path class="st2" d="M165.04,469.22c-0.58,0-1.06-0.18-1.44-0.55c-0.38-0.37-0.56-0.82-0.56-1.35c0-0.5,0.19-0.93,0.56-1.3
			c0.38-0.37,0.85-0.55,1.44-0.55s1.06,0.17,1.44,0.51s0.56,0.78,0.56,1.31s-0.18,0.99-0.55,1.36
			C166.12,469.04,165.64,469.22,165.04,469.22z M163.49,484.77v-13.35h3.1v13.35H163.49z"/>
		<path class="st2" d="M176.96,484.95c-1.48,0-2.78-0.3-3.89-0.89c-1.11-0.59-1.97-1.4-2.58-2.42s-0.91-2.2-0.91-3.54
			c0-1.33,0.29-2.51,0.89-3.54s1.41-1.83,2.45-2.42c1.04-0.59,2.23-0.89,3.56-0.89c1.3,0,2.46,0.29,3.47,0.86
			c1.02,0.58,1.82,1.38,2.4,2.41c0.58,1.03,0.88,2.26,0.88,3.68c0,0.12,0,0.26-0.01,0.44c-0.01,0.17-0.02,0.33-0.04,0.46h-11.12
			v-2.08h9.47l-1.25,0.65c0.02-0.75-0.14-1.42-0.46-2.01s-0.77-1.05-1.34-1.38c-0.57-0.33-1.23-0.49-2-0.49
			c-0.75,0-1.42,0.16-2.01,0.49c-0.59,0.32-1.04,0.79-1.36,1.39c-0.32,0.6-0.48,1.29-0.48,2.08v0.5c0,0.8,0.18,1.51,0.54,2.12
			c0.36,0.62,0.87,1.1,1.54,1.44c0.67,0.34,1.44,0.51,2.32,0.51c0.75,0,1.43-0.12,2.03-0.38s1.13-0.62,1.6-1.1l1.7,1.95
			c-0.62,0.7-1.38,1.23-2.29,1.6C179.16,484.76,178.13,484.95,176.96,484.95z"/>
		<path class="st2" d="M186.26,484.77v-13.35h2.97v3.68l-0.35-1.08c0.38-0.9,1.01-1.59,1.88-2.06c0.87-0.47,1.92-0.71,3.17-0.71
			v2.98c-0.12-0.02-0.23-0.03-0.35-0.04c-0.12-0.01-0.23-0.01-0.33-0.01c-1.2,0-2.15,0.34-2.85,1.03c-0.7,0.68-1.05,1.72-1.05,3.12
			v6.45H186.26z"/>
		<path class="st2" d="M202.49,484.95c-1.35,0-2.56-0.3-3.64-0.89c-1.08-0.59-1.92-1.4-2.54-2.44c-0.62-1.03-0.92-2.21-0.92-3.52
			c0-1.35,0.31-2.53,0.92-3.55c0.62-1.02,1.46-1.82,2.53-2.41s2.28-0.89,3.65-0.89c1.38,0,2.61,0.3,3.69,0.89
			c1.07,0.59,1.92,1.4,2.53,2.41c0.61,1.02,0.91,2.2,0.91,3.55c0,1.33-0.3,2.51-0.91,3.54c-0.61,1.03-1.46,1.83-2.54,2.42
			C205.08,484.65,203.85,484.95,202.49,484.95z M202.49,482.3c0.77,0,1.45-0.17,2.05-0.51s1.07-0.83,1.41-1.48
			c0.34-0.64,0.51-1.38,0.51-2.21c0-0.85-0.17-1.59-0.51-2.21c-0.34-0.62-0.81-1.11-1.41-1.45c-0.6-0.34-1.27-0.51-2.02-0.51
			s-1.43,0.17-2.03,0.51c-0.6,0.34-1.08,0.83-1.43,1.45c-0.35,0.62-0.52,1.36-0.52,2.21c0,0.83,0.17,1.57,0.52,2.21
			c0.35,0.64,0.83,1.13,1.43,1.48S201.75,482.3,202.49,482.3z"/>
		<path class="st2" d="M225.79,484.95c-1.48,0-2.78-0.3-3.89-0.89c-1.11-0.59-1.97-1.4-2.58-2.42s-0.91-2.2-0.91-3.54
			c0-1.33,0.29-2.51,0.89-3.54s1.41-1.83,2.45-2.42c1.04-0.59,2.23-0.89,3.56-0.89c1.3,0,2.46,0.29,3.48,0.86
			c1.02,0.58,1.82,1.38,2.4,2.41c0.58,1.03,0.88,2.26,0.88,3.68c0,0.12,0,0.26-0.01,0.44c-0.01,0.17-0.02,0.33-0.04,0.46h-11.12
			v-2.08h9.48l-1.25,0.65c0.02-0.75-0.14-1.42-0.46-2.01s-0.77-1.05-1.34-1.38c-0.57-0.33-1.23-0.49-2-0.49
			c-0.75,0-1.42,0.16-2.01,0.49c-0.59,0.32-1.05,0.79-1.36,1.39s-0.47,1.29-0.47,2.08v0.5c0,0.8,0.18,1.51,0.54,2.12
			s0.87,1.1,1.54,1.44c0.67,0.34,1.44,0.51,2.33,0.51c0.75,0,1.42-0.12,2.02-0.38c0.6-0.25,1.13-0.62,1.6-1.1l1.7,1.95
			c-0.62,0.7-1.38,1.23-2.29,1.6C227.99,484.76,226.95,484.95,225.79,484.95z"/>
		<path class="st2" d="M242.63,471.25c1.08,0,2.04,0.21,2.86,0.62s1.48,1.06,1.98,1.92c0.49,0.87,0.74,1.97,0.74,3.33v7.65h-3.12
			v-7.25c0-1.18-0.28-2.07-0.83-2.65s-1.33-0.88-2.35-0.88c-0.73,0-1.38,0.15-1.95,0.45c-0.57,0.3-1,0.75-1.31,1.34
			c-0.31,0.59-0.46,1.34-0.46,2.24v6.75h-3.1v-13.35h2.97v3.62l-0.52-1.12c0.45-0.85,1.12-1.51,2.01-1.97
			S241.47,471.25,242.63,471.25z"/>
		<path class="st2" d="M259.38,484.77v-17.5h2.68l7.65,12.78h-1.4l7.52-12.78h2.67l0.05,17.5h-3.12V472.1h0.62l-6.35,10.7h-1.47
			l-6.5-10.7h0.75v12.67H259.38z"/>
		<path class="st2" d="M289.23,484.95c-1.48,0-2.78-0.3-3.89-0.89c-1.11-0.59-1.97-1.4-2.58-2.42s-0.91-2.2-0.91-3.54
			c0-1.33,0.3-2.51,0.89-3.54c0.59-1.02,1.41-1.83,2.45-2.42c1.04-0.59,2.23-0.89,3.56-0.89c1.3,0,2.46,0.29,3.48,0.86
			c1.02,0.58,1.82,1.38,2.4,2.41c0.58,1.03,0.88,2.26,0.88,3.68c0,0.12,0,0.26-0.01,0.44c-0.01,0.17-0.02,0.33-0.04,0.46h-11.12
			v-2.08h9.48l-1.25,0.65c0.02-0.75-0.14-1.42-0.46-2.01s-0.77-1.05-1.34-1.38c-0.57-0.33-1.23-0.49-2-0.49
			c-0.75,0-1.42,0.16-2.01,0.49c-0.59,0.32-1.05,0.79-1.36,1.39s-0.47,1.29-0.47,2.08v0.5c0,0.8,0.18,1.51,0.54,2.12
			s0.87,1.1,1.54,1.44c0.67,0.34,1.44,0.51,2.33,0.51c0.75,0,1.42-0.12,2.02-0.38c0.6-0.25,1.13-0.62,1.6-1.1l1.7,1.95
			c-0.62,0.7-1.38,1.23-2.29,1.6C291.44,484.76,290.4,484.95,289.23,484.95z M286.58,469.6l3.38-3.43h3.7l-4.38,3.43H286.58z"/>
		<path class="st2" d="M296.31,484.77l5.85-7.65l-0.03,1.65l-5.62-7.35h3.5l3.92,5.22h-1.32l3.95-5.22h3.38l-5.65,7.38l0.02-1.67
			l5.88,7.65h-3.55l-4.12-5.57l1.33,0.17l-4.05,5.4H296.31z"/>
		<path class="st2" d="M314.03,469.22c-0.58,0-1.06-0.18-1.44-0.55c-0.38-0.37-0.56-0.82-0.56-1.35c0-0.5,0.19-0.93,0.56-1.3
			c0.38-0.37,0.85-0.55,1.44-0.55c0.58,0,1.06,0.17,1.44,0.51s0.56,0.78,0.56,1.31s-0.18,0.99-0.55,1.36
			C315.12,469.04,314.63,469.22,314.03,469.22z M312.48,484.77v-13.35h3.1v13.35H312.48z"/>
		<path class="st2" d="M325.81,484.95c-1.4,0-2.65-0.3-3.74-0.89c-1.09-0.59-1.95-1.4-2.56-2.42c-0.62-1.03-0.92-2.2-0.92-3.54
			c0-1.35,0.31-2.53,0.92-3.55c0.62-1.02,1.47-1.82,2.56-2.41s2.34-0.89,3.74-0.89c1.28,0,2.42,0.27,3.42,0.8s1.75,1.31,2.25,2.33
			l-2.38,1.4c-0.4-0.62-0.89-1.08-1.46-1.39s-1.2-0.46-1.86-0.46c-0.77,0-1.46,0.17-2.08,0.51c-0.62,0.34-1.1,0.83-1.45,1.45
			s-0.53,1.36-0.53,2.21c0,0.85,0.18,1.59,0.53,2.22s0.83,1.12,1.45,1.46c0.62,0.34,1.31,0.51,2.08,0.51c0.67,0,1.29-0.15,1.86-0.46
			c0.58-0.31,1.06-0.78,1.46-1.41l2.38,1.4c-0.5,1-1.25,1.77-2.25,2.31S327.09,484.95,325.81,484.95z"/>
		<path class="st2" d="M340.01,484.95c-1.35,0-2.56-0.3-3.64-0.89c-1.07-0.59-1.92-1.4-2.54-2.44c-0.62-1.03-0.92-2.21-0.92-3.52
			c0-1.35,0.31-2.53,0.92-3.55c0.62-1.02,1.46-1.82,2.53-2.41c1.07-0.59,2.28-0.89,3.65-0.89c1.38,0,2.61,0.3,3.69,0.89
			s1.92,1.4,2.53,2.41c0.61,1.02,0.91,2.2,0.91,3.55c0,1.33-0.3,2.51-0.91,3.54s-1.45,1.83-2.54,2.42
			C342.6,484.65,341.37,484.95,340.01,484.95z M340.01,482.3c0.77,0,1.45-0.17,2.05-0.51c0.6-0.34,1.07-0.83,1.41-1.48
			c0.34-0.64,0.51-1.38,0.51-2.21c0-0.85-0.17-1.59-0.51-2.21c-0.34-0.62-0.81-1.11-1.41-1.45c-0.6-0.34-1.27-0.51-2.02-0.51
			s-1.42,0.17-2.03,0.51c-0.6,0.34-1.08,0.83-1.42,1.45s-0.53,1.36-0.53,2.21c0,0.83,0.18,1.57,0.53,2.21s0.83,1.13,1.42,1.48
			C338.61,482.13,339.27,482.3,340.01,482.3z"/>
		<path class="st2" d="M350.91,484.95c-0.58,0-1.08-0.2-1.48-0.59c-0.4-0.39-0.6-0.9-0.6-1.51c0-0.62,0.2-1.11,0.6-1.49
			c0.4-0.38,0.89-0.56,1.48-0.56c0.55,0,1.02,0.19,1.42,0.56s0.6,0.87,0.6,1.49c0,0.62-0.2,1.12-0.6,1.51
			C351.93,484.75,351.46,484.95,350.91,484.95z"/>
	</g>
</g>
</svg>
