<?xml version="1.0" encoding="utf-8"?>
<!-- Generator: Adobe Illustrator 25.4.1, SVG Export Plug-In . SVG Version: 6.00 Build 0)  -->
<svg version="1.1" id="Capa_1" xmlns="http://www.w3.org/2000/svg" xmlns:xlink="http://www.w3.org/1999/xlink" x="0px" y="0px"
	 viewBox="0 0 440 600" style="enable-background:new 0 0 440 600;" xml:space="preserve">
<style type="text/css">
	.st0{fill:#2E4999;}
	.st1{fill:#F6AE2D;}
	.st2{fill:#FFFFFF;}
</style>
<g>
	<path class="st0" d="M375.95,336H63.05C40.93,336,23,318.07,23,295.95V68.05C23,45.93,40.93,28,63.05,28h312.89
		C398.07,28,416,45.93,416,68.05v227.89C416,318.07,398.07,336,375.95,336z"/>
</g>
<g>
	<path class="st1" d="M57.09,92.65l6.37-31.85h7.33l8.78,21.71H75.7L92.72,60.8h7.74l-6.33,31.85h-8.33l3.78-19.29h1.5L78.48,89.51
		h-3.96l-6.87-16.25l1.55,0.14l-3.82,19.25H57.09z"/>
	<path class="st1" d="M100.1,92.65l4.92-24.71h8.65l-4.96,24.71H100.1z M110.47,65.26c-1.52,0-2.72-0.42-3.6-1.25
		c-0.88-0.83-1.32-1.84-1.32-3.03c0-1.4,0.51-2.56,1.52-3.48c1.02-0.93,2.37-1.39,4.07-1.39c1.49,0,2.69,0.38,3.6,1.14
		c0.91,0.76,1.37,1.73,1.37,2.91c0,1.49-0.52,2.71-1.55,3.66C113.54,64.78,112.17,65.26,110.47,65.26z"/>
	<path class="st1" d="M123.9,93.06c-2.15,0-4.2-0.24-6.14-0.71c-1.94-0.47-3.44-1.04-4.5-1.71l3.14-6.05
		c1.15,0.76,2.5,1.34,4.05,1.73c1.55,0.4,3.05,0.59,4.51,0.59c1.43,0,2.44-0.17,3.05-0.52c0.61-0.35,0.91-0.78,0.91-1.3
		c0-0.48-0.31-0.84-0.93-1.07c-0.62-0.23-1.42-0.42-2.39-0.57c-0.97-0.15-2-0.34-3.09-0.57s-2.12-0.58-3.09-1.05
		c-0.97-0.47-1.76-1.12-2.37-1.96c-0.61-0.83-0.91-1.95-0.91-3.34c0-1.97,0.58-3.62,1.73-4.96c1.15-1.33,2.72-2.34,4.71-3.03
		c1.99-0.68,4.22-1.02,6.71-1.02c1.76,0,3.46,0.17,5.1,0.52c1.64,0.35,3.06,0.84,4.28,1.48l-3.05,6.05
		c-1.21-0.73-2.47-1.21-3.75-1.46c-1.29-0.24-2.48-0.36-3.57-0.36c-1.43,0-2.44,0.17-3.05,0.52c-0.61,0.35-0.91,0.77-0.91,1.25
		s0.31,0.85,0.93,1.09c0.62,0.24,1.41,0.46,2.37,0.64s1.99,0.39,3.09,0.61c1.11,0.23,2.13,0.57,3.07,1.02
		c0.94,0.46,1.72,1.09,2.34,1.91c0.62,0.82,0.93,1.93,0.93,3.32c0,1.97-0.58,3.63-1.75,4.96c-1.17,1.33-2.74,2.33-4.71,2.98
		C128.61,92.74,126.38,93.06,123.9,93.06z"/>
	<path class="st1" d="M139.19,92.65l4.92-24.71h8.65l-4.96,24.71H139.19z M149.56,65.26c-1.52,0-2.72-0.42-3.6-1.25
		c-0.88-0.83-1.32-1.84-1.32-3.03c0-1.4,0.51-2.56,1.52-3.48c1.02-0.93,2.37-1.39,4.07-1.39c1.49,0,2.69,0.38,3.6,1.14
		c0.91,0.76,1.37,1.73,1.37,2.91c0,1.49-0.52,2.71-1.55,3.66C152.63,64.78,151.26,65.26,149.56,65.26z"/>
	<path class="st1" d="M167.08,93.06c-2.61,0-4.88-0.46-6.83-1.39c-1.94-0.92-3.44-2.24-4.5-3.94c-1.06-1.7-1.59-3.67-1.59-5.92
		c0-2.73,0.65-5.17,1.96-7.33c1.3-2.15,3.09-3.85,5.37-5.1c2.28-1.24,4.88-1.87,7.83-1.87c2.64,0,4.92,0.47,6.85,1.41
		c1.93,0.94,3.41,2.25,4.46,3.91c1.05,1.67,1.57,3.64,1.57,5.92c0,2.73-0.65,5.17-1.96,7.33c-1.3,2.15-3.08,3.85-5.32,5.1
		C172.66,92.44,170.05,93.06,167.08,93.06z M167.58,86.19c1.15,0,2.17-0.29,3.05-0.86c0.88-0.58,1.57-1.39,2.07-2.43
		c0.5-1.05,0.75-2.28,0.75-3.71c0-1.33-0.4-2.46-1.21-3.37c-0.8-0.91-1.95-1.37-3.44-1.37c-1.15,0-2.18,0.29-3.07,0.86
		c-0.9,0.58-1.59,1.39-2.09,2.43c-0.5,1.05-0.75,2.27-0.75,3.66c0,1.43,0.41,2.58,1.23,3.46C164.94,85.75,166.1,86.19,167.58,86.19z
		 M166.54,65.03l6.83-6.87h8.92l-9.37,6.87H166.54z"/>
	<path class="st1" d="M203.99,67.53c2.06,0,3.83,0.44,5.3,1.32c1.47,0.88,2.52,2.16,3.14,3.85c0.62,1.68,0.67,3.78,0.16,6.3
		l-2.73,13.65h-8.65l2.55-12.79c0.33-1.61,0.24-2.84-0.27-3.69c-0.52-0.85-1.5-1.27-2.96-1.27c-1.49,0-2.72,0.46-3.71,1.37
		c-0.99,0.91-1.68,2.31-2.07,4.19l-2.46,12.2h-8.65l4.92-24.71h8.15l-1.37,6.96l-1.05-2c1.15-1.82,2.6-3.17,4.35-4.05
		C200.38,67.97,202.17,67.53,203.99,67.53z"/>
</g>
<g>
	<path class="st2" d="M81.88,137.02c-1.37,0-2.67-0.2-3.91-0.59c-1.24-0.39-2.24-0.9-2.99-1.51l1.12-2.52
		c0.7,0.55,1.57,1.01,2.6,1.38c1.03,0.37,2.09,0.55,3.17,0.55c0.92,0,1.66-0.1,2.23-0.3c0.57-0.2,0.98-0.47,1.25-0.81
		c0.27-0.34,0.4-0.73,0.4-1.16c0-0.53-0.19-0.96-0.57-1.29c-0.38-0.32-0.88-0.58-1.49-0.77c-0.61-0.19-1.28-0.37-2.02-0.52
		c-0.74-0.16-1.48-0.35-2.23-0.59s-1.42-0.53-2.04-0.89c-0.62-0.36-1.11-0.84-1.49-1.44s-0.56-1.37-0.56-2.3
		c0-0.95,0.25-1.82,0.76-2.61c0.51-0.79,1.28-1.42,2.32-1.9s2.36-0.71,3.96-0.71c1.05,0,2.09,0.13,3.12,0.4
		c1.03,0.27,1.93,0.65,2.7,1.15l-1.02,2.53c-0.78-0.47-1.59-0.81-2.43-1.04s-1.63-0.34-2.4-0.34c-0.88,0-1.61,0.11-2.17,0.32
		c-0.57,0.22-0.98,0.5-1.24,0.86s-0.39,0.75-0.39,1.19c0,0.53,0.19,0.96,0.56,1.29c0.38,0.33,0.87,0.58,1.48,0.76
		c0.61,0.18,1.29,0.36,2.04,0.52c0.75,0.17,1.49,0.36,2.23,0.59c0.73,0.23,1.41,0.52,2.02,0.88c0.62,0.36,1.11,0.83,1.49,1.43
		c0.38,0.59,0.56,1.35,0.56,2.26c0,0.93-0.25,1.8-0.76,2.59s-1.29,1.42-2.34,1.9S83.48,137.02,81.88,137.02z"/>
	<path class="st2" d="M93.45,121.22c-0.58,0-1.06-0.18-1.44-0.55c-0.38-0.37-0.56-0.82-0.56-1.35c0-0.5,0.19-0.93,0.56-1.3
		c0.38-0.37,0.85-0.55,1.44-0.55c0.58,0,1.06,0.17,1.44,0.51c0.38,0.34,0.56,0.78,0.56,1.31c0,0.53-0.18,0.99-0.55,1.36
		C94.53,121.03,94.05,121.22,93.45,121.22z M91.9,136.77v-13.35H95v13.35H91.9z"/>
	<path class="st2" d="M115.95,123.25c1.07,0,2.01,0.21,2.84,0.62c0.83,0.42,1.47,1.06,1.94,1.92c0.47,0.87,0.7,1.98,0.7,3.33v7.65
		h-3.1v-7.25c0-1.18-0.26-2.07-0.79-2.65c-0.52-0.58-1.27-0.88-2.24-0.88c-0.68,0-1.29,0.15-1.81,0.45
		c-0.52,0.3-0.93,0.75-1.23,1.34s-0.44,1.33-0.44,2.21v6.77h-3.1v-7.25c0-1.18-0.26-2.07-0.79-2.65c-0.53-0.58-1.27-0.88-2.24-0.88
		c-0.68,0-1.29,0.15-1.81,0.45c-0.52,0.3-0.93,0.75-1.23,1.34s-0.44,1.33-0.44,2.21v6.77h-3.1v-13.35h2.97V127l-0.55-1.08
		c0.45-0.85,1.1-1.51,1.96-1.98c0.86-0.47,1.85-0.7,2.96-0.7c1.25,0,2.33,0.31,3.25,0.92c0.92,0.62,1.53,1.57,1.83,2.85l-1.2-0.45
		c0.42-0.98,1.12-1.78,2.12-2.4C113.48,123.56,114.63,123.25,115.95,123.25z"/>
	<path class="st2" d="M125.45,141.62v-18.2h2.97v3.15l-0.12,3.55l0.25,3.55v7.95H125.45z M132.83,136.95c-1.1,0-2.09-0.25-2.98-0.74
		c-0.88-0.49-1.58-1.25-2.1-2.26c-0.52-1.02-0.77-2.3-0.77-3.85c0-1.57,0.25-2.85,0.74-3.86c0.49-1.01,1.19-1.76,2.09-2.25
		c0.9-0.49,1.91-0.74,3.03-0.74c1.3,0,2.46,0.28,3.47,0.85s1.82,1.37,2.41,2.4c0.59,1.03,0.89,2.23,0.89,3.6
		c0,1.38-0.3,2.59-0.89,3.61c-0.59,1.02-1.4,1.82-2.41,2.39S134.12,136.95,132.83,136.95z M132.45,134.3c0.77,0,1.45-0.17,2.04-0.52
		s1.06-0.84,1.41-1.48c0.35-0.63,0.52-1.37,0.52-2.2c0-0.85-0.17-1.59-0.52-2.21s-0.82-1.11-1.41-1.45
		c-0.59-0.34-1.27-0.51-2.04-0.51c-0.73,0-1.4,0.17-2,0.51c-0.6,0.34-1.08,0.82-1.43,1.45s-0.52,1.36-0.52,2.21
		c0,0.83,0.17,1.57,0.52,2.2c0.35,0.63,0.83,1.12,1.43,1.48C131.05,134.12,131.72,134.3,132.45,134.3z"/>
	<path class="st2" d="M142.6,136.77v-18.55h3.1v18.55H142.6z"/>
	<path class="st2" d="M151.37,121.22c-0.58,0-1.06-0.18-1.44-0.55c-0.38-0.37-0.56-0.82-0.56-1.35c0-0.5,0.19-0.93,0.56-1.3
		c0.38-0.37,0.85-0.55,1.44-0.55c0.58,0,1.06,0.17,1.44,0.51c0.38,0.34,0.56,0.78,0.56,1.31c0,0.53-0.18,0.99-0.55,1.36
		C152.46,121.03,151.97,121.22,151.37,121.22z M149.82,136.77v-13.35h3.1v13.35H149.82z"/>
	<path class="st2" d="M155.25,126.02v-2.5h8.9v2.5H155.25z M157.45,136.77V122.7c0-1.42,0.41-2.55,1.24-3.39
		c0.83-0.84,2-1.26,3.54-1.26c0.55,0,1.07,0.06,1.56,0.18c0.49,0.12,0.9,0.3,1.24,0.55l-0.88,2.33c-0.22-0.15-0.47-0.28-0.77-0.38
		c-0.3-0.1-0.61-0.15-0.92-0.15c-0.65,0-1.14,0.18-1.48,0.54c-0.33,0.36-0.5,0.89-0.5,1.59v1.55l0.08,1.38v11.15H157.45z
		 M167.92,121.22c-0.58,0-1.06-0.18-1.44-0.55c-0.38-0.37-0.56-0.82-0.56-1.35c0-0.5,0.19-0.93,0.56-1.3
		c0.38-0.37,0.85-0.55,1.44-0.55c0.58,0,1.06,0.17,1.44,0.51c0.38,0.34,0.56,0.78,0.56,1.31c0,0.53-0.18,0.99-0.55,1.36
		S168.52,121.22,167.92,121.22z M166.37,136.77v-13.35h3.1v13.35H166.37z"/>
	<path class="st2" d="M179.7,136.95c-1.4,0-2.65-0.3-3.74-0.89c-1.09-0.59-1.95-1.4-2.56-2.43c-0.62-1.02-0.92-2.2-0.92-3.54
		c0-1.35,0.31-2.53,0.92-3.55c0.62-1.02,1.47-1.82,2.56-2.41c1.09-0.59,2.34-0.89,3.74-0.89c1.28,0,2.43,0.27,3.43,0.8
		c1,0.53,1.75,1.31,2.25,2.33l-2.38,1.4c-0.4-0.62-0.89-1.08-1.46-1.39c-0.58-0.31-1.2-0.46-1.86-0.46c-0.77,0-1.46,0.17-2.07,0.51
		c-0.62,0.34-1.1,0.82-1.45,1.45s-0.52,1.36-0.52,2.21c0,0.85,0.17,1.59,0.52,2.22c0.35,0.63,0.83,1.12,1.45,1.46
		c0.62,0.34,1.31,0.51,2.07,0.51c0.67,0,1.29-0.15,1.86-0.46c0.57-0.31,1.06-0.78,1.46-1.41l2.38,1.4c-0.5,1-1.25,1.77-2.25,2.31
		C182.12,136.68,180.98,136.95,179.7,136.95z"/>
	<path class="st2" d="M192.12,136.95c-1,0-1.88-0.17-2.62-0.51s-1.33-0.82-1.74-1.43c-0.41-0.61-0.61-1.3-0.61-2.06
		c0-0.75,0.18-1.42,0.54-2.02c0.36-0.6,0.95-1.07,1.76-1.42c0.82-0.35,1.9-0.52,3.25-0.52h3.88v2.07h-3.65
		c-1.05,0-1.76,0.17-2.14,0.51c-0.38,0.34-0.56,0.77-0.56,1.29c0,0.55,0.23,0.99,0.68,1.32c0.45,0.33,1.07,0.5,1.88,0.5
		c0.77,0,1.45-0.17,2.06-0.52c0.61-0.35,1.05-0.87,1.34-1.55l0.5,1.88c-0.3,0.78-0.83,1.39-1.6,1.82
		C194.31,136.73,193.32,136.95,192.12,136.95z M196.32,136.77v-2.73l-0.15-0.55v-4.73c0-0.92-0.28-1.63-0.84-2.14
		c-0.56-0.51-1.4-0.76-2.54-0.76c-0.73,0-1.46,0.12-2.17,0.35c-0.72,0.23-1.33,0.56-1.85,0.97l-1.23-2.27
		c0.73-0.55,1.59-0.97,2.58-1.25c0.98-0.28,2.01-0.42,3.07-0.42c1.95,0,3.45,0.47,4.5,1.4c1.05,0.93,1.58,2.37,1.58,4.3v7.83H196.32
		z"/>
	<path class="st2" d="M203.3,136.77v-13.35h2.97v3.68l-0.35-1.08c0.38-0.9,1.01-1.59,1.88-2.06c0.87-0.48,1.92-0.71,3.17-0.71v2.98
		c-0.12-0.02-0.23-0.03-0.35-0.04s-0.23-0.01-0.32-0.01c-1.2,0-2.15,0.34-2.85,1.02c-0.7,0.68-1.05,1.73-1.05,3.12v6.45H203.3z"/>
	<path class="st2" d="M221.8,141.8c-0.67,0-1.32-0.11-1.97-0.32c-0.65-0.22-1.18-0.52-1.6-0.9l1.23-2.27
		c0.32,0.27,0.67,0.48,1.06,0.65c0.39,0.17,0.8,0.25,1.24,0.25c0.57,0,1.03-0.14,1.38-0.42c0.35-0.28,0.67-0.77,0.97-1.45l0.75-1.7
		l0.3-0.4l5.02-11.8h3l-6.25,14.45c-0.42,0.98-0.88,1.76-1.39,2.34c-0.51,0.58-1.07,0.98-1.7,1.23
		C223.21,141.68,222.53,141.8,221.8,141.8z M224.52,137.25l-6.03-13.83h3.22l4.93,11.52L224.52,137.25z"/>
	<path class="st2" d="M246.05,136.95c-1,0-1.88-0.17-2.62-0.51s-1.33-0.82-1.74-1.43c-0.41-0.61-0.61-1.3-0.61-2.06
		c0-0.75,0.18-1.42,0.54-2.02s0.95-1.07,1.76-1.42c0.82-0.35,1.9-0.52,3.25-0.52h3.88v2.07h-3.65c-1.05,0-1.76,0.17-2.14,0.51
		c-0.38,0.34-0.56,0.77-0.56,1.29c0,0.55,0.23,0.99,0.67,1.32c0.45,0.33,1.08,0.5,1.88,0.5c0.77,0,1.45-0.17,2.06-0.52
		s1.05-0.87,1.34-1.55l0.5,1.88c-0.3,0.78-0.83,1.39-1.6,1.82C248.23,136.73,247.25,136.95,246.05,136.95z M250.25,136.77v-2.73
		l-0.15-0.55v-4.73c0-0.92-0.28-1.63-0.84-2.14c-0.56-0.51-1.4-0.76-2.54-0.76c-0.73,0-1.46,0.12-2.17,0.35
		c-0.72,0.23-1.33,0.56-1.85,0.97l-1.22-2.27c0.73-0.55,1.59-0.97,2.58-1.25c0.98-0.28,2.01-0.42,3.08-0.42
		c1.95,0,3.45,0.47,4.5,1.4c1.05,0.93,1.57,2.37,1.57,4.3v7.83H250.25z"/>
	<path class="st2" d="M262.87,136.17c-1.28,0-2.43-0.27-3.45-0.81c-1.02-0.54-1.82-1.3-2.41-2.26c-0.59-0.97-0.89-2.09-0.89-3.38
		c0-1.3,0.3-2.44,0.89-3.41c0.59-0.98,1.4-1.73,2.41-2.26c1.02-0.53,2.17-0.8,3.45-0.8c1.13,0,2.15,0.23,3.06,0.69
		c0.91,0.46,1.63,1.16,2.16,2.11c0.53,0.95,0.8,2.18,0.8,3.68c0,1.47-0.27,2.67-0.8,3.62c-0.53,0.95-1.25,1.66-2.16,2.12
		C265.02,135.94,264,136.17,262.87,136.17z M263.27,141.8c-1.25,0-2.45-0.16-3.61-0.49c-1.16-0.33-2.12-0.8-2.89-1.44l1.4-2.33
		c0.58,0.48,1.32,0.88,2.2,1.18c0.88,0.3,1.8,0.45,2.75,0.45c1.45,0,2.52-0.34,3.2-1.01c0.68-0.68,1.02-1.7,1.02-3.06v-2.38l0.25-3
		l-0.1-3.03v-3.27h2.97v11.33c0,2.42-0.62,4.2-1.85,5.34S265.6,141.8,263.27,141.8z M263.35,133.52c0.78,0,1.48-0.16,2.1-0.49
		c0.62-0.33,1.1-0.78,1.44-1.35c0.34-0.58,0.51-1.23,0.51-1.96c0-0.77-0.17-1.43-0.51-2c-0.34-0.57-0.82-1.01-1.44-1.33
		c-0.62-0.32-1.32-0.48-2.1-0.48s-1.49,0.16-2.11,0.48c-0.62,0.32-1.11,0.76-1.45,1.33s-0.51,1.23-0.51,2
		c0,0.73,0.17,1.39,0.51,1.96c0.34,0.57,0.83,1.02,1.45,1.35C261.86,133.36,262.56,133.52,263.35,133.52z"/>
	<path class="st2" d="M276.15,121.22c-0.58,0-1.06-0.18-1.44-0.55c-0.38-0.37-0.56-0.82-0.56-1.35c0-0.5,0.19-0.93,0.56-1.3
		c0.38-0.37,0.85-0.55,1.44-0.55c0.58,0,1.06,0.17,1.44,0.51c0.38,0.34,0.56,0.78,0.56,1.31c0,0.53-0.18,0.99-0.55,1.36
		C277.23,121.03,276.75,121.22,276.15,121.22z M274.6,136.77v-13.35h3.1v13.35H274.6z"/>
	<path class="st2" d="M281.82,136.77v-18.55h3.1v18.55H281.82z"/>
	<path class="st2" d="M290.59,121.22c-0.58,0-1.06-0.18-1.44-0.55c-0.38-0.37-0.56-0.82-0.56-1.35c0-0.5,0.19-0.93,0.56-1.3
		c0.38-0.37,0.85-0.55,1.44-0.55c0.58,0,1.06,0.17,1.44,0.51c0.38,0.34,0.56,0.78,0.56,1.31c0,0.53-0.18,0.99-0.55,1.36
		C291.68,121.03,291.19,121.22,290.59,121.22z M289.04,136.77v-13.35h3.1v13.35H289.04z"/>
	<path class="st2" d="M295.14,136.77v-1.98l8.22-9.95l0.6,1.07h-8.68v-2.5h11.15v1.98l-8.22,9.95l-0.62-1.08h9.07v2.5H295.14z"/>
	<path class="st2" d="M313.57,136.95c-1,0-1.88-0.17-2.62-0.51s-1.33-0.82-1.74-1.43c-0.41-0.61-0.61-1.3-0.61-2.06
		c0-0.75,0.18-1.42,0.54-2.02s0.95-1.07,1.76-1.42c0.82-0.35,1.9-0.52,3.25-0.52h3.88v2.07h-3.65c-1.05,0-1.76,0.17-2.14,0.51
		c-0.38,0.34-0.56,0.77-0.56,1.29c0,0.55,0.23,0.99,0.67,1.32c0.45,0.33,1.08,0.5,1.88,0.5c0.77,0,1.45-0.17,2.06-0.52
		s1.05-0.87,1.34-1.55l0.5,1.88c-0.3,0.78-0.83,1.39-1.6,1.82C315.75,136.73,314.77,136.95,313.57,136.95z M317.77,136.77v-2.73
		l-0.15-0.55v-4.73c0-0.92-0.28-1.63-0.84-2.14c-0.56-0.51-1.4-0.76-2.54-0.76c-0.73,0-1.46,0.12-2.17,0.35
		c-0.72,0.23-1.33,0.56-1.85,0.97l-1.22-2.27c0.73-0.55,1.59-0.97,2.58-1.25c0.98-0.28,2.01-0.42,3.08-0.42
		c1.95,0,3.45,0.47,4.5,1.4c1.05,0.93,1.57,2.37,1.57,4.3v7.83H317.77z"/>
	<path class="st2" d="M324.74,136.77v-13.35h2.97v3.68l-0.35-1.08c0.38-0.9,1.01-1.59,1.88-2.06c0.87-0.48,1.92-0.71,3.17-0.71v2.98
		c-0.12-0.02-0.23-0.03-0.35-0.04c-0.12-0.01-0.23-0.01-0.33-0.01c-1.2,0-2.15,0.34-2.85,1.02c-0.7,0.68-1.05,1.73-1.05,3.12v6.45
		H324.74z"/>
	<path class="st2" d="M348.39,136.95c-1.48,0-2.78-0.3-3.89-0.89c-1.11-0.59-1.97-1.4-2.58-2.43c-0.61-1.02-0.91-2.2-0.91-3.54
		s0.3-2.51,0.89-3.54c0.59-1.02,1.41-1.83,2.45-2.43c1.04-0.59,2.23-0.89,3.56-0.89c1.3,0,2.46,0.29,3.48,0.86
		c1.02,0.58,1.82,1.38,2.4,2.41c0.58,1.03,0.88,2.26,0.88,3.67c0,0.12,0,0.26-0.01,0.44c-0.01,0.18-0.02,0.33-0.04,0.46h-11.12
		v-2.08h9.48l-1.25,0.65c0.02-0.75-0.14-1.42-0.46-2.01s-0.77-1.05-1.34-1.38c-0.57-0.33-1.23-0.49-2-0.49
		c-0.75,0-1.42,0.16-2.01,0.49c-0.59,0.32-1.05,0.79-1.36,1.39s-0.47,1.29-0.47,2.08v0.5c0,0.8,0.18,1.51,0.54,2.12
		s0.87,1.1,1.54,1.44c0.67,0.34,1.44,0.51,2.33,0.51c0.75,0,1.42-0.12,2.02-0.38c0.6-0.25,1.13-0.62,1.6-1.1l1.7,1.95
		c-0.62,0.7-1.38,1.23-2.29,1.6C350.6,136.76,349.56,136.95,348.39,136.95z"/>
	<path class="st2" d="M357.69,136.77v-18.55h3.1v18.55H357.69z"/>
	<path class="st2" d="M60.77,171.62v-18.2h2.97v3.15l-0.12,3.55l0.25,3.55v7.95H60.77z M68.15,166.95c-1.1,0-2.09-0.25-2.98-0.74
		c-0.88-0.49-1.58-1.25-2.1-2.26c-0.52-1.02-0.77-2.3-0.77-3.85c0-1.57,0.25-2.85,0.74-3.86c0.49-1.01,1.19-1.76,2.09-2.25
		c0.9-0.49,1.91-0.74,3.03-0.74c1.3,0,2.46,0.28,3.47,0.85s1.82,1.37,2.41,2.4c0.59,1.03,0.89,2.23,0.89,3.6
		c0,1.38-0.3,2.59-0.89,3.61c-0.59,1.02-1.4,1.82-2.41,2.39S69.45,166.95,68.15,166.95z M67.77,164.3c0.77,0,1.45-0.17,2.04-0.52
		s1.06-0.84,1.41-1.48c0.35-0.63,0.52-1.37,0.52-2.2c0-0.85-0.17-1.59-0.52-2.21s-0.82-1.11-1.41-1.45
		c-0.59-0.34-1.27-0.51-2.04-0.51c-0.73,0-1.4,0.17-2,0.51c-0.6,0.34-1.08,0.82-1.43,1.45s-0.52,1.36-0.52,2.21
		c0,0.83,0.17,1.57,0.52,2.2c0.35,0.63,0.83,1.12,1.43,1.48C66.37,164.12,67.04,164.3,67.77,164.3z"/>
	<path class="st2" d="M77.92,166.77v-13.35h2.97v3.68l-0.35-1.08c0.38-0.9,1.01-1.59,1.88-2.06c0.87-0.48,1.92-0.71,3.17-0.71v2.98
		c-0.12-0.02-0.23-0.03-0.35-0.04s-0.23-0.01-0.32-0.01c-1.2,0-2.15,0.34-2.85,1.02c-0.7,0.68-1.05,1.73-1.05,3.12v6.45H77.92z"/>
	<path class="st2" d="M94.15,166.95c-1.35,0-2.56-0.3-3.64-0.89c-1.08-0.59-1.92-1.4-2.54-2.44c-0.62-1.03-0.92-2.21-0.92-3.52
		c0-1.35,0.31-2.53,0.92-3.55c0.62-1.02,1.46-1.82,2.52-2.41c1.07-0.59,2.28-0.89,3.65-0.89c1.38,0,2.61,0.3,3.69,0.89
		c1.08,0.59,1.92,1.4,2.53,2.41c0.61,1.02,0.91,2.2,0.91,3.55c0,1.33-0.3,2.51-0.91,3.54c-0.61,1.03-1.45,1.83-2.54,2.43
		C96.74,166.65,95.52,166.95,94.15,166.95z M94.15,164.3c0.77,0,1.45-0.17,2.05-0.51s1.07-0.83,1.41-1.48
		c0.34-0.64,0.51-1.38,0.51-2.21c0-0.85-0.17-1.59-0.51-2.21c-0.34-0.62-0.81-1.11-1.41-1.45c-0.6-0.34-1.27-0.51-2.02-0.51
		s-1.43,0.17-2.03,0.51c-0.6,0.34-1.07,0.82-1.42,1.45s-0.52,1.36-0.52,2.21c0,0.83,0.17,1.57,0.52,2.21s0.83,1.13,1.42,1.48
		C92.75,164.13,93.42,164.3,94.15,164.3z"/>
	<path class="st2" d="M110.4,166.95c-1.4,0-2.65-0.3-3.74-0.89c-1.09-0.59-1.95-1.4-2.56-2.43c-0.62-1.02-0.92-2.2-0.92-3.54
		c0-1.35,0.31-2.53,0.92-3.55c0.62-1.02,1.47-1.82,2.56-2.41c1.09-0.59,2.34-0.89,3.74-0.89c1.28,0,2.43,0.27,3.43,0.8
		c1,0.53,1.75,1.31,2.25,2.33l-2.38,1.4c-0.4-0.62-0.89-1.08-1.46-1.39c-0.58-0.31-1.2-0.46-1.86-0.46c-0.77,0-1.46,0.17-2.07,0.51
		c-0.62,0.34-1.1,0.82-1.45,1.45s-0.52,1.36-0.52,2.21c0,0.85,0.17,1.59,0.52,2.22c0.35,0.63,0.83,1.12,1.45,1.46
		c0.62,0.34,1.31,0.51,2.07,0.51c0.67,0,1.29-0.15,1.86-0.46c0.57-0.31,1.06-0.78,1.46-1.41l2.38,1.4c-0.5,1-1.25,1.77-2.25,2.31
		C112.82,166.68,111.68,166.95,110.4,166.95z"/>
	<path class="st2" d="M124.87,166.95c-1.48,0-2.78-0.3-3.89-0.89c-1.11-0.59-1.97-1.4-2.58-2.43c-0.61-1.02-0.91-2.2-0.91-3.54
		s0.3-2.51,0.89-3.54c0.59-1.02,1.41-1.83,2.45-2.43c1.04-0.59,2.23-0.89,3.56-0.89c1.3,0,2.46,0.29,3.48,0.86
		c1.02,0.58,1.82,1.38,2.4,2.41c0.58,1.03,0.88,2.26,0.88,3.67c0,0.12,0,0.26-0.01,0.44c-0.01,0.18-0.02,0.33-0.04,0.46h-11.12
		v-2.08h9.48l-1.25,0.65c0.02-0.75-0.14-1.42-0.46-2.01s-0.77-1.05-1.34-1.38c-0.57-0.33-1.23-0.49-2-0.49
		c-0.75,0-1.42,0.16-2.01,0.49c-0.59,0.32-1.05,0.79-1.36,1.39c-0.32,0.6-0.48,1.29-0.48,2.08v0.5c0,0.8,0.18,1.51,0.54,2.12
		c0.36,0.62,0.87,1.1,1.54,1.44c0.67,0.34,1.44,0.51,2.32,0.51c0.75,0,1.43-0.12,2.02-0.38c0.6-0.25,1.13-0.62,1.6-1.1l1.7,1.95
		c-0.62,0.7-1.38,1.23-2.29,1.6C127.08,166.76,126.04,166.95,124.87,166.95z"/>
	<path class="st2" d="M138.3,166.95c-1.13,0-2.21-0.15-3.23-0.44c-1.02-0.29-1.83-0.65-2.45-1.06l1.2-2.38
		c0.6,0.38,1.32,0.7,2.15,0.94c0.83,0.24,1.67,0.36,2.52,0.36c0.97,0,1.67-0.13,2.11-0.39c0.44-0.26,0.66-0.61,0.66-1.06
		c0-0.37-0.15-0.65-0.45-0.84c-0.3-0.19-0.69-0.34-1.18-0.44s-1.02-0.19-1.61-0.27c-0.59-0.08-1.18-0.2-1.77-0.34
		c-0.59-0.14-1.13-0.35-1.61-0.62c-0.48-0.28-0.88-0.65-1.17-1.11c-0.3-0.47-0.45-1.09-0.45-1.88c0-0.83,0.24-1.56,0.73-2.19
		s1.16-1.11,2.04-1.46s1.91-0.52,3.11-0.52c0.88,0,1.79,0.1,2.71,0.31c0.92,0.21,1.7,0.5,2.31,0.86l-1.23,2.38
		c-0.62-0.37-1.25-0.62-1.9-0.76c-0.65-0.14-1.29-0.21-1.93-0.21c-0.93,0-1.63,0.14-2.1,0.41s-0.7,0.63-0.7,1.06
		c0,0.4,0.15,0.7,0.45,0.9c0.3,0.2,0.69,0.35,1.18,0.46c0.48,0.11,1.02,0.21,1.61,0.3c0.59,0.09,1.18,0.21,1.76,0.35
		c0.58,0.14,1.12,0.34,1.61,0.6s0.89,0.62,1.19,1.09c0.3,0.47,0.45,1.07,0.45,1.82c0,0.85-0.25,1.58-0.74,2.19
		c-0.49,0.61-1.18,1.08-2.07,1.43C140.62,166.78,139.55,166.95,138.3,166.95z"/>
	<path class="st2" d="M153.02,166.95c-1.35,0-2.56-0.3-3.64-0.89c-1.08-0.59-1.92-1.4-2.54-2.44c-0.62-1.03-0.92-2.21-0.92-3.52
		c0-1.35,0.31-2.53,0.92-3.55c0.62-1.02,1.46-1.82,2.52-2.41c1.07-0.59,2.28-0.89,3.65-0.89c1.38,0,2.61,0.3,3.69,0.89
		c1.08,0.59,1.92,1.4,2.53,2.41c0.61,1.02,0.91,2.2,0.91,3.55c0,1.33-0.3,2.51-0.91,3.54c-0.61,1.03-1.45,1.83-2.54,2.43
		C155.62,166.65,154.39,166.95,153.02,166.95z M153.02,164.3c0.77,0,1.45-0.17,2.05-0.51s1.07-0.83,1.41-1.48
		c0.34-0.64,0.51-1.38,0.51-2.21c0-0.85-0.17-1.59-0.51-2.21c-0.34-0.62-0.81-1.11-1.41-1.45c-0.6-0.34-1.27-0.51-2.02-0.51
		s-1.43,0.17-2.03,0.51c-0.6,0.34-1.07,0.82-1.42,1.45s-0.52,1.36-0.52,2.21c0,0.83,0.17,1.57,0.52,2.21s0.83,1.13,1.42,1.48
		C151.62,164.13,152.29,164.3,153.02,164.3z"/>
	<path class="st2" d="M175.7,166.95c-1.28,0-2.44-0.28-3.46-0.85c-1.02-0.57-1.83-1.36-2.41-2.39c-0.58-1.02-0.88-2.23-0.88-3.61
		c0-1.37,0.29-2.57,0.88-3.6c0.58-1.03,1.39-1.83,2.41-2.4c1.03-0.57,2.18-0.85,3.46-0.85c1.12,0,2.12,0.25,3,0.74
		c0.88,0.49,1.58,1.24,2.1,2.25c0.52,1.01,0.78,2.3,0.78,3.86c0,1.55-0.25,2.83-0.75,3.85c-0.5,1.02-1.19,1.77-2.06,2.26
		C177.89,166.7,176.86,166.95,175.7,166.95z M176.07,164.3c0.75,0,1.42-0.17,2.01-0.51c0.59-0.34,1.07-0.83,1.43-1.48
		c0.36-0.64,0.54-1.38,0.54-2.21c0-0.85-0.18-1.59-0.54-2.21c-0.36-0.62-0.83-1.11-1.43-1.45c-0.59-0.34-1.26-0.51-2.01-0.51
		s-1.42,0.17-2.01,0.51c-0.59,0.34-1.07,0.82-1.42,1.45c-0.36,0.62-0.54,1.36-0.54,2.21c0,0.83,0.18,1.57,0.54,2.21
		c0.36,0.64,0.83,1.13,1.42,1.48C174.65,164.13,175.32,164.3,176.07,164.3z M180.15,166.77v-3.15l0.08-3.55l-0.25-3.55v-8.3h3.15
		v18.55H180.15z"/>
	<path class="st2" d="M193.5,166.95c-1.48,0-2.78-0.3-3.89-0.89c-1.11-0.59-1.97-1.4-2.58-2.43c-0.61-1.02-0.91-2.2-0.91-3.54
		s0.3-2.51,0.89-3.54c0.59-1.02,1.41-1.83,2.45-2.43c1.04-0.59,2.23-0.89,3.56-0.89c1.3,0,2.46,0.29,3.48,0.86
		c1.02,0.58,1.82,1.38,2.4,2.41c0.58,1.03,0.88,2.26,0.88,3.67c0,0.12,0,0.26-0.01,0.44c-0.01,0.18-0.02,0.33-0.04,0.46H188.6v-2.08
		h9.48l-1.25,0.65c0.02-0.75-0.14-1.42-0.46-2.01s-0.77-1.05-1.34-1.38c-0.57-0.33-1.23-0.49-2-0.49c-0.75,0-1.42,0.16-2.01,0.49
		c-0.59,0.32-1.05,0.79-1.36,1.39c-0.32,0.6-0.48,1.29-0.48,2.08v0.5c0,0.8,0.18,1.51,0.54,2.12c0.36,0.62,0.87,1.1,1.54,1.44
		c0.67,0.34,1.44,0.51,2.32,0.51c0.75,0,1.43-0.12,2.02-0.38c0.6-0.25,1.13-0.62,1.6-1.1l1.7,1.95c-0.62,0.7-1.38,1.23-2.29,1.6
		C195.7,166.76,194.66,166.95,193.5,166.95z"/>
	<path class="st2" d="M215.67,166.95c-1.35,0-2.56-0.3-3.64-0.89c-1.08-0.59-1.92-1.4-2.54-2.44c-0.62-1.03-0.92-2.21-0.92-3.52
		c0-1.35,0.31-2.53,0.92-3.55c0.62-1.02,1.46-1.82,2.52-2.41c1.07-0.59,2.28-0.89,3.65-0.89c1.38,0,2.61,0.3,3.69,0.89
		c1.08,0.59,1.92,1.4,2.53,2.41c0.61,1.02,0.91,2.2,0.91,3.55c0,1.33-0.3,2.51-0.91,3.54c-0.61,1.03-1.45,1.83-2.54,2.43
		C218.26,166.65,217.04,166.95,215.67,166.95z M215.67,164.3c0.77,0,1.45-0.17,2.05-0.51s1.07-0.83,1.41-1.48
		c0.34-0.64,0.51-1.38,0.51-2.21c0-0.85-0.17-1.59-0.51-2.21c-0.34-0.62-0.81-1.11-1.41-1.45c-0.6-0.34-1.27-0.51-2.02-0.51
		s-1.43,0.17-2.03,0.51c-0.6,0.34-1.07,0.82-1.42,1.45s-0.52,1.36-0.52,2.21c0,0.83,0.17,1.57,0.52,2.21s0.83,1.13,1.42,1.48
		C214.27,164.13,214.94,164.3,215.67,164.3z"/>
	<path class="st2" d="M225.82,166.77v-18.55h3.1v8.3l-0.25,3.55l0.12,3.55v3.15H225.82z M233.2,166.95c-1.12,0-2.12-0.25-3.03-0.74
		c-0.9-0.49-1.6-1.25-2.09-2.26c-0.49-1.02-0.74-2.3-0.74-3.85c0-1.57,0.26-2.85,0.78-3.86c0.52-1.01,1.22-1.76,2.1-2.25
		c0.88-0.49,1.88-0.74,2.98-0.74c1.3,0,2.46,0.28,3.47,0.85s1.82,1.37,2.41,2.4c0.59,1.03,0.89,2.23,0.89,3.6
		c0,1.38-0.3,2.59-0.89,3.61c-0.59,1.02-1.4,1.82-2.41,2.39S234.5,166.95,233.2,166.95z M232.82,164.3c0.77,0,1.45-0.17,2.04-0.51
		s1.06-0.83,1.41-1.48c0.35-0.64,0.52-1.38,0.52-2.21c0-0.85-0.17-1.59-0.52-2.21c-0.35-0.62-0.82-1.11-1.41-1.45
		c-0.59-0.34-1.27-0.51-2.04-0.51c-0.73,0-1.4,0.17-2,0.51c-0.6,0.34-1.08,0.82-1.42,1.45c-0.35,0.62-0.53,1.36-0.53,2.21
		c0,0.83,0.17,1.57,0.53,2.21c0.35,0.64,0.82,1.13,1.42,1.48C231.42,164.13,232.09,164.3,232.82,164.3z"/>
	<path class="st2" d="M241.17,156.02v-2.5h8.9v2.5H241.17z M247.97,166.95c-1.47,0-2.6-0.38-3.4-1.14s-1.2-1.87-1.2-3.34v-12h3.1
		v11.9c0,0.63,0.17,1.12,0.5,1.48c0.33,0.35,0.8,0.52,1.4,0.52c0.68,0,1.25-0.18,1.7-0.55l0.9,2.23c-0.38,0.3-0.84,0.52-1.38,0.68
		C249.06,166.87,248.52,166.95,247.97,166.95z"/>
	<path class="st2" d="M259.37,166.95c-1.48,0-2.78-0.3-3.89-0.89c-1.11-0.59-1.97-1.4-2.58-2.43c-0.61-1.02-0.91-2.2-0.91-3.54
		s0.3-2.51,0.89-3.54c0.59-1.02,1.41-1.83,2.45-2.43c1.04-0.59,2.23-0.89,3.56-0.89c1.3,0,2.46,0.29,3.48,0.86
		c1.02,0.58,1.82,1.38,2.4,2.41c0.58,1.03,0.88,2.26,0.88,3.67c0,0.12,0,0.26-0.01,0.44c-0.01,0.18-0.02,0.33-0.04,0.46h-11.12
		v-2.08h9.48l-1.25,0.65c0.02-0.75-0.14-1.42-0.46-2.01s-0.77-1.05-1.34-1.38c-0.57-0.33-1.23-0.49-2-0.49
		c-0.75,0-1.42,0.16-2.01,0.49c-0.59,0.32-1.05,0.79-1.36,1.39s-0.47,1.29-0.47,2.08v0.5c0,0.8,0.18,1.51,0.54,2.12
		s0.87,1.1,1.54,1.44c0.67,0.34,1.44,0.51,2.33,0.51c0.75,0,1.42-0.12,2.02-0.38c0.6-0.25,1.13-0.62,1.6-1.1l1.7,1.95
		c-0.62,0.7-1.38,1.23-2.29,1.6C261.58,166.76,260.54,166.95,259.37,166.95z"/>
	<path class="st2" d="M276.22,153.25c1.08,0,2.04,0.21,2.86,0.62s1.48,1.06,1.98,1.92c0.49,0.87,0.74,1.98,0.74,3.33v7.65h-3.12
		v-7.25c0-1.18-0.28-2.07-0.83-2.65s-1.33-0.88-2.35-0.88c-0.73,0-1.38,0.15-1.95,0.45c-0.57,0.3-1,0.75-1.31,1.34
		c-0.31,0.59-0.46,1.34-0.46,2.24v6.75h-3.1v-13.35h2.97v3.62l-0.52-1.12c0.45-0.85,1.12-1.51,2.01-1.98
		C274.02,153.48,275.05,153.25,276.22,153.25z"/>
	<path class="st2" d="M291.92,166.95c-1.4,0-2.65-0.3-3.74-0.89c-1.09-0.59-1.95-1.4-2.56-2.43c-0.62-1.02-0.92-2.2-0.92-3.54
		c0-1.35,0.31-2.53,0.92-3.55c0.62-1.02,1.47-1.82,2.56-2.41c1.09-0.59,2.34-0.89,3.74-0.89c1.28,0,2.42,0.27,3.42,0.8
		c1,0.53,1.75,1.31,2.25,2.33l-2.38,1.4c-0.4-0.62-0.89-1.08-1.46-1.39c-0.58-0.31-1.2-0.46-1.86-0.46c-0.77,0-1.46,0.17-2.08,0.51
		c-0.62,0.34-1.1,0.82-1.45,1.45s-0.53,1.36-0.53,2.21c0,0.85,0.18,1.59,0.53,2.22c0.35,0.63,0.83,1.12,1.45,1.46
		c0.62,0.34,1.31,0.51,2.08,0.51c0.67,0,1.29-0.15,1.86-0.46c0.58-0.31,1.06-0.78,1.46-1.41l2.38,1.4c-0.5,1-1.25,1.77-2.25,2.31
		C294.34,166.68,293.2,166.95,291.92,166.95z"/>
	<path class="st2" d="M301.77,151.22c-0.58,0-1.06-0.18-1.44-0.55c-0.38-0.37-0.56-0.82-0.56-1.35c0-0.5,0.19-0.93,0.56-1.3
		c0.38-0.37,0.85-0.55,1.44-0.55c0.58,0,1.06,0.17,1.44,0.51c0.38,0.34,0.56,0.78,0.56,1.31c0,0.53-0.18,0.99-0.55,1.36
		C302.85,151.03,302.37,151.22,301.77,151.22z M300.22,166.77v-13.35h3.1v13.35H300.22z"/>
	<path class="st2" d="M313.42,166.95c-1.35,0-2.56-0.3-3.64-0.89c-1.07-0.59-1.92-1.4-2.54-2.44c-0.62-1.03-0.92-2.21-0.92-3.52
		c0-1.35,0.31-2.53,0.92-3.55c0.62-1.02,1.46-1.82,2.53-2.41c1.07-0.59,2.28-0.89,3.65-0.89c1.38,0,2.61,0.3,3.69,0.89
		c1.08,0.59,1.92,1.4,2.53,2.41c0.61,1.02,0.91,2.2,0.91,3.55c0,1.33-0.3,2.51-0.91,3.54c-0.61,1.03-1.45,1.83-2.54,2.43
		C316.01,166.65,314.79,166.95,313.42,166.95z M313.42,164.3c0.77,0,1.45-0.17,2.05-0.51c0.6-0.34,1.07-0.83,1.41-1.48
		c0.34-0.64,0.51-1.38,0.51-2.21c0-0.85-0.17-1.59-0.51-2.21c-0.34-0.62-0.81-1.11-1.41-1.45c-0.6-0.34-1.27-0.51-2.02-0.51
		s-1.42,0.17-2.03,0.51c-0.6,0.34-1.08,0.82-1.42,1.45s-0.53,1.36-0.53,2.21c0,0.83,0.18,1.57,0.53,2.21s0.83,1.13,1.42,1.48
		C312.02,164.13,312.69,164.3,313.42,164.3z M311.29,151.6l3.38-3.43h3.7L314,151.6H311.29z"/>
	<path class="st2" d="M331.12,153.25c1.08,0,2.04,0.21,2.86,0.62s1.48,1.06,1.98,1.92c0.49,0.87,0.74,1.98,0.74,3.33v7.65h-3.12
		v-7.25c0-1.18-0.28-2.07-0.83-2.65s-1.33-0.88-2.35-0.88c-0.73,0-1.38,0.15-1.95,0.45c-0.57,0.3-1,0.75-1.31,1.34
		c-0.31,0.59-0.46,1.34-0.46,2.24v6.75h-3.1v-13.35h2.97v3.62l-0.52-1.12c0.45-0.85,1.12-1.51,2.01-1.98
		C328.92,153.48,329.95,153.25,331.12,153.25z"/>
	<path class="st2" d="M353.22,166.95c-1.28,0-2.44-0.28-3.46-0.85c-1.02-0.57-1.83-1.36-2.41-2.39c-0.58-1.02-0.88-2.23-0.88-3.61
		c0-1.37,0.29-2.57,0.88-3.6c0.58-1.03,1.39-1.83,2.41-2.4c1.03-0.57,2.18-0.85,3.46-0.85c1.12,0,2.12,0.25,3,0.74
		c0.88,0.49,1.58,1.24,2.1,2.25c0.52,1.01,0.78,2.3,0.78,3.86c0,1.55-0.25,2.83-0.75,3.85c-0.5,1.02-1.19,1.77-2.06,2.26
		C355.41,166.7,354.39,166.95,353.22,166.95z M353.59,164.3c0.75,0,1.42-0.17,2.01-0.51c0.59-0.34,1.07-0.83,1.42-1.48
		s0.54-1.38,0.54-2.21c0-0.85-0.18-1.59-0.54-2.21s-0.83-1.11-1.42-1.45c-0.59-0.34-1.26-0.51-2.01-0.51s-1.42,0.17-2.01,0.51
		c-0.59,0.34-1.07,0.82-1.42,1.45s-0.54,1.36-0.54,2.21c0,0.83,0.18,1.57,0.54,2.21s0.83,1.13,1.42,1.48S352.84,164.3,353.59,164.3z
		 M357.67,166.77v-3.15l0.07-3.55l-0.25-3.55v-8.3h3.15v18.55H357.67z"/>
	<path class="st2" d="M371.02,166.95c-1.48,0-2.78-0.3-3.89-0.89c-1.11-0.59-1.97-1.4-2.58-2.43c-0.61-1.02-0.91-2.2-0.91-3.54
		s0.3-2.51,0.89-3.54c0.59-1.02,1.41-1.83,2.45-2.43c1.04-0.59,2.23-0.89,3.56-0.89c1.3,0,2.46,0.29,3.48,0.86
		c1.02,0.58,1.82,1.38,2.4,2.41c0.58,1.03,0.88,2.26,0.88,3.67c0,0.12,0,0.26-0.01,0.44c-0.01,0.18-0.02,0.33-0.04,0.46h-11.12
		v-2.08h9.48l-1.25,0.65c0.02-0.75-0.14-1.42-0.46-2.01s-0.77-1.05-1.34-1.38c-0.57-0.33-1.23-0.49-2-0.49
		c-0.75,0-1.42,0.16-2.01,0.49c-0.59,0.32-1.05,0.79-1.36,1.39s-0.47,1.29-0.47,2.08v0.5c0,0.8,0.18,1.51,0.54,2.12
		s0.87,1.1,1.54,1.44c0.67,0.34,1.44,0.51,2.33,0.51c0.75,0,1.42-0.12,2.02-0.38c0.6-0.25,1.13-0.62,1.6-1.1l1.7,1.95
		c-0.62,0.7-1.38,1.23-2.29,1.6C373.22,166.76,372.19,166.95,371.02,166.95z"/>
	<path class="st2" d="M118.17,186.02v-2.5h8.9v2.5H118.17z M120.37,196.77V182.7c0-1.42,0.41-2.55,1.24-3.39
		c0.83-0.84,2-1.26,3.54-1.26c0.55,0,1.07,0.06,1.56,0.18c0.49,0.12,0.9,0.3,1.24,0.55l-0.88,2.33c-0.22-0.15-0.47-0.28-0.77-0.38
		c-0.3-0.1-0.61-0.15-0.92-0.15c-0.65,0-1.14,0.18-1.48,0.54c-0.33,0.36-0.5,0.89-0.5,1.59v1.55l0.08,1.38v11.15H120.37z
		 M130.85,181.22c-0.58,0-1.06-0.18-1.44-0.55c-0.38-0.37-0.56-0.82-0.56-1.35c0-0.5,0.19-0.93,0.56-1.3
		c0.38-0.37,0.85-0.55,1.44-0.55c0.58,0,1.06,0.17,1.44,0.51c0.38,0.34,0.56,0.78,0.56,1.31c0,0.53-0.18,0.99-0.55,1.36
		S131.45,181.22,130.85,181.22z M129.3,196.77v-13.35h3.1v13.35H129.3z"/>
	<path class="st2" d="M144.07,183.25c1.08,0,2.04,0.21,2.86,0.62c0.83,0.42,1.48,1.06,1.98,1.92c0.49,0.87,0.74,1.98,0.74,3.33v7.65
		h-3.12v-7.25c0-1.18-0.28-2.07-0.83-2.65s-1.33-0.88-2.35-0.88c-0.73,0-1.38,0.15-1.95,0.45c-0.57,0.3-1,0.75-1.31,1.34
		c-0.31,0.59-0.46,1.34-0.46,2.24v6.75h-3.1v-13.35h2.97v3.62l-0.52-1.12c0.45-0.85,1.12-1.51,2.01-1.98
		C141.88,183.48,142.91,183.25,144.07,183.25z"/>
	<path class="st2" d="M157.65,196.95c-1,0-1.88-0.17-2.62-0.51s-1.33-0.82-1.74-1.43c-0.41-0.61-0.61-1.3-0.61-2.06
		c0-0.75,0.18-1.42,0.54-2.02c0.36-0.6,0.95-1.07,1.76-1.42c0.82-0.35,1.9-0.52,3.25-0.52h3.88v2.07h-3.65
		c-1.05,0-1.76,0.17-2.14,0.51c-0.38,0.34-0.56,0.77-0.56,1.29c0,0.55,0.23,0.99,0.68,1.32c0.45,0.33,1.07,0.5,1.88,0.5
		c0.77,0,1.45-0.17,2.06-0.52c0.61-0.35,1.05-0.87,1.34-1.55l0.5,1.88c-0.3,0.78-0.83,1.39-1.6,1.82
		C159.83,196.73,158.85,196.95,157.65,196.95z M161.85,196.77v-2.73l-0.15-0.55v-4.73c0-0.92-0.28-1.63-0.84-2.14
		c-0.56-0.51-1.4-0.76-2.54-0.76c-0.73,0-1.46,0.12-2.17,0.35c-0.72,0.23-1.33,0.56-1.85,0.97l-1.23-2.27
		c0.73-0.55,1.59-0.97,2.58-1.25c0.98-0.28,2.01-0.42,3.07-0.42c1.95,0,3.45,0.47,4.5,1.4c1.05,0.93,1.58,2.37,1.58,4.3v7.83H161.85
		z"/>
	<path class="st2" d="M176.37,183.25c1.08,0,2.04,0.21,2.86,0.62c0.83,0.42,1.48,1.06,1.98,1.92c0.49,0.87,0.74,1.98,0.74,3.33v7.65
		h-3.12v-7.25c0-1.18-0.28-2.07-0.83-2.65s-1.33-0.88-2.35-0.88c-0.73,0-1.38,0.15-1.95,0.45c-0.57,0.3-1,0.75-1.31,1.34
		c-0.31,0.59-0.46,1.34-0.46,2.24v6.75h-3.1v-13.35h2.97v3.62l-0.52-1.12c0.45-0.85,1.12-1.51,2.01-1.98
		C174.18,183.48,175.21,183.25,176.37,183.25z"/>
	<path class="st2" d="M192.07,196.95c-1.4,0-2.65-0.3-3.74-0.89c-1.09-0.59-1.95-1.4-2.56-2.43c-0.62-1.02-0.92-2.2-0.92-3.54
		c0-1.35,0.31-2.53,0.92-3.55c0.62-1.02,1.47-1.82,2.56-2.41c1.09-0.59,2.34-0.89,3.74-0.89c1.28,0,2.43,0.27,3.43,0.8
		c1,0.53,1.75,1.31,2.25,2.33l-2.38,1.4c-0.4-0.62-0.89-1.08-1.46-1.39c-0.58-0.31-1.2-0.46-1.86-0.46c-0.77,0-1.46,0.17-2.07,0.51
		c-0.62,0.34-1.1,0.82-1.45,1.45s-0.52,1.36-0.52,2.21c0,0.85,0.17,1.59,0.52,2.22c0.35,0.63,0.83,1.12,1.45,1.46
		c0.62,0.34,1.31,0.51,2.07,0.51c0.67,0,1.29-0.15,1.86-0.46c0.57-0.31,1.06-0.78,1.46-1.41l2.38,1.4c-0.5,1-1.25,1.77-2.25,2.31
		C194.5,196.68,193.36,196.95,192.07,196.95z"/>
	<path class="st2" d="M201.92,181.22c-0.58,0-1.06-0.18-1.44-0.55c-0.38-0.37-0.56-0.82-0.56-1.35c0-0.5,0.19-0.93,0.56-1.3
		c0.38-0.37,0.85-0.55,1.44-0.55c0.58,0,1.06,0.17,1.44,0.51c0.38,0.34,0.56,0.78,0.56,1.31c0,0.53-0.18,0.99-0.55,1.36
		C203.01,181.03,202.52,181.22,201.92,181.22z M200.37,196.77v-13.35h3.1v13.35H200.37z"/>
	<path class="st2" d="M211.6,196.95c-1,0-1.88-0.17-2.62-0.51s-1.33-0.82-1.74-1.43c-0.41-0.61-0.61-1.3-0.61-2.06
		c0-0.75,0.18-1.42,0.54-2.02c0.36-0.6,0.95-1.07,1.76-1.42c0.82-0.35,1.9-0.52,3.25-0.52h3.88v2.07h-3.65
		c-1.05,0-1.76,0.17-2.14,0.51c-0.38,0.34-0.56,0.77-0.56,1.29c0,0.55,0.23,0.99,0.68,1.32c0.45,0.33,1.07,0.5,1.88,0.5
		c0.77,0,1.45-0.17,2.06-0.52c0.61-0.35,1.05-0.87,1.34-1.55l0.5,1.88c-0.3,0.78-0.83,1.39-1.6,1.82
		C213.78,196.73,212.8,196.95,211.6,196.95z M215.8,196.77v-2.73l-0.15-0.55v-4.73c0-0.92-0.28-1.63-0.84-2.14
		c-0.56-0.51-1.4-0.76-2.54-0.76c-0.73,0-1.46,0.12-2.17,0.35c-0.72,0.23-1.33,0.56-1.85,0.97l-1.23-2.27
		c0.73-0.55,1.59-0.97,2.58-1.25c0.98-0.28,2.01-0.42,3.07-0.42c1.95,0,3.45,0.47,4.5,1.4c1.05,0.93,1.58,2.37,1.58,4.3v7.83H215.8z
		"/>
	<path class="st2" d="M239.6,183.25c1.07,0,2.01,0.21,2.84,0.62c0.82,0.42,1.47,1.06,1.94,1.92c0.47,0.87,0.7,1.98,0.7,3.33v7.65
		h-3.1v-7.25c0-1.18-0.26-2.07-0.79-2.65s-1.27-0.88-2.24-0.88c-0.68,0-1.29,0.15-1.81,0.45c-0.53,0.3-0.93,0.75-1.22,1.34
		s-0.44,1.33-0.44,2.21v6.77h-3.1v-7.25c0-1.18-0.26-2.07-0.79-2.65c-0.53-0.58-1.27-0.88-2.24-0.88c-0.68,0-1.29,0.15-1.81,0.45
		c-0.53,0.3-0.93,0.75-1.22,1.34c-0.29,0.59-0.44,1.33-0.44,2.21v6.77h-3.1v-13.35h2.97V187l-0.55-1.08
		c0.45-0.85,1.1-1.51,1.96-1.98c0.86-0.47,1.85-0.7,2.96-0.7c1.25,0,2.33,0.31,3.25,0.92c0.92,0.62,1.53,1.57,1.82,2.85l-1.2-0.45
		c0.42-0.98,1.12-1.78,2.12-2.4C237.12,183.56,238.28,183.25,239.6,183.25z"/>
	<path class="st2" d="M250.65,181.22c-0.58,0-1.06-0.18-1.44-0.55c-0.38-0.37-0.56-0.82-0.56-1.35c0-0.5,0.19-0.93,0.56-1.3
		c0.38-0.37,0.85-0.55,1.44-0.55c0.58,0,1.06,0.17,1.44,0.51c0.38,0.34,0.56,0.78,0.56,1.31c0,0.53-0.18,0.99-0.55,1.36
		C251.73,181.03,251.25,181.22,250.65,181.22z M249.1,196.77v-13.35h3.1v13.35H249.1z"/>
	<path class="st2" d="M262.57,196.95c-1.48,0-2.78-0.3-3.89-0.89c-1.11-0.59-1.97-1.4-2.58-2.43c-0.61-1.02-0.91-2.2-0.91-3.54
		s0.3-2.51,0.89-3.54c0.59-1.02,1.41-1.83,2.45-2.43c1.04-0.59,2.23-0.89,3.56-0.89c1.3,0,2.46,0.29,3.48,0.86
		c1.02,0.58,1.82,1.38,2.4,2.41c0.58,1.03,0.88,2.26,0.88,3.67c0,0.12,0,0.26-0.01,0.44c-0.01,0.18-0.02,0.33-0.04,0.46h-11.12
		v-2.08h9.48l-1.25,0.65c0.02-0.75-0.14-1.42-0.46-2.01s-0.77-1.05-1.34-1.38c-0.57-0.33-1.23-0.49-2-0.49
		c-0.75,0-1.42,0.16-2.01,0.49c-0.59,0.32-1.05,0.79-1.36,1.39s-0.47,1.29-0.47,2.08v0.5c0,0.8,0.18,1.51,0.54,2.12
		s0.87,1.1,1.54,1.44c0.67,0.34,1.44,0.51,2.33,0.51c0.75,0,1.42-0.12,2.02-0.38c0.6-0.25,1.13-0.62,1.6-1.1l1.7,1.95
		c-0.62,0.7-1.38,1.23-2.29,1.6C264.78,196.76,263.74,196.95,262.57,196.95z"/>
	<path class="st2" d="M279.42,183.25c1.08,0,2.04,0.21,2.86,0.62s1.48,1.06,1.98,1.92c0.49,0.87,0.74,1.98,0.74,3.33v7.65h-3.12
		v-7.25c0-1.18-0.28-2.07-0.83-2.65s-1.33-0.88-2.35-0.88c-0.73,0-1.38,0.15-1.95,0.45c-0.57,0.3-1,0.75-1.31,1.34
		c-0.31,0.59-0.46,1.34-0.46,2.24v6.75h-3.1v-13.35h2.97v3.62l-0.52-1.12c0.45-0.85,1.12-1.51,2.01-1.98
		C277.23,183.48,278.26,183.25,279.42,183.25z"/>
	<path class="st2" d="M287.2,186.02v-2.5h8.9v2.5H287.2z M294,196.95c-1.47,0-2.6-0.38-3.4-1.14s-1.2-1.87-1.2-3.34v-12h3.1v11.9
		c0,0.63,0.17,1.12,0.5,1.48c0.33,0.35,0.8,0.52,1.4,0.52c0.68,0,1.25-0.18,1.7-0.55l0.9,2.23c-0.38,0.3-0.84,0.52-1.38,0.68
		C295.09,196.87,294.55,196.95,294,196.95z"/>
	<path class="st2" d="M305.12,196.95c-1.35,0-2.56-0.3-3.64-0.89c-1.07-0.59-1.92-1.4-2.54-2.44c-0.62-1.03-0.92-2.21-0.92-3.52
		c0-1.35,0.31-2.53,0.92-3.55c0.62-1.02,1.46-1.82,2.53-2.41c1.07-0.59,2.28-0.89,3.65-0.89c1.38,0,2.61,0.3,3.69,0.89
		c1.08,0.59,1.92,1.4,2.53,2.41c0.61,1.02,0.91,2.2,0.91,3.55c0,1.33-0.3,2.51-0.91,3.54c-0.61,1.03-1.45,1.83-2.54,2.43
		C307.71,196.65,306.49,196.95,305.12,196.95z M305.12,194.3c0.77,0,1.45-0.17,2.05-0.51c0.6-0.34,1.07-0.83,1.41-1.48
		c0.34-0.64,0.51-1.38,0.51-2.21c0-0.85-0.17-1.59-0.51-2.21c-0.34-0.62-0.81-1.11-1.41-1.45c-0.6-0.34-1.27-0.51-2.02-0.51
		s-1.42,0.17-2.03,0.51c-0.6,0.34-1.08,0.82-1.42,1.45s-0.53,1.36-0.53,2.21c0,0.83,0.18,1.57,0.53,2.21s0.83,1.13,1.42,1.48
		C303.72,194.13,304.39,194.3,305.12,194.3z"/>
	<path class="st2" d="M314.17,200.57l1.43-5.57l0.47,1.88c-0.6,0-1.1-0.18-1.49-0.54s-0.59-0.85-0.59-1.49
		c0-0.62,0.2-1.11,0.59-1.49s0.87-0.56,1.44-0.56c0.6,0,1.09,0.19,1.46,0.58s0.56,0.88,0.56,1.48c0,0.18-0.02,0.37-0.05,0.56
		s-0.09,0.41-0.17,0.66c-0.08,0.25-0.2,0.57-0.35,0.95l-1.3,3.55H314.17z"/>
	<path class="st2" d="M63.01,226.17c-1.28,0-2.43-0.27-3.45-0.81c-1.02-0.54-1.82-1.3-2.41-2.26c-0.59-0.97-0.89-2.09-0.89-3.38
		c0-1.3,0.3-2.44,0.89-3.41c0.59-0.98,1.4-1.73,2.41-2.26c1.02-0.53,2.17-0.8,3.45-0.8c1.13,0,2.15,0.23,3.06,0.69
		c0.91,0.46,1.63,1.16,2.16,2.11c0.53,0.95,0.8,2.18,0.8,3.68c0,1.47-0.27,2.67-0.8,3.62c-0.53,0.95-1.25,1.66-2.16,2.12
		C65.17,225.94,64.15,226.17,63.01,226.17z M63.41,231.8c-1.25,0-2.45-0.16-3.61-0.49c-1.16-0.33-2.12-0.8-2.89-1.44l1.4-2.33
		c0.58,0.48,1.32,0.88,2.2,1.18c0.88,0.3,1.8,0.45,2.75,0.45c1.45,0,2.52-0.34,3.2-1.01c0.68-0.68,1.02-1.7,1.02-3.06v-2.38l0.25-3
		l-0.1-3.03v-3.27h2.97v11.33c0,2.42-0.62,4.2-1.85,5.34C67.53,231.23,65.75,231.8,63.41,231.8z M63.49,223.52
		c0.78,0,1.48-0.16,2.1-0.49c0.62-0.33,1.1-0.78,1.44-1.35c0.34-0.58,0.51-1.23,0.51-1.96c0-0.77-0.17-1.43-0.51-2
		c-0.34-0.57-0.82-1.01-1.44-1.33c-0.62-0.32-1.32-0.48-2.1-0.48s-1.49,0.16-2.11,0.48c-0.62,0.32-1.11,0.76-1.45,1.33
		s-0.51,1.23-0.51,2c0,0.73,0.17,1.39,0.51,1.96c0.34,0.57,0.83,1.02,1.45,1.35C62,223.36,62.7,223.52,63.49,223.52z"/>
	<path class="st2" d="M80.99,226.95c-1.48,0-2.78-0.3-3.89-0.89c-1.11-0.59-1.97-1.4-2.58-2.43c-0.61-1.02-0.91-2.2-0.91-3.54
		s0.3-2.51,0.89-3.54c0.59-1.02,1.41-1.83,2.45-2.43c1.04-0.59,2.23-0.89,3.56-0.89c1.3,0,2.46,0.29,3.48,0.86
		c1.02,0.58,1.82,1.38,2.4,2.41c0.58,1.03,0.88,2.26,0.88,3.67c0,0.12,0,0.26-0.01,0.44c-0.01,0.18-0.02,0.33-0.04,0.46H76.09v-2.08
		h9.48l-1.25,0.65c0.02-0.75-0.14-1.42-0.46-2.01s-0.77-1.05-1.34-1.38c-0.57-0.33-1.23-0.49-2-0.49c-0.75,0-1.42,0.16-2.01,0.49
		c-0.59,0.32-1.05,0.79-1.36,1.39c-0.32,0.6-0.48,1.29-0.48,2.08v0.5c0,0.8,0.18,1.51,0.54,2.12c0.36,0.62,0.87,1.1,1.54,1.44
		c0.67,0.34,1.44,0.51,2.32,0.51c0.75,0,1.43-0.12,2.02-0.38c0.6-0.25,1.13-0.62,1.6-1.1l1.7,1.95c-0.62,0.7-1.38,1.23-2.29,1.6
		C83.19,226.76,82.15,226.95,80.99,226.95z"/>
	<path class="st2" d="M97.84,213.25c1.08,0,2.04,0.21,2.86,0.62c0.83,0.42,1.48,1.06,1.98,1.92c0.49,0.87,0.74,1.98,0.74,3.33v7.65
		h-3.12v-7.25c0-1.18-0.28-2.07-0.83-2.65S98.13,216,97.11,216c-0.73,0-1.38,0.15-1.95,0.45c-0.57,0.3-1,0.75-1.31,1.34
		c-0.31,0.59-0.46,1.34-0.46,2.24v6.75h-3.1v-13.35h2.97v3.62l-0.52-1.12c0.45-0.85,1.12-1.51,2.01-1.98
		C95.64,213.48,96.67,213.25,97.84,213.25z"/>
	<path class="st2" d="M113.69,226.95c-1.48,0-2.78-0.3-3.89-0.89c-1.11-0.59-1.97-1.4-2.58-2.43c-0.61-1.02-0.91-2.2-0.91-3.54
		s0.3-2.51,0.89-3.54c0.59-1.02,1.41-1.83,2.45-2.43c1.04-0.59,2.23-0.89,3.56-0.89c1.3,0,2.46,0.29,3.48,0.86
		c1.02,0.58,1.82,1.38,2.4,2.41c0.58,1.03,0.88,2.26,0.88,3.67c0,0.12,0,0.26-0.01,0.44c-0.01,0.18-0.02,0.33-0.04,0.46h-11.12
		v-2.08h9.48l-1.25,0.65c0.02-0.75-0.14-1.42-0.46-2.01s-0.77-1.05-1.34-1.38c-0.57-0.33-1.23-0.49-2-0.49
		c-0.75,0-1.42,0.16-2.01,0.49c-0.59,0.32-1.05,0.79-1.36,1.39c-0.32,0.6-0.48,1.29-0.48,2.08v0.5c0,0.8,0.18,1.51,0.54,2.12
		c0.36,0.62,0.87,1.1,1.54,1.44c0.67,0.34,1.44,0.51,2.32,0.51c0.75,0,1.43-0.12,2.02-0.38c0.6-0.25,1.13-0.62,1.6-1.1l1.7,1.95
		c-0.62,0.7-1.38,1.23-2.29,1.6C115.89,226.76,114.85,226.95,113.69,226.95z"/>
	<path class="st2" d="M122.99,226.77v-13.35h2.97v3.68l-0.35-1.08c0.38-0.9,1.01-1.59,1.88-2.06c0.87-0.48,1.92-0.71,3.17-0.71v2.98
		c-0.12-0.02-0.23-0.03-0.35-0.04s-0.23-0.01-0.32-0.01c-1.2,0-2.15,0.34-2.85,1.02c-0.7,0.68-1.05,1.73-1.05,3.12v6.45H122.99z"/>
	<path class="st2" d="M136.41,226.95c-1,0-1.88-0.17-2.62-0.51s-1.33-0.82-1.74-1.43c-0.41-0.61-0.61-1.3-0.61-2.06
		c0-0.75,0.18-1.42,0.54-2.02c0.36-0.6,0.95-1.07,1.76-1.42c0.82-0.35,1.9-0.52,3.25-0.52h3.88v2.07h-3.65
		c-1.05,0-1.76,0.17-2.14,0.51c-0.38,0.34-0.56,0.77-0.56,1.29c0,0.55,0.23,0.99,0.68,1.32c0.45,0.33,1.07,0.5,1.88,0.5
		c0.77,0,1.45-0.17,2.06-0.52c0.61-0.35,1.05-0.87,1.34-1.55l0.5,1.88c-0.3,0.78-0.83,1.39-1.6,1.82
		C138.59,226.73,137.61,226.95,136.41,226.95z M140.61,226.77v-2.73l-0.15-0.55v-4.73c0-0.92-0.28-1.63-0.84-2.14
		c-0.56-0.51-1.4-0.76-2.54-0.76c-0.73,0-1.46,0.12-2.17,0.35c-0.72,0.23-1.33,0.56-1.85,0.97l-1.23-2.27
		c0.73-0.55,1.59-0.97,2.58-1.25c0.98-0.28,2.01-0.42,3.07-0.42c1.95,0,3.45,0.47,4.5,1.4c1.05,0.93,1.58,2.37,1.58,4.3v7.83H140.61
		z"/>
	<path class="st2" d="M155.14,213.25c1.08,0,2.04,0.21,2.86,0.62c0.83,0.42,1.48,1.06,1.98,1.92c0.49,0.87,0.74,1.98,0.74,3.33v7.65
		h-3.12v-7.25c0-1.18-0.28-2.07-0.83-2.65s-1.33-0.88-2.35-0.88c-0.73,0-1.38,0.15-1.95,0.45c-0.57,0.3-1,0.75-1.31,1.34
		c-0.31,0.59-0.46,1.34-0.46,2.24v6.75h-3.1v-13.35h2.97v3.62l-0.52-1.12c0.45-0.85,1.12-1.51,2.01-1.98
		C152.94,213.48,153.97,213.25,155.14,213.25z"/>
	<path class="st2" d="M170.36,226.95c-1.28,0-2.44-0.28-3.46-0.85c-1.02-0.57-1.83-1.36-2.41-2.39c-0.58-1.02-0.88-2.23-0.88-3.61
		c0-1.37,0.29-2.57,0.88-3.6c0.58-1.03,1.39-1.83,2.41-2.4c1.03-0.57,2.18-0.85,3.46-0.85c1.12,0,2.12,0.25,3,0.74
		c0.88,0.49,1.58,1.24,2.1,2.25c0.52,1.01,0.78,2.3,0.78,3.86c0,1.55-0.25,2.83-0.75,3.85c-0.5,1.02-1.19,1.77-2.06,2.26
		C172.55,226.7,171.53,226.95,170.36,226.95z M170.74,224.3c0.75,0,1.42-0.17,2.01-0.51c0.59-0.34,1.07-0.83,1.43-1.48
		c0.36-0.64,0.54-1.38,0.54-2.21c0-0.85-0.18-1.59-0.54-2.21c-0.36-0.62-0.83-1.11-1.43-1.45c-0.59-0.34-1.26-0.51-2.01-0.51
		s-1.42,0.17-2.01,0.51c-0.59,0.34-1.07,0.82-1.42,1.45c-0.36,0.62-0.54,1.36-0.54,2.21c0,0.83,0.18,1.57,0.54,2.21
		c0.36,0.64,0.83,1.13,1.42,1.48C169.31,224.13,169.99,224.3,170.74,224.3z M174.81,226.77v-3.15l0.08-3.55l-0.25-3.55v-8.3h3.15
		v18.55H174.81z"/>
	<path class="st2" d="M187.89,226.95c-1.35,0-2.56-0.3-3.64-0.89c-1.08-0.59-1.92-1.4-2.54-2.44c-0.62-1.03-0.92-2.21-0.92-3.52
		c0-1.35,0.31-2.53,0.92-3.55c0.62-1.02,1.46-1.82,2.52-2.41c1.07-0.59,2.28-0.89,3.65-0.89c1.38,0,2.61,0.3,3.69,0.89
		c1.08,0.59,1.92,1.4,2.53,2.41c0.61,1.02,0.91,2.2,0.91,3.55c0,1.33-0.3,2.51-0.91,3.54c-0.61,1.03-1.45,1.83-2.54,2.43
		C190.48,226.65,189.25,226.95,187.89,226.95z M187.89,224.3c0.77,0,1.45-0.17,2.05-0.51s1.07-0.83,1.41-1.48
		c0.34-0.64,0.51-1.38,0.51-2.21c0-0.85-0.17-1.59-0.51-2.21c-0.34-0.62-0.81-1.11-1.41-1.45c-0.6-0.34-1.27-0.51-2.02-0.51
		s-1.43,0.17-2.03,0.51c-0.6,0.34-1.07,0.82-1.42,1.45s-0.52,1.36-0.52,2.21c0,0.83,0.17,1.57,0.52,2.21s0.83,1.13,1.42,1.48
		C186.49,224.13,187.15,224.3,187.89,224.3z"/>
	<path class="st2" d="M209.06,226.95c-1.13,0-2.21-0.15-3.23-0.44c-1.02-0.29-1.83-0.65-2.45-1.06l1.2-2.38
		c0.6,0.38,1.32,0.7,2.15,0.94c0.83,0.24,1.67,0.36,2.52,0.36c0.97,0,1.67-0.13,2.11-0.39c0.44-0.26,0.66-0.61,0.66-1.06
		c0-0.37-0.15-0.65-0.45-0.84c-0.3-0.19-0.69-0.34-1.18-0.44s-1.02-0.19-1.61-0.27c-0.59-0.08-1.18-0.2-1.77-0.34
		c-0.59-0.14-1.13-0.35-1.61-0.62c-0.48-0.28-0.88-0.65-1.17-1.11c-0.3-0.47-0.45-1.09-0.45-1.88c0-0.83,0.24-1.56,0.73-2.19
		s1.16-1.11,2.04-1.46s1.91-0.52,3.11-0.52c0.88,0,1.79,0.1,2.71,0.31c0.92,0.21,1.7,0.5,2.31,0.86l-1.23,2.38
		c-0.62-0.37-1.25-0.62-1.9-0.76c-0.65-0.14-1.29-0.21-1.93-0.21c-0.93,0-1.63,0.14-2.1,0.41s-0.7,0.63-0.7,1.06
		c0,0.4,0.15,0.7,0.45,0.9c0.3,0.2,0.69,0.35,1.18,0.46c0.48,0.11,1.02,0.21,1.61,0.3c0.59,0.09,1.18,0.21,1.76,0.35
		c0.58,0.14,1.12,0.34,1.61,0.6s0.89,0.62,1.19,1.09c0.3,0.47,0.45,1.07,0.45,1.82c0,0.85-0.25,1.58-0.74,2.19
		c-0.49,0.61-1.18,1.08-2.07,1.43C211.38,226.78,210.31,226.95,209.06,226.95z"/>
	<path class="st2" d="M219.36,211.22c-0.58,0-1.06-0.18-1.44-0.55c-0.38-0.37-0.56-0.82-0.56-1.35c0-0.5,0.19-0.93,0.56-1.3
		c0.38-0.37,0.85-0.55,1.44-0.55c0.58,0,1.06,0.17,1.44,0.51c0.37,0.34,0.56,0.78,0.56,1.31c0,0.53-0.18,0.99-0.55,1.36
		C220.44,211.03,219.96,211.22,219.36,211.22z M217.81,226.77v-13.35h3.1v13.35H217.81z"/>
	<path class="st2" d="M232.58,213.25c1.08,0,2.04,0.21,2.86,0.62s1.48,1.06,1.98,1.92c0.49,0.87,0.74,1.98,0.74,3.33v7.65h-3.12
		v-7.25c0-1.18-0.28-2.07-0.83-2.65s-1.33-0.88-2.35-0.88c-0.73,0-1.38,0.15-1.95,0.45c-0.57,0.3-1,0.75-1.31,1.34
		c-0.31,0.59-0.46,1.34-0.46,2.24v6.75h-3.1v-13.35h2.97v3.62l-0.52-1.12c0.45-0.85,1.12-1.51,2.01-1.98
		C230.39,213.48,231.42,213.25,232.58,213.25z"/>
	<path class="st2" d="M248.43,226.95c-1.48,0-2.78-0.3-3.89-0.89c-1.11-0.59-1.97-1.4-2.58-2.43c-0.61-1.02-0.91-2.2-0.91-3.54
		s0.3-2.51,0.89-3.54c0.59-1.02,1.41-1.83,2.45-2.43c1.04-0.59,2.23-0.89,3.56-0.89c1.3,0,2.46,0.29,3.48,0.86
		c1.02,0.58,1.82,1.38,2.4,2.41c0.58,1.03,0.88,2.26,0.88,3.67c0,0.12,0,0.26-0.01,0.44c-0.01,0.18-0.02,0.33-0.04,0.46h-11.12
		v-2.08h9.48l-1.25,0.65c0.02-0.75-0.14-1.42-0.46-2.01s-0.77-1.05-1.34-1.38c-0.57-0.33-1.23-0.49-2-0.49
		c-0.75,0-1.42,0.16-2.01,0.49c-0.59,0.32-1.05,0.79-1.36,1.39s-0.47,1.29-0.47,2.08v0.5c0,0.8,0.18,1.51,0.54,2.12
		s0.87,1.1,1.54,1.44c0.67,0.34,1.44,0.51,2.33,0.51c0.75,0,1.42-0.12,2.02-0.38c0.6-0.25,1.13-0.62,1.6-1.1l1.7,1.95
		c-0.62,0.7-1.38,1.23-2.29,1.6C250.64,226.76,249.6,226.95,248.43,226.95z"/>
	<path class="st2" d="M257.73,226.77v-13.35h2.97v3.68l-0.35-1.08c0.38-0.9,1.01-1.59,1.88-2.06c0.87-0.48,1.92-0.71,3.17-0.71v2.98
		c-0.12-0.02-0.23-0.03-0.35-0.04c-0.12-0.01-0.23-0.01-0.33-0.01c-1.2,0-2.15,0.34-2.85,1.02c-0.7,0.68-1.05,1.73-1.05,3.12v6.45
		H257.73z"/>
	<path class="st2" d="M273.61,226.17c-1.28,0-2.43-0.27-3.45-0.81c-1.02-0.54-1.82-1.3-2.41-2.26c-0.59-0.97-0.89-2.09-0.89-3.38
		c0-1.3,0.3-2.44,0.89-3.41c0.59-0.98,1.4-1.73,2.41-2.26c1.02-0.53,2.17-0.8,3.45-0.8c1.13,0,2.15,0.23,3.06,0.69
		c0.91,0.46,1.63,1.16,2.16,2.11c0.53,0.95,0.8,2.18,0.8,3.68c0,1.47-0.27,2.67-0.8,3.62c-0.53,0.95-1.25,1.66-2.16,2.12
		C275.76,225.94,274.74,226.17,273.61,226.17z M274.01,231.8c-1.25,0-2.45-0.16-3.61-0.49c-1.16-0.33-2.12-0.8-2.89-1.44l1.4-2.33
		c0.58,0.48,1.32,0.88,2.2,1.18c0.88,0.3,1.8,0.45,2.75,0.45c1.45,0,2.52-0.34,3.2-1.01c0.68-0.68,1.02-1.7,1.02-3.06v-2.38l0.25-3
		l-0.1-3.03v-3.27h2.97v11.33c0,2.42-0.62,4.2-1.85,5.34S276.34,231.8,274.01,231.8z M274.08,223.52c0.78,0,1.48-0.16,2.1-0.49
		c0.62-0.33,1.1-0.78,1.44-1.35c0.34-0.58,0.51-1.23,0.51-1.96c0-0.77-0.17-1.43-0.51-2c-0.34-0.57-0.82-1.01-1.44-1.33
		c-0.62-0.32-1.32-0.48-2.1-0.48s-1.49,0.16-2.11,0.48c-0.62,0.32-1.11,0.76-1.45,1.33s-0.51,1.23-0.51,2
		c0,0.73,0.17,1.39,0.51,1.96c0.34,0.57,0.83,1.02,1.45,1.35C272.6,223.36,273.3,223.52,274.08,223.52z"/>
	<path class="st2" d="M286.88,211.22c-0.58,0-1.06-0.18-1.44-0.55c-0.38-0.37-0.56-0.82-0.56-1.35c0-0.5,0.19-0.93,0.56-1.3
		c0.38-0.37,0.85-0.55,1.44-0.55c0.58,0,1.06,0.17,1.44,0.51c0.38,0.34,0.56,0.78,0.56,1.31c0,0.53-0.18,0.99-0.55,1.36
		C287.97,211.03,287.48,211.22,286.88,211.22z M285.33,226.77v-13.35h3.1v13.35H285.33z"/>
	<path class="st2" d="M296.56,226.95c-1,0-1.88-0.17-2.62-0.51s-1.33-0.82-1.74-1.43c-0.41-0.61-0.61-1.3-0.61-2.06
		c0-0.75,0.18-1.42,0.54-2.02s0.95-1.07,1.76-1.42c0.82-0.35,1.9-0.52,3.25-0.52h3.88v2.07h-3.65c-1.05,0-1.76,0.17-2.14,0.51
		c-0.38,0.34-0.56,0.77-0.56,1.29c0,0.55,0.23,0.99,0.67,1.32c0.45,0.33,1.08,0.5,1.88,0.5c0.77,0,1.45-0.17,2.06-0.52
		s1.05-0.87,1.34-1.55l0.5,1.88c-0.3,0.78-0.83,1.39-1.6,1.82C298.74,226.73,297.76,226.95,296.56,226.95z M300.76,226.77v-2.73
		l-0.15-0.55v-4.73c0-0.92-0.28-1.63-0.84-2.14c-0.56-0.51-1.4-0.76-2.54-0.76c-0.73,0-1.46,0.12-2.17,0.35
		c-0.72,0.23-1.33,0.56-1.85,0.97l-1.22-2.27c0.73-0.55,1.59-0.97,2.58-1.25c0.98-0.28,2.01-0.42,3.08-0.42
		c1.95,0,3.45,0.47,4.5,1.4c1.05,0.93,1.57,2.37,1.57,4.3v7.83H300.76z"/>
	<path class="st2" d="M320.88,226.95c-1.48,0-2.78-0.3-3.89-0.89c-1.11-0.59-1.97-1.4-2.58-2.43c-0.61-1.02-0.91-2.2-0.91-3.54
		s0.3-2.51,0.89-3.54c0.59-1.02,1.41-1.83,2.45-2.43c1.04-0.59,2.23-0.89,3.56-0.89c1.3,0,2.46,0.29,3.48,0.86
		c1.02,0.58,1.82,1.38,2.4,2.41c0.58,1.03,0.88,2.26,0.88,3.67c0,0.12,0,0.26-0.01,0.44c-0.01,0.18-0.02,0.33-0.04,0.46h-11.12
		v-2.08h9.48l-1.25,0.65c0.02-0.75-0.14-1.42-0.46-2.01s-0.77-1.05-1.34-1.38c-0.57-0.33-1.23-0.49-2-0.49
		c-0.75,0-1.42,0.16-2.01,0.49c-0.59,0.32-1.05,0.79-1.36,1.39s-0.47,1.29-0.47,2.08v0.5c0,0.8,0.18,1.51,0.54,2.12
		s0.87,1.1,1.54,1.44c0.67,0.34,1.44,0.51,2.33,0.51c0.75,0,1.42-0.12,2.02-0.38c0.6-0.25,1.13-0.62,1.6-1.1l1.7,1.95
		c-0.62,0.7-1.38,1.23-2.29,1.6C323.09,226.76,322.05,226.95,320.88,226.95z"/>
	<path class="st2" d="M337.73,213.25c1.08,0,2.04,0.21,2.86,0.62s1.48,1.06,1.98,1.92c0.49,0.87,0.74,1.98,0.74,3.33v7.65h-3.12
		v-7.25c0-1.18-0.28-2.07-0.83-2.65s-1.33-0.88-2.35-0.88c-0.73,0-1.38,0.15-1.95,0.45c-0.57,0.3-1,0.75-1.31,1.34
		c-0.31,0.59-0.46,1.34-0.46,2.24v6.75h-3.1v-13.35h2.97v3.62l-0.52-1.12c0.45-0.85,1.12-1.51,2.01-1.98
		C335.54,213.48,336.57,213.25,337.73,213.25z"/>
	<path class="st2" d="M345.51,216.02v-2.5h8.9v2.5H345.51z M352.31,226.95c-1.47,0-2.6-0.38-3.4-1.14s-1.2-1.87-1.2-3.34v-12h3.1
		v11.9c0,0.63,0.17,1.12,0.5,1.48c0.33,0.35,0.8,0.52,1.4,0.52c0.68,0,1.25-0.18,1.7-0.55l0.9,2.23c-0.38,0.3-0.84,0.52-1.38,0.68
		C353.4,226.87,352.86,226.95,352.31,226.95z"/>
	<path class="st2" d="M357.91,226.77v-13.35h2.97v3.68l-0.35-1.08c0.38-0.9,1.01-1.59,1.88-2.06c0.87-0.48,1.92-0.71,3.17-0.71v2.98
		c-0.12-0.02-0.23-0.03-0.35-0.04c-0.12-0.01-0.23-0.01-0.33-0.01c-1.2,0-2.15,0.34-2.85,1.02c-0.7,0.68-1.05,1.73-1.05,3.12v6.45
		H357.91z"/>
	<path class="st2" d="M374.41,226.95c-1.48,0-2.78-0.3-3.89-0.89c-1.11-0.59-1.97-1.4-2.58-2.43c-0.61-1.02-0.91-2.2-0.91-3.54
		s0.3-2.51,0.89-3.54c0.59-1.02,1.41-1.83,2.45-2.43c1.04-0.59,2.23-0.89,3.56-0.89c1.3,0,2.46,0.29,3.48,0.86
		c1.02,0.58,1.82,1.38,2.4,2.41c0.58,1.03,0.88,2.26,0.88,3.67c0,0.12,0,0.26-0.01,0.44c-0.01,0.18-0.02,0.33-0.04,0.46h-11.12
		v-2.08h9.48l-1.25,0.65c0.02-0.75-0.14-1.42-0.46-2.01s-0.77-1.05-1.34-1.38c-0.57-0.33-1.23-0.49-2-0.49
		c-0.75,0-1.42,0.16-2.01,0.49c-0.59,0.32-1.05,0.79-1.36,1.39s-0.47,1.29-0.47,2.08v0.5c0,0.8,0.18,1.51,0.54,2.12
		s0.87,1.1,1.54,1.44c0.67,0.34,1.44,0.51,2.33,0.51c0.75,0,1.42-0.12,2.02-0.38c0.6-0.25,1.13-0.62,1.6-1.1l1.7,1.95
		c-0.62,0.7-1.38,1.23-2.29,1.6C376.61,226.76,375.57,226.95,374.41,226.95z"/>
	<path class="st2" d="M87.49,256.77v-18.55h3.1v18.55H87.49z"/>
	<path class="st2" d="M100.69,256.95c-1.35,0-2.56-0.3-3.64-0.89c-1.08-0.59-1.92-1.4-2.54-2.44c-0.62-1.03-0.92-2.21-0.92-3.52
		c0-1.35,0.31-2.53,0.92-3.55c0.62-1.02,1.46-1.82,2.52-2.41c1.07-0.59,2.28-0.89,3.65-0.89c1.38,0,2.61,0.3,3.69,0.89
		c1.08,0.59,1.92,1.4,2.53,2.41c0.61,1.02,0.91,2.2,0.91,3.55c0,1.33-0.3,2.51-0.91,3.54c-0.61,1.03-1.45,1.83-2.54,2.43
		C103.28,256.65,102.05,256.95,100.69,256.95z M100.69,254.3c0.77,0,1.45-0.17,2.05-0.51s1.07-0.83,1.41-1.48
		c0.34-0.64,0.51-1.38,0.51-2.21c0-0.85-0.17-1.59-0.51-2.21c-0.34-0.62-0.81-1.11-1.41-1.45c-0.6-0.34-1.27-0.51-2.02-0.51
		s-1.43,0.17-2.03,0.51c-0.6,0.34-1.07,0.82-1.42,1.45s-0.52,1.36-0.52,2.21c0,0.83,0.17,1.57,0.52,2.21s0.83,1.13,1.42,1.48
		C99.29,254.13,99.95,254.3,100.69,254.3z"/>
	<path class="st2" d="M114.96,256.95c-1.13,0-2.21-0.15-3.23-0.44c-1.02-0.29-1.83-0.65-2.45-1.06l1.2-2.38
		c0.6,0.38,1.32,0.7,2.15,0.94c0.83,0.24,1.67,0.36,2.52,0.36c0.97,0,1.67-0.13,2.11-0.39c0.44-0.26,0.66-0.61,0.66-1.06
		c0-0.37-0.15-0.65-0.45-0.84c-0.3-0.19-0.69-0.34-1.18-0.44s-1.02-0.19-1.61-0.27c-0.59-0.08-1.18-0.2-1.77-0.34
		c-0.59-0.14-1.13-0.35-1.61-0.62c-0.48-0.28-0.88-0.65-1.17-1.11c-0.3-0.47-0.45-1.09-0.45-1.88c0-0.83,0.24-1.56,0.73-2.19
		s1.16-1.11,2.04-1.46s1.91-0.52,3.11-0.52c0.88,0,1.79,0.1,2.71,0.31c0.92,0.21,1.7,0.5,2.31,0.86l-1.23,2.38
		c-0.62-0.37-1.25-0.62-1.9-0.76c-0.65-0.14-1.29-0.21-1.93-0.21c-0.93,0-1.63,0.14-2.1,0.41s-0.7,0.63-0.7,1.06
		c0,0.4,0.15,0.7,0.45,0.9c0.3,0.2,0.69,0.35,1.18,0.46c0.48,0.11,1.02,0.21,1.61,0.3c0.59,0.09,1.18,0.21,1.76,0.35
		c0.58,0.14,1.12,0.34,1.61,0.6s0.89,0.62,1.19,1.09c0.3,0.47,0.45,1.07,0.45,1.82c0,0.85-0.25,1.58-0.74,2.19
		c-0.49,0.61-1.18,1.08-2.07,1.43C117.28,256.78,116.21,256.95,114.96,256.95z"/>
	<path class="st2" d="M136.86,256.95c-1.48,0-2.78-0.3-3.89-0.89c-1.11-0.59-1.97-1.4-2.58-2.43c-0.61-1.02-0.91-2.2-0.91-3.54
		s0.3-2.51,0.89-3.54c0.59-1.02,1.41-1.83,2.45-2.43c1.04-0.59,2.23-0.89,3.56-0.89c1.3,0,2.46,0.29,3.48,0.86
		c1.02,0.58,1.82,1.38,2.4,2.41c0.58,1.03,0.88,2.26,0.88,3.67c0,0.12,0,0.26-0.01,0.44c-0.01,0.18-0.02,0.33-0.04,0.46h-11.12
		v-2.08h9.48l-1.25,0.65c0.02-0.75-0.14-1.42-0.46-2.01s-0.77-1.05-1.34-1.38c-0.57-0.33-1.23-0.49-2-0.49
		c-0.75,0-1.42,0.16-2.01,0.49c-0.59,0.32-1.05,0.79-1.36,1.39c-0.32,0.6-0.48,1.29-0.48,2.08v0.5c0,0.8,0.18,1.51,0.54,2.12
		c0.36,0.62,0.87,1.1,1.54,1.44c0.67,0.34,1.44,0.51,2.32,0.51c0.75,0,1.43-0.12,2.02-0.38c0.6-0.25,1.13-0.62,1.6-1.1l1.7,1.95
		c-0.62,0.7-1.38,1.23-2.29,1.6C139.06,256.76,138.03,256.95,136.86,256.95z"/>
	<path class="st2" d="M162.99,243.25c1.07,0,2.01,0.21,2.84,0.62c0.83,0.42,1.47,1.06,1.94,1.92c0.47,0.87,0.7,1.98,0.7,3.33v7.65
		h-3.1v-7.25c0-1.18-0.26-2.07-0.79-2.65c-0.52-0.58-1.27-0.88-2.24-0.88c-0.68,0-1.29,0.15-1.81,0.45
		c-0.52,0.3-0.93,0.75-1.23,1.34s-0.44,1.33-0.44,2.21v6.77h-3.1v-7.25c0-1.18-0.26-2.07-0.79-2.65c-0.53-0.58-1.27-0.88-2.24-0.88
		c-0.68,0-1.29,0.15-1.81,0.45c-0.52,0.3-0.93,0.75-1.23,1.34s-0.44,1.33-0.44,2.21v6.77h-3.1v-13.35h2.97V247l-0.55-1.08
		c0.45-0.85,1.1-1.51,1.96-1.98c0.86-0.47,1.85-0.7,2.96-0.7c1.25,0,2.33,0.31,3.25,0.92c0.92,0.62,1.53,1.57,1.83,2.85l-1.2-0.45
		c0.42-0.98,1.12-1.78,2.12-2.4C160.51,243.56,161.67,243.25,162.99,243.25z"/>
	<path class="st2" d="M172.49,261.62v-18.2h2.97v3.15l-0.12,3.55l0.25,3.55v7.95H172.49z M179.86,256.95c-1.1,0-2.09-0.25-2.98-0.74
		c-0.88-0.49-1.58-1.25-2.1-2.26c-0.52-1.02-0.77-2.3-0.77-3.85c0-1.57,0.25-2.85,0.74-3.86c0.49-1.01,1.19-1.76,2.09-2.25
		c0.9-0.49,1.91-0.74,3.03-0.74c1.3,0,2.46,0.28,3.47,0.85s1.82,1.37,2.41,2.4c0.59,1.03,0.89,2.23,0.89,3.6
		c0,1.38-0.3,2.59-0.89,3.61c-0.59,1.02-1.4,1.82-2.41,2.39S181.16,256.95,179.86,256.95z M179.49,254.3c0.77,0,1.45-0.17,2.04-0.52
		s1.06-0.84,1.41-1.48c0.35-0.63,0.52-1.37,0.52-2.2c0-0.85-0.17-1.59-0.52-2.21s-0.82-1.11-1.41-1.45
		c-0.59-0.34-1.27-0.51-2.04-0.51c-0.73,0-1.4,0.17-2,0.51c-0.6,0.34-1.08,0.82-1.43,1.45s-0.52,1.36-0.52,2.21
		c0,0.83,0.17,1.57,0.52,2.2c0.35,0.63,0.83,1.12,1.43,1.48C178.08,254.12,178.75,254.3,179.49,254.3z"/>
	<path class="st2" d="M189.64,256.77v-13.35h2.97v3.68l-0.35-1.08c0.38-0.9,1.01-1.59,1.88-2.06c0.87-0.48,1.92-0.71,3.17-0.71v2.98
		c-0.12-0.02-0.23-0.03-0.35-0.04s-0.23-0.01-0.32-0.01c-1.2,0-2.15,0.34-2.85,1.02c-0.7,0.68-1.05,1.73-1.05,3.12v6.45H189.64z"/>
	<path class="st2" d="M206.14,256.95c-1.48,0-2.78-0.3-3.89-0.89c-1.11-0.59-1.97-1.4-2.58-2.43c-0.61-1.02-0.91-2.2-0.91-3.54
		s0.3-2.51,0.89-3.54c0.59-1.02,1.41-1.83,2.45-2.43c1.04-0.59,2.23-0.89,3.56-0.89c1.3,0,2.46,0.29,3.48,0.86
		c1.02,0.58,1.82,1.38,2.4,2.41c0.58,1.03,0.88,2.26,0.88,3.67c0,0.12,0,0.26-0.01,0.44c-0.01,0.18-0.02,0.33-0.04,0.46h-11.12
		v-2.08h9.48l-1.25,0.65c0.02-0.75-0.14-1.42-0.46-2.01s-0.77-1.05-1.34-1.38c-0.57-0.33-1.23-0.49-2-0.49
		c-0.75,0-1.42,0.16-2.01,0.49c-0.59,0.32-1.05,0.79-1.36,1.39c-0.32,0.6-0.48,1.29-0.48,2.08v0.5c0,0.8,0.18,1.51,0.54,2.12
		c0.36,0.62,0.87,1.1,1.54,1.44c0.67,0.34,1.44,0.51,2.32,0.51c0.75,0,1.43-0.12,2.02-0.38c0.6-0.25,1.13-0.62,1.6-1.1l1.7,1.95
		c-0.62,0.7-1.38,1.23-2.29,1.6C208.34,256.76,207.3,256.95,206.14,256.95z"/>
	<path class="st2" d="M219.56,256.95c-1.13,0-2.21-0.15-3.23-0.44c-1.02-0.29-1.83-0.65-2.45-1.06l1.2-2.38
		c0.6,0.38,1.32,0.7,2.15,0.94c0.83,0.24,1.67,0.36,2.52,0.36c0.97,0,1.67-0.13,2.11-0.39c0.44-0.26,0.66-0.61,0.66-1.06
		c0-0.37-0.15-0.65-0.45-0.84c-0.3-0.19-0.69-0.34-1.17-0.44c-0.48-0.1-1.02-0.19-1.61-0.27c-0.59-0.08-1.18-0.2-1.77-0.34
		c-0.59-0.14-1.13-0.35-1.61-0.62c-0.48-0.28-0.88-0.65-1.17-1.11c-0.3-0.47-0.45-1.09-0.45-1.88c0-0.83,0.24-1.56,0.73-2.19
		s1.16-1.11,2.04-1.46s1.91-0.52,3.11-0.52c0.88,0,1.79,0.1,2.71,0.31c0.92,0.21,1.7,0.5,2.31,0.86l-1.23,2.38
		c-0.62-0.37-1.25-0.62-1.9-0.76c-0.65-0.14-1.29-0.21-1.93-0.21c-0.93,0-1.63,0.14-2.1,0.41s-0.7,0.63-0.7,1.06
		c0,0.4,0.15,0.7,0.45,0.9c0.3,0.2,0.69,0.35,1.18,0.46c0.48,0.11,1.02,0.21,1.61,0.3c0.59,0.09,1.18,0.21,1.76,0.35
		c0.58,0.14,1.12,0.34,1.61,0.6s0.89,0.62,1.19,1.09c0.3,0.47,0.45,1.07,0.45,1.82c0,0.85-0.25,1.58-0.74,2.19
		c-0.49,0.61-1.18,1.08-2.08,1.43C221.88,256.78,220.81,256.95,219.56,256.95z"/>
	<path class="st2" d="M232.31,256.95c-1,0-1.88-0.17-2.62-0.51s-1.33-0.82-1.74-1.43c-0.41-0.61-0.61-1.3-0.61-2.06
		c0-0.75,0.18-1.42,0.54-2.02s0.95-1.07,1.76-1.42c0.82-0.35,1.9-0.52,3.25-0.52h3.88v2.07h-3.65c-1.05,0-1.76,0.17-2.14,0.51
		c-0.38,0.34-0.56,0.77-0.56,1.29c0,0.55,0.23,0.99,0.67,1.32c0.45,0.33,1.08,0.5,1.88,0.5c0.77,0,1.45-0.17,2.06-0.52
		s1.05-0.87,1.34-1.55l0.5,1.88c-0.3,0.78-0.83,1.39-1.6,1.82C234.49,256.73,233.51,256.95,232.31,256.95z M236.51,256.77v-2.73
		l-0.15-0.55v-4.73c0-0.92-0.28-1.63-0.84-2.14c-0.56-0.51-1.4-0.76-2.54-0.76c-0.73,0-1.46,0.12-2.17,0.35
		c-0.72,0.23-1.33,0.56-1.85,0.97l-1.22-2.27c0.73-0.55,1.59-0.97,2.58-1.25c0.98-0.28,2.01-0.42,3.08-0.42
		c1.95,0,3.45,0.47,4.5,1.4c1.05,0.93,1.57,2.37,1.57,4.3v7.83H236.51z"/>
	<path class="st2" d="M243.48,256.77v-13.35h2.97v3.68l-0.35-1.08c0.38-0.9,1.01-1.59,1.88-2.06c0.87-0.48,1.92-0.71,3.17-0.71v2.98
		c-0.12-0.02-0.23-0.03-0.35-0.04c-0.12-0.01-0.23-0.01-0.33-0.01c-1.2,0-2.15,0.34-2.85,1.02c-0.7,0.68-1.05,1.73-1.05,3.12v6.45
		H243.48z"/>
	<path class="st2" d="M255.41,241.22c-0.58,0-1.06-0.18-1.44-0.55c-0.38-0.37-0.56-0.82-0.56-1.35c0-0.5,0.19-0.93,0.56-1.3
		c0.38-0.37,0.85-0.55,1.44-0.55c0.58,0,1.06,0.17,1.44,0.51c0.38,0.34,0.56,0.78,0.56,1.31c0,0.53-0.18,0.99-0.55,1.36
		C256.49,241.03,256.01,241.22,255.41,241.22z M253.86,256.77v-13.35h3.1v13.35H253.86z"/>
	<path class="st2" d="M267.06,256.95c-1.35,0-2.56-0.3-3.64-0.89c-1.07-0.59-1.92-1.4-2.54-2.44c-0.62-1.03-0.92-2.21-0.92-3.52
		c0-1.35,0.31-2.53,0.92-3.55c0.62-1.02,1.46-1.82,2.53-2.41c1.07-0.59,2.28-0.89,3.65-0.89c1.38,0,2.61,0.3,3.69,0.89
		c1.08,0.59,1.92,1.4,2.53,2.41c0.61,1.02,0.91,2.2,0.91,3.55c0,1.33-0.3,2.51-0.91,3.54c-0.61,1.03-1.45,1.83-2.54,2.43
		C269.65,256.65,268.42,256.95,267.06,256.95z M267.06,254.3c0.77,0,1.45-0.17,2.05-0.51c0.6-0.34,1.07-0.83,1.41-1.48
		c0.34-0.64,0.51-1.38,0.51-2.21c0-0.85-0.17-1.59-0.51-2.21c-0.34-0.62-0.81-1.11-1.41-1.45c-0.6-0.34-1.27-0.51-2.02-0.51
		s-1.42,0.17-2.03,0.51c-0.6,0.34-1.08,0.82-1.42,1.45s-0.53,1.36-0.53,2.21c0,0.83,0.18,1.57,0.53,2.21s0.83,1.13,1.42,1.48
		C265.66,254.13,266.33,254.3,267.06,254.3z"/>
	<path class="st2" d="M281.33,256.95c-1.13,0-2.21-0.15-3.23-0.44c-1.02-0.29-1.83-0.65-2.45-1.06l1.2-2.38
		c0.6,0.38,1.32,0.7,2.15,0.94c0.83,0.24,1.67,0.36,2.53,0.36c0.97,0,1.67-0.13,2.11-0.39c0.44-0.26,0.66-0.61,0.66-1.06
		c0-0.37-0.15-0.65-0.45-0.84c-0.3-0.19-0.69-0.34-1.17-0.44s-1.02-0.19-1.61-0.27s-1.18-0.2-1.78-0.34s-1.13-0.35-1.61-0.62
		c-0.48-0.28-0.88-0.65-1.17-1.11c-0.3-0.47-0.45-1.09-0.45-1.88c0-0.83,0.24-1.56,0.73-2.19c0.48-0.62,1.16-1.11,2.04-1.46
		s1.91-0.52,3.11-0.52c0.88,0,1.79,0.1,2.71,0.31s1.7,0.5,2.31,0.86l-1.23,2.38c-0.62-0.37-1.25-0.62-1.9-0.76
		c-0.65-0.14-1.29-0.21-1.92-0.21c-0.93,0-1.63,0.14-2.1,0.41s-0.7,0.63-0.7,1.06c0,0.4,0.15,0.7,0.45,0.9
		c0.3,0.2,0.69,0.35,1.17,0.46s1.02,0.21,1.61,0.3c0.59,0.09,1.18,0.21,1.76,0.35c0.58,0.14,1.12,0.34,1.61,0.6
		c0.49,0.26,0.89,0.62,1.19,1.09c0.3,0.47,0.45,1.07,0.45,1.82c0,0.85-0.25,1.58-0.74,2.19c-0.49,0.61-1.18,1.08-2.08,1.43
		S282.58,256.95,281.33,256.95z"/>
	<path class="st2" d="M298.08,261.8c-0.67,0-1.33-0.11-1.97-0.32c-0.65-0.22-1.18-0.52-1.6-0.9l1.23-2.27
		c0.32,0.27,0.67,0.48,1.06,0.65s0.8,0.25,1.24,0.25c0.57,0,1.03-0.14,1.38-0.42c0.35-0.28,0.67-0.77,0.97-1.45l0.75-1.7l0.3-0.4
		l5.02-11.8h3l-6.25,14.45c-0.42,0.98-0.88,1.76-1.39,2.34c-0.51,0.58-1.07,0.98-1.7,1.23C299.5,261.68,298.82,261.8,298.08,261.8z
		 M300.81,257.25l-6.03-13.83h3.22l4.93,11.52L300.81,257.25z"/>
	<path class="st2" d="M318.33,256.77v-18.55h3.1v18.55H318.33z"/>
	<path class="st2" d="M329.56,256.95c-1,0-1.88-0.17-2.62-0.51s-1.33-0.82-1.74-1.43c-0.41-0.61-0.61-1.3-0.61-2.06
		c0-0.75,0.18-1.42,0.54-2.02s0.95-1.07,1.76-1.42c0.82-0.35,1.9-0.52,3.25-0.52h3.88v2.07h-3.65c-1.05,0-1.76,0.17-2.14,0.51
		c-0.38,0.34-0.56,0.77-0.56,1.29c0,0.55,0.23,0.99,0.67,1.32c0.45,0.33,1.08,0.5,1.88,0.5c0.77,0,1.45-0.17,2.06-0.52
		s1.05-0.87,1.34-1.55l0.5,1.88c-0.3,0.78-0.83,1.39-1.6,1.82C331.74,256.73,330.76,256.95,329.56,256.95z M333.76,256.77v-2.73
		l-0.15-0.55v-4.73c0-0.92-0.28-1.63-0.84-2.14c-0.56-0.51-1.4-0.76-2.54-0.76c-0.73,0-1.46,0.12-2.17,0.35
		c-0.72,0.23-1.33,0.56-1.85,0.97l-1.22-2.27c0.73-0.55,1.59-0.97,2.58-1.25c0.98-0.28,2.01-0.42,3.08-0.42
		c1.95,0,3.45,0.47,4.5,1.4c1.05,0.93,1.57,2.37,1.57,4.3v7.83H333.76z"/>
	<path class="st2" d="M344.86,256.95c-1.13,0-2.21-0.15-3.23-0.44c-1.02-0.29-1.83-0.65-2.45-1.06l1.2-2.38
		c0.6,0.38,1.32,0.7,2.15,0.94c0.83,0.24,1.67,0.36,2.53,0.36c0.97,0,1.67-0.13,2.11-0.39c0.44-0.26,0.66-0.61,0.66-1.06
		c0-0.37-0.15-0.65-0.45-0.84c-0.3-0.19-0.69-0.34-1.17-0.44s-1.02-0.19-1.61-0.27s-1.18-0.2-1.78-0.34s-1.13-0.35-1.61-0.62
		c-0.48-0.28-0.88-0.65-1.17-1.11c-0.3-0.47-0.45-1.09-0.45-1.88c0-0.83,0.24-1.56,0.73-2.19c0.48-0.62,1.16-1.11,2.04-1.46
		s1.91-0.52,3.11-0.52c0.88,0,1.79,0.1,2.71,0.31s1.7,0.5,2.31,0.86l-1.23,2.38c-0.62-0.37-1.25-0.62-1.9-0.76
		c-0.65-0.14-1.29-0.21-1.92-0.21c-0.93,0-1.63,0.14-2.1,0.41s-0.7,0.63-0.7,1.06c0,0.4,0.15,0.7,0.45,0.9
		c0.3,0.2,0.69,0.35,1.17,0.46s1.02,0.21,1.61,0.3c0.59,0.09,1.18,0.21,1.76,0.35c0.58,0.14,1.12,0.34,1.61,0.6
		c0.49,0.26,0.89,0.62,1.19,1.09c0.3,0.47,0.45,1.07,0.45,1.82c0,0.85-0.25,1.58-0.74,2.19c-0.49,0.61-1.18,1.08-2.08,1.43
		S346.11,256.95,344.86,256.95z"/>
	<path class="st2" d="M62.27,271.22c-0.58,0-1.06-0.18-1.44-0.55c-0.38-0.37-0.56-0.82-0.56-1.35c0-0.5,0.19-0.93,0.56-1.3
		c0.38-0.37,0.85-0.55,1.44-0.55c0.58,0,1.06,0.17,1.44,0.51c0.38,0.34,0.56,0.78,0.56,1.31c0,0.53-0.18,0.99-0.55,1.36
		C63.36,271.03,62.87,271.22,62.27,271.22z M60.72,286.77v-13.35h3.1v13.35H60.72z"/>
	<path class="st2" d="M75.5,273.25c1.08,0,2.04,0.21,2.86,0.62c0.83,0.42,1.48,1.06,1.98,1.92c0.49,0.87,0.74,1.98,0.74,3.33v7.65
		h-3.12v-7.25c0-1.18-0.28-2.07-0.83-2.65S75.79,276,74.77,276c-0.73,0-1.38,0.15-1.95,0.45c-0.57,0.3-1,0.75-1.31,1.34
		c-0.31,0.59-0.46,1.34-0.46,2.24v6.75h-3.1v-13.35h2.97v3.62l-0.52-1.12c0.45-0.85,1.12-1.51,2.01-1.98
		C73.3,273.48,74.33,273.25,75.5,273.25z"/>
	<path class="st2" d="M89.2,286.95c-1.13,0-2.21-0.15-3.23-0.44c-1.02-0.29-1.83-0.65-2.45-1.06l1.2-2.38
		c0.6,0.38,1.32,0.7,2.15,0.94c0.83,0.24,1.67,0.36,2.52,0.36c0.97,0,1.67-0.13,2.11-0.39c0.44-0.26,0.66-0.61,0.66-1.06
		c0-0.37-0.15-0.65-0.45-0.84c-0.3-0.19-0.69-0.34-1.18-0.44s-1.02-0.19-1.61-0.27c-0.59-0.08-1.18-0.2-1.77-0.34
		c-0.59-0.14-1.13-0.35-1.61-0.62c-0.48-0.28-0.88-0.65-1.17-1.11c-0.3-0.47-0.45-1.09-0.45-1.88c0-0.83,0.24-1.56,0.73-2.19
		s1.16-1.11,2.04-1.46s1.91-0.52,3.11-0.52c0.88,0,1.79,0.1,2.71,0.31c0.92,0.21,1.7,0.5,2.31,0.86l-1.23,2.38
		c-0.62-0.37-1.25-0.62-1.9-0.76c-0.65-0.14-1.29-0.21-1.93-0.21c-0.93,0-1.63,0.14-2.1,0.41s-0.7,0.63-0.7,1.06
		c0,0.4,0.15,0.7,0.45,0.9c0.3,0.2,0.69,0.35,1.18,0.46c0.48,0.11,1.02,0.21,1.61,0.3c0.59,0.09,1.18,0.21,1.76,0.35
		c0.58,0.14,1.12,0.34,1.61,0.6s0.89,0.62,1.19,1.09c0.3,0.47,0.45,1.07,0.45,1.82c0,0.85-0.25,1.58-0.74,2.19
		c-0.49,0.61-1.18,1.08-2.07,1.43C91.52,286.78,90.45,286.95,89.2,286.95z"/>
	<path class="st2" d="M96.15,276.02v-2.5h8.9v2.5H96.15z M102.95,286.95c-1.47,0-2.6-0.38-3.4-1.14c-0.8-0.76-1.2-1.87-1.2-3.34v-12
		h3.1v11.9c0,0.63,0.17,1.12,0.5,1.48c0.33,0.35,0.8,0.52,1.4,0.52c0.68,0,1.25-0.18,1.7-0.55l0.9,2.23
		c-0.38,0.3-0.84,0.52-1.38,0.68C104.04,286.87,103.5,286.95,102.95,286.95z"/>
	<path class="st2" d="M110.1,271.22c-0.58,0-1.06-0.18-1.44-0.55c-0.38-0.37-0.56-0.82-0.56-1.35c0-0.5,0.19-0.93,0.56-1.3
		c0.38-0.37,0.85-0.55,1.44-0.55c0.58,0,1.06,0.17,1.44,0.51c0.38,0.34,0.56,0.78,0.56,1.31c0,0.53-0.18,0.99-0.55,1.36
		C111.18,271.03,110.7,271.22,110.1,271.22z M108.55,286.77v-13.35h3.1v13.35H108.55z"/>
	<path class="st2" d="M113.97,276.02v-2.5h8.9v2.5H113.97z M120.77,286.95c-1.47,0-2.6-0.38-3.4-1.14c-0.8-0.76-1.2-1.87-1.2-3.34
		v-12h3.1v11.9c0,0.63,0.17,1.12,0.5,1.48c0.33,0.35,0.8,0.52,1.4,0.52c0.68,0,1.25-0.18,1.7-0.55l0.9,2.23
		c-0.38,0.3-0.84,0.52-1.38,0.68C121.87,286.87,121.32,286.95,120.77,286.95z"/>
	<path class="st2" d="M132,286.95c-1.13,0-2.13-0.21-3-0.64c-0.87-0.43-1.55-1.08-2.04-1.95c-0.49-0.88-0.74-1.98-0.74-3.31v-7.62
		h3.15v7.23c0,1.18,0.27,2.07,0.82,2.66c0.55,0.59,1.32,0.89,2.3,0.89c0.73,0,1.38-0.15,1.92-0.45c0.55-0.3,0.98-0.75,1.27-1.35
		c0.3-0.6,0.45-1.34,0.45-2.23v-6.75h3.12v13.35h-2.98v-3.62l0.52,1.12c-0.45,0.85-1.11,1.51-1.98,1.98
		C133.98,286.71,133.03,286.95,132,286.95z"/>
	<path class="st2" d="M149.5,286.95c-1.4,0-2.65-0.3-3.74-0.89c-1.09-0.59-1.95-1.4-2.56-2.43c-0.62-1.02-0.92-2.2-0.92-3.54
		c0-1.35,0.31-2.53,0.92-3.55c0.62-1.02,1.47-1.82,2.56-2.41c1.09-0.59,2.34-0.89,3.74-0.89c1.28,0,2.43,0.27,3.43,0.8
		c1,0.53,1.75,1.31,2.25,2.33l-2.38,1.4c-0.4-0.62-0.89-1.08-1.46-1.39c-0.58-0.31-1.2-0.46-1.86-0.46c-0.77,0-1.46,0.17-2.07,0.51
		c-0.62,0.34-1.1,0.82-1.45,1.45s-0.52,1.36-0.52,2.21c0,0.85,0.17,1.59,0.52,2.22c0.35,0.63,0.83,1.12,1.45,1.46
		c0.62,0.34,1.31,0.51,2.07,0.51c0.67,0,1.29-0.15,1.86-0.46c0.57-0.31,1.06-0.78,1.46-1.41l2.38,1.4c-0.5,1-1.25,1.77-2.25,2.31
		C151.92,286.68,150.78,286.95,149.5,286.95z"/>
	<path class="st2" d="M159.35,271.22c-0.58,0-1.06-0.18-1.44-0.55c-0.38-0.37-0.56-0.82-0.56-1.35c0-0.5,0.19-0.93,0.56-1.3
		c0.38-0.37,0.85-0.55,1.44-0.55c0.58,0,1.06,0.17,1.44,0.51c0.38,0.34,0.56,0.78,0.56,1.31c0,0.53-0.18,0.99-0.55,1.36
		C160.43,271.03,159.95,271.22,159.35,271.22z M157.8,286.77v-13.35h3.1v13.35H157.8z"/>
	<path class="st2" d="M171,286.95c-1.35,0-2.56-0.3-3.64-0.89c-1.08-0.59-1.92-1.4-2.54-2.44c-0.62-1.03-0.92-2.21-0.92-3.52
		c0-1.35,0.31-2.53,0.92-3.55c0.62-1.02,1.46-1.82,2.52-2.41c1.07-0.59,2.28-0.89,3.65-0.89c1.38,0,2.61,0.3,3.69,0.89
		c1.08,0.59,1.92,1.4,2.53,2.41c0.61,1.02,0.91,2.2,0.91,3.55c0,1.33-0.3,2.51-0.91,3.54c-0.61,1.03-1.45,1.83-2.54,2.43
		C173.59,286.65,172.37,286.95,171,286.95z M171,284.3c0.77,0,1.45-0.17,2.05-0.51s1.07-0.83,1.41-1.48
		c0.34-0.64,0.51-1.38,0.51-2.21c0-0.85-0.17-1.59-0.51-2.21c-0.34-0.62-0.81-1.11-1.41-1.45c-0.6-0.34-1.27-0.51-2.02-0.51
		s-1.43,0.17-2.03,0.51c-0.6,0.34-1.07,0.82-1.42,1.45s-0.52,1.36-0.52,2.21c0,0.83,0.17,1.57,0.52,2.21s0.83,1.13,1.42,1.48
		C169.6,284.13,170.27,284.3,171,284.3z"/>
	<path class="st2" d="M188.7,273.25c1.08,0,2.04,0.21,2.86,0.62c0.83,0.42,1.48,1.06,1.98,1.92c0.49,0.87,0.74,1.98,0.74,3.33v7.65
		h-3.12v-7.25c0-1.18-0.28-2.07-0.83-2.65s-1.33-0.88-2.35-0.88c-0.73,0-1.38,0.15-1.95,0.45c-0.57,0.3-1,0.75-1.31,1.34
		c-0.31,0.59-0.46,1.34-0.46,2.24v6.75h-3.1v-13.35h2.97v3.62l-0.52-1.12c0.45-0.85,1.12-1.51,2.01-1.98
		C186.5,273.48,187.53,273.25,188.7,273.25z"/>
	<path class="st2" d="M204.55,286.95c-1.48,0-2.78-0.3-3.89-0.89c-1.11-0.59-1.97-1.4-2.58-2.43c-0.61-1.02-0.91-2.2-0.91-3.54
		s0.3-2.51,0.89-3.54c0.59-1.02,1.41-1.83,2.45-2.43c1.04-0.59,2.23-0.89,3.56-0.89c1.3,0,2.46,0.29,3.48,0.86
		c1.02,0.58,1.82,1.38,2.4,2.41c0.58,1.03,0.88,2.26,0.88,3.67c0,0.12,0,0.26-0.01,0.44c-0.01,0.18-0.02,0.33-0.04,0.46h-11.12
		v-2.08h9.48l-1.25,0.65c0.02-0.75-0.14-1.42-0.46-2.01s-0.77-1.05-1.34-1.38c-0.57-0.33-1.23-0.49-2-0.49
		c-0.75,0-1.42,0.16-2.01,0.49c-0.59,0.32-1.05,0.79-1.36,1.39c-0.32,0.6-0.48,1.29-0.48,2.08v0.5c0,0.8,0.18,1.51,0.54,2.12
		c0.36,0.62,0.87,1.1,1.54,1.44c0.67,0.34,1.44,0.51,2.32,0.51c0.75,0,1.43-0.12,2.02-0.38c0.6-0.25,1.13-0.62,1.6-1.1l1.7,1.95
		c-0.62,0.7-1.38,1.23-2.29,1.6C206.75,286.76,205.71,286.95,204.55,286.95z"/>
	<path class="st2" d="M217.97,286.95c-1.13,0-2.21-0.15-3.23-0.44c-1.02-0.29-1.83-0.65-2.45-1.06l1.2-2.38
		c0.6,0.38,1.32,0.7,2.15,0.94c0.83,0.24,1.67,0.36,2.52,0.36c0.97,0,1.67-0.13,2.11-0.39c0.44-0.26,0.66-0.61,0.66-1.06
		c0-0.37-0.15-0.65-0.45-0.84c-0.3-0.19-0.69-0.34-1.18-0.44s-1.02-0.19-1.61-0.27c-0.59-0.08-1.18-0.2-1.77-0.34
		c-0.59-0.14-1.13-0.35-1.61-0.62c-0.48-0.28-0.88-0.65-1.17-1.11c-0.3-0.47-0.45-1.09-0.45-1.88c0-0.83,0.24-1.56,0.73-2.19
		s1.16-1.11,2.04-1.46s1.91-0.52,3.11-0.52c0.88,0,1.79,0.1,2.71,0.31c0.92,0.21,1.7,0.5,2.31,0.86l-1.23,2.38
		c-0.62-0.37-1.25-0.62-1.9-0.76s-1.29-0.21-1.93-0.21c-0.93,0-1.63,0.14-2.1,0.41s-0.7,0.63-0.7,1.06c0,0.4,0.15,0.7,0.45,0.9
		c0.3,0.2,0.69,0.35,1.18,0.46c0.48,0.11,1.02,0.21,1.61,0.3c0.59,0.09,1.18,0.21,1.76,0.35c0.58,0.14,1.12,0.34,1.61,0.6
		c0.49,0.26,0.89,0.62,1.19,1.09c0.3,0.47,0.45,1.07,0.45,1.82c0,0.85-0.25,1.58-0.74,2.19c-0.49,0.61-1.18,1.08-2.07,1.43
		C220.29,286.78,219.22,286.95,217.97,286.95z"/>
	<path class="st2" d="M231.82,276.02v-2.5h8.9v2.5H231.82z M234.02,286.77V272.7c0-1.42,0.41-2.55,1.24-3.39
		c0.82-0.84,2-1.26,3.54-1.26c0.55,0,1.07,0.06,1.56,0.18c0.49,0.12,0.9,0.3,1.24,0.55l-0.88,2.33c-0.22-0.15-0.47-0.28-0.77-0.38
		c-0.3-0.1-0.61-0.15-0.93-0.15c-0.65,0-1.14,0.18-1.47,0.54c-0.33,0.36-0.5,0.89-0.5,1.59v1.55l0.08,1.38v11.15H234.02z
		 M244.5,271.22c-0.58,0-1.06-0.18-1.44-0.55c-0.38-0.37-0.56-0.82-0.56-1.35c0-0.5,0.19-0.93,0.56-1.3
		c0.38-0.37,0.85-0.55,1.44-0.55c0.58,0,1.06,0.17,1.44,0.51c0.38,0.34,0.56,0.78,0.56,1.31c0,0.53-0.18,0.99-0.55,1.36
		C245.58,271.03,245.1,271.22,244.5,271.22z M242.95,286.77v-13.35h3.1v13.35H242.95z"/>
	<path class="st2" d="M257.72,273.25c1.08,0,2.04,0.21,2.86,0.62s1.48,1.06,1.98,1.92c0.49,0.87,0.74,1.98,0.74,3.33v7.65h-3.12
		v-7.25c0-1.18-0.28-2.07-0.83-2.65S258.01,276,257,276c-0.73,0-1.38,0.15-1.95,0.45c-0.57,0.3-1,0.75-1.31,1.34
		c-0.31,0.59-0.46,1.34-0.46,2.24v6.75h-3.1v-13.35h2.97v3.62l-0.52-1.12c0.45-0.85,1.12-1.51,2.01-1.98
		C255.53,273.48,256.55,273.25,257.72,273.25z"/>
	<path class="st2" d="M271.3,286.95c-1,0-1.88-0.17-2.62-0.51s-1.33-0.82-1.74-1.43c-0.41-0.61-0.61-1.3-0.61-2.06
		c0-0.75,0.18-1.42,0.54-2.02s0.95-1.07,1.76-1.42c0.82-0.35,1.9-0.52,3.25-0.52h3.88v2.07h-3.65c-1.05,0-1.76,0.17-2.14,0.51
		c-0.38,0.34-0.56,0.77-0.56,1.29c0,0.55,0.23,0.99,0.67,1.32c0.45,0.33,1.08,0.5,1.88,0.5c0.77,0,1.45-0.17,2.06-0.52
		s1.05-0.87,1.34-1.55l0.5,1.88c-0.3,0.78-0.83,1.39-1.6,1.82C273.48,286.73,272.5,286.95,271.3,286.95z M275.5,286.77v-2.73
		l-0.15-0.55v-4.73c0-0.92-0.28-1.63-0.84-2.14c-0.56-0.51-1.4-0.76-2.54-0.76c-0.73,0-1.46,0.12-2.17,0.35
		c-0.72,0.23-1.33,0.56-1.85,0.97l-1.22-2.27c0.73-0.55,1.59-0.97,2.58-1.25c0.98-0.28,2.01-0.42,3.08-0.42
		c1.95,0,3.45,0.47,4.5,1.4c1.05,0.93,1.57,2.37,1.57,4.3v7.83H275.5z"/>
	<path class="st2" d="M290.02,273.25c1.08,0,2.04,0.21,2.86,0.62s1.48,1.06,1.98,1.92c0.49,0.87,0.74,1.98,0.74,3.33v7.65h-3.12
		v-7.25c0-1.18-0.28-2.07-0.83-2.65s-1.33-0.88-2.35-0.88c-0.73,0-1.38,0.15-1.95,0.45c-0.57,0.3-1,0.75-1.31,1.34
		c-0.31,0.59-0.46,1.34-0.46,2.24v6.75h-3.1v-13.35h2.97v3.62l-0.52-1.12c0.45-0.85,1.12-1.51,2.01-1.98
		C287.83,273.48,288.85,273.25,290.02,273.25z"/>
	<path class="st2" d="M305.72,286.95c-1.4,0-2.65-0.3-3.74-0.89c-1.09-0.59-1.95-1.4-2.56-2.43c-0.62-1.02-0.92-2.2-0.92-3.54
		c0-1.35,0.31-2.53,0.92-3.55c0.62-1.02,1.47-1.82,2.56-2.41c1.09-0.59,2.34-0.89,3.74-0.89c1.28,0,2.42,0.27,3.42,0.8
		c1,0.53,1.75,1.31,2.25,2.33l-2.38,1.4c-0.4-0.62-0.89-1.08-1.46-1.39c-0.58-0.31-1.2-0.46-1.86-0.46c-0.77,0-1.46,0.17-2.08,0.51
		c-0.62,0.34-1.1,0.82-1.45,1.45s-0.53,1.36-0.53,2.21c0,0.85,0.18,1.59,0.53,2.22c0.35,0.63,0.83,1.12,1.45,1.46
		c0.62,0.34,1.31,0.51,2.08,0.51c0.67,0,1.29-0.15,1.86-0.46c0.58-0.31,1.06-0.78,1.46-1.41l2.38,1.4c-0.5,1-1.25,1.77-2.25,2.31
		C308.15,286.68,307,286.95,305.72,286.95z"/>
	<path class="st2" d="M315.57,271.22c-0.58,0-1.06-0.18-1.44-0.55c-0.38-0.37-0.56-0.82-0.56-1.35c0-0.5,0.19-0.93,0.56-1.3
		c0.38-0.37,0.85-0.55,1.44-0.55c0.58,0,1.06,0.17,1.44,0.51c0.38,0.34,0.56,0.78,0.56,1.31c0,0.53-0.18,0.99-0.55,1.36
		C316.65,271.03,316.17,271.22,315.57,271.22z M314.02,286.77v-13.35h3.1v13.35H314.02z"/>
	<path class="st2" d="M327.5,286.95c-1.48,0-2.78-0.3-3.89-0.89c-1.11-0.59-1.97-1.4-2.58-2.43c-0.61-1.02-0.91-2.2-0.91-3.54
		s0.3-2.51,0.89-3.54c0.59-1.02,1.41-1.83,2.45-2.43c1.04-0.59,2.23-0.89,3.56-0.89c1.3,0,2.46,0.29,3.48,0.86
		c1.02,0.58,1.82,1.38,2.4,2.41c0.58,1.03,0.88,2.26,0.88,3.67c0,0.12,0,0.26-0.01,0.44c-0.01,0.18-0.02,0.33-0.04,0.46h-11.12
		v-2.08h9.48l-1.25,0.65c0.02-0.75-0.14-1.42-0.46-2.01s-0.77-1.05-1.34-1.38c-0.57-0.33-1.23-0.49-2-0.49
		c-0.75,0-1.42,0.16-2.01,0.49c-0.59,0.32-1.05,0.79-1.36,1.39s-0.47,1.29-0.47,2.08v0.5c0,0.8,0.18,1.51,0.54,2.12
		s0.87,1.1,1.54,1.44c0.67,0.34,1.44,0.51,2.33,0.51c0.75,0,1.42-0.12,2.02-0.38c0.6-0.25,1.13-0.62,1.6-1.1l1.7,1.95
		c-0.62,0.7-1.38,1.23-2.29,1.6C329.7,286.76,328.66,286.95,327.5,286.95z"/>
	<path class="st2" d="M336.79,286.77v-13.35h2.97v3.68l-0.35-1.08c0.38-0.9,1.01-1.59,1.88-2.06c0.87-0.48,1.92-0.71,3.17-0.71v2.98
		c-0.12-0.02-0.23-0.03-0.35-0.04c-0.12-0.01-0.23-0.01-0.33-0.01c-1.2,0-2.15,0.34-2.85,1.02c-0.7,0.68-1.05,1.73-1.05,3.12v6.45
		H336.79z"/>
	<path class="st2" d="M350.22,286.95c-1,0-1.88-0.17-2.62-0.51s-1.33-0.82-1.74-1.43c-0.41-0.61-0.61-1.3-0.61-2.06
		c0-0.75,0.18-1.42,0.54-2.02s0.95-1.07,1.76-1.42c0.82-0.35,1.9-0.52,3.25-0.52h3.88v2.07h-3.65c-1.05,0-1.76,0.17-2.14,0.51
		c-0.38,0.34-0.56,0.77-0.56,1.29c0,0.55,0.23,0.99,0.67,1.32c0.45,0.33,1.08,0.5,1.88,0.5c0.77,0,1.45-0.17,2.06-0.52
		s1.05-0.87,1.34-1.55l0.5,1.88c-0.3,0.78-0.83,1.39-1.6,1.82C352.4,286.73,351.42,286.95,350.22,286.95z M354.42,286.77v-2.73
		l-0.15-0.55v-4.73c0-0.92-0.28-1.63-0.84-2.14c-0.56-0.51-1.4-0.76-2.54-0.76c-0.73,0-1.46,0.12-2.17,0.35
		c-0.72,0.23-1.33,0.56-1.85,0.97l-1.22-2.27c0.73-0.55,1.59-0.97,2.58-1.25c0.98-0.28,2.01-0.42,3.08-0.42
		c1.95,0,3.45,0.47,4.5,1.4c1.05,0.93,1.57,2.37,1.57,4.3v7.83H354.42z"/>
	<path class="st2" d="M365.52,286.95c-1.13,0-2.21-0.15-3.23-0.44c-1.02-0.29-1.83-0.65-2.45-1.06l1.2-2.38
		c0.6,0.38,1.32,0.7,2.15,0.94c0.83,0.24,1.67,0.36,2.53,0.36c0.97,0,1.67-0.13,2.11-0.39c0.44-0.26,0.66-0.61,0.66-1.06
		c0-0.37-0.15-0.65-0.45-0.84c-0.3-0.19-0.69-0.34-1.17-0.44s-1.02-0.19-1.61-0.27s-1.18-0.2-1.78-0.34s-1.13-0.35-1.61-0.62
		c-0.48-0.28-0.88-0.65-1.17-1.11c-0.3-0.47-0.45-1.09-0.45-1.88c0-0.83,0.24-1.56,0.73-2.19c0.48-0.62,1.16-1.11,2.04-1.46
		s1.91-0.52,3.11-0.52c0.88,0,1.79,0.1,2.71,0.31s1.7,0.5,2.31,0.86l-1.23,2.38c-0.62-0.37-1.25-0.62-1.9-0.76
		c-0.65-0.14-1.29-0.21-1.92-0.21c-0.93,0-1.63,0.14-2.1,0.41s-0.7,0.63-0.7,1.06c0,0.4,0.15,0.7,0.45,0.9
		c0.3,0.2,0.69,0.35,1.17,0.46s1.02,0.21,1.61,0.3c0.59,0.09,1.18,0.21,1.76,0.35c0.58,0.14,1.12,0.34,1.61,0.6
		c0.49,0.26,0.89,0.62,1.19,1.09c0.3,0.47,0.45,1.07,0.45,1.82c0,0.85-0.25,1.58-0.74,2.19c-0.49,0.61-1.18,1.08-2.08,1.43
		S366.77,286.95,365.52,286.95z"/>
	<path class="st2" d="M375.27,286.95c-0.58,0-1.08-0.2-1.48-0.59c-0.4-0.39-0.6-0.9-0.6-1.51s0.2-1.11,0.6-1.49
		c0.4-0.38,0.89-0.56,1.48-0.56c0.55,0,1.02,0.19,1.42,0.56s0.6,0.87,0.6,1.49s-0.2,1.12-0.6,1.51
		C376.29,286.75,375.82,286.95,375.27,286.95z"/>
</g>
</svg>
